<?xml version="1.0" encoding="UTF-8" standalone="no"?><svg xmlns="http://www.w3.org/2000/svg" xmlns:xlink="http://www.w3.org/1999/xlink" contentScriptType="application/ecmascript" contentStyleType="text/css" height="2578.5px" preserveAspectRatio="none" style="width:1975px;height:2578px;" version="1.1" viewBox="0 0 1975 2578" width="1975.05px" zoomAndPan="magnify"><defs><filter height="300%" id="f18jnwhnkqjea2" width="300%" x="-1" y="-1"><feGaussianBlur result="blurOut" stdDeviation="2.7"/><feColorMatrix in="blurOut" result="blurOut2" type="matrix" values="0 0 0 0 0 0 0 0 0 0 0 0 0 0 0 0 0 0 .4 0"/><feOffset dx="5.4" dy="5.4" in="blurOut2" result="blurOut3"/><feBlend in="SourceGraphic" in2="blurOut3" mode="normal"/></filter></defs><g><!--MD5=[25978a4fff2e3f143e96a46d7bb4290d]
cluster actor.intermediate--><polygon fill="#FFFFFF" filter="url(#f18jnwhnkqjea2)" points="947.025,507.6,1129.275,507.6,1138.725,539.4727,1233.225,539.4727,1233.225,680.4,947.025,680.4,947.025,507.6" style="stroke:#000000;stroke-width:2.0250000000000004;"/><line style="stroke:#000000;stroke-width:2.0250000000000004;" x1="947.025" x2="1138.725" y1="539.4727" y2="539.4727"/><text fill="#000000" font-family="sans-serif" font-size="18.9" font-weight="bold" lengthAdjust="spacing" textLength="174.15" x="952.425" y="529.9198">actor.intermediate</text><!--MD5=[5d4cd377749310b66bf14896f5cd8d9b]
cluster model--><polygon fill="#FFFFFF" filter="url(#f18jnwhnkqjea2)" points="127.575,414.45,193.725,414.45,203.175,446.3227,868.725,446.3227,868.725,2569.05,127.575,2569.05,127.575,414.45" style="stroke:#000000;stroke-width:2.0250000000000004;"/><line style="stroke:#000000;stroke-width:2.0250000000000004;" x1="127.575" x2="203.175" y1="446.3227" y2="446.3227"/><text fill="#000000" font-family="sans-serif" font-size="18.9" font-weight="bold" lengthAdjust="spacing" textLength="58.05" x="132.975" y="436.7698">model</text><!--MD5=[18aed0fe745dedb90085b331e37ded62]
cluster stub--><polygon fill="#FFFFFF" filter="url(#f18jnwhnkqjea2)" points="1169.775,1190.7,1219.725,1190.7,1229.175,1222.5727,1952.775,1222.5727,1952.775,1475.55,1169.775,1475.55,1169.775,1190.7" style="stroke:#000000;stroke-width:2.0250000000000004;"/><line style="stroke:#000000;stroke-width:2.0250000000000004;" x1="1169.775" x2="1229.175" y1="1222.5727" y2="1222.5727"/><text fill="#000000" font-family="sans-serif" font-size="18.9" font-weight="bold" lengthAdjust="spacing" textLength="41.85" x="1175.175" y="1213.0198">stub</text><!--MD5=[df97d02f0e0087fdb4900c9f3b8cbe8b]
cluster stub.intermediate--><polygon fill="#FFFFFF" filter="url(#f18jnwhnkqjea2)" points="901.125,882.9,1076.625,882.9,1086.075,914.7727,1373.625,914.7727,1373.625,1074.6,901.125,1074.6,901.125,882.9" style="stroke:#000000;stroke-width:2.0250000000000004;"/><line style="stroke:#000000;stroke-width:2.0250000000000004;" x1="901.125" x2="1086.075" y1="914.7727" y2="914.7727"/><text fill="#000000" font-family="sans-serif" font-size="18.9" font-weight="bold" lengthAdjust="spacing" textLength="167.4" x="906.525" y="905.2198">stub.intermediate</text><!--MD5=[e1f23030ead27e1095528dde945cb3cc]
cluster actor--><polygon fill="#FFFFFF" filter="url(#f18jnwhnkqjea2)" points="93.825,137.7,150.525,137.7,159.975,169.5727,398.925,169.5727,398.925,346.95,93.825,346.95,93.825,137.7" style="stroke:#000000;stroke-width:2.0250000000000004;"/><line style="stroke:#000000;stroke-width:2.0250000000000004;" x1="93.825" x2="159.975" y1="169.5727" y2="169.5727"/><text fill="#000000" font-family="sans-serif" font-size="18.9" font-weight="bold" lengthAdjust="spacing" textLength="48.6" x="99.225" y="160.0198">actor</text><!--MD5=[9a27a3e923bbc1cb39c16d5ac83fa6f1]
class actor.intermediate.ServerSideApi--><rect codeLine="3" fill="#FEFECE" filter="url(#f18jnwhnkqjea2)" height="102.157" id="actor.intermediate.ServerSideApi" style="stroke:#A80036;stroke-width:2.0250000000000004;" width="241.65" x="969.3" y="556.2"/><ellipse cx="1031.0625" cy="577.8" fill="#B4A7E5" rx="14.85" ry="14.85" style="stroke:#A80036;stroke-width:1.35;"/><path d="M1032.4125,573.75 L1032.4125,581.85 L1035.1125,581.85 L1035.7664,581.85 L1036.4625,582.6938 L1036.4625,583.2 L1036.4625,583.7063 L1035.7664,584.55 L1035.1125,584.55 L1027.0125,584.55 L1026.3586,584.55 L1025.6625,583.7063 L1025.6625,583.2 L1025.6625,582.6938 L1026.3586,581.85 L1027.0125,581.85 L1029.7125,581.85 L1029.7125,573.75 L1027.0125,573.75 L1026.3586,573.75 L1025.6625,572.9063 L1025.6625,572.4 L1025.6625,571.8938 L1026.3586,571.05 L1027.0125,571.05 L1035.1125,571.05 L1035.7664,571.05 L1036.4625,571.8938 L1036.4625,572.4 L1036.4625,572.9063 L1035.7664,573.75 L1035.1125,573.75 L1032.4125,573.75 Z " fill="#000000"/><text fill="#000000" font-family="sans-serif" font-size="16.2" font-style="italic" lengthAdjust="spacing" textLength="106.65" x="1058.7375" y="584.4287">ServerSideApi</text><line style="stroke:#A80036;stroke-width:2.0250000000000004;" x1="970.65" x2="1209.6" y1="599.4" y2="599.4"/><line style="stroke:#A80036;stroke-width:2.0250000000000004;" x1="970.65" x2="1209.6" y1="610.2" y2="610.2"/><ellipse cx="984.15" cy="625.05" fill="#84BE84" rx="4.05" ry="4.05" style="stroke:#038048;stroke-width:1.35;"/><text fill="#000000" font-family="sans-serif" font-size="14.85" lengthAdjust="spacing" textLength="206.55" x="996.3" y="631.0156">void send(Response response)</text><ellipse cx="984.15" cy="643.7285" fill="#84BE84" rx="4.05" ry="4.05" style="stroke:#038048;stroke-width:1.35;"/><text fill="#000000" font-family="sans-serif" font-size="14.85" lengthAdjust="spacing" textLength="106.65" x="996.3" y="649.6941">Message send()</text><!--MD5=[47d34067e58fbf84983dbb17222562fa]
class model.BadRequest--><rect codeLine="3" fill="#FEFECE" filter="url(#f18jnwhnkqjea2)" height="102.157" id="model.BadRequest" style="stroke:#A80036;stroke-width:2.0250000000000004;" width="399.6" x="149.175" y="940.95"/><ellipse cx="296.6625" cy="962.55" fill="#ADD1B2" rx="14.85" ry="14.85" style="stroke:#A80036;stroke-width:1.35;"/><path d="M299.3625,957.825 Q299.6367,957.15 299.9531,956.8125 Q300.2695,956.475 300.6281,956.475 Q301.2609,956.475 301.6617,956.8547 Q302.0625,957.2344 302.0625,958.1203 L302.0625,960.2297 Q302.0625,961.1156 301.6828,961.4953 Q301.3031,961.875 300.7125,961.875 Q300.1852,961.875 299.8477,961.643 Q299.5102,961.4109 299.3625,960.7992 Q299.2992,960.3773 299.0672,960.1453 Q298.6453,959.7023 297.8859,959.4492 Q297.1266,959.175 296.3672,959.175 Q295.418,959.175 294.6164,959.5547 Q293.8359,959.9344 293.2242,960.7781 Q292.6125,961.6219 292.6125,962.782 L292.6125,964.0266 Q292.6125,965.4188 293.7516,966.3469 Q294.8906,967.275 296.9156,967.275 Q298.118,967.275 298.9617,967.0008 Q299.4469,966.8531 299.9953,966.368 Q300.3539,966.0938 300.5438,966.0094 Q300.7336,965.925 300.9656,965.925 Q301.4086,965.925 301.725,966.2836 Q302.0625,966.6211 302.0625,967.1063 Q302.0625,967.5703 301.5984,968.1188 Q300.9234,968.9203 299.8477,969.3633 Q298.4344,969.975 296.7047,969.975 Q294.6797,969.975 293.0555,969.1734 Q291.7477,968.5406 290.8195,967.1695 Q289.9125,965.7984 289.9125,964.1742 L289.9125,962.6977 Q289.9125,961.0102 290.7141,959.5336 Q291.5367,958.057 292.95,957.2766 Q294.3844,956.475 295.9875,956.475 Q296.9578,956.475 297.8016,956.8125 Q298.6453,957.15 299.3625,957.825 Z " fill="#000000"/><text fill="#000000" font-family="sans-serif" font-size="16.2" lengthAdjust="spacing" textLength="93.15" x="324.3375" y="969.1787">BadRequest</text><line style="stroke:#A80036;stroke-width:2.0250000000000004;" x1="150.525" x2="547.425" y1="984.15" y2="984.15"/><line style="stroke:#A80036;stroke-width:2.0250000000000004;" x1="150.525" x2="547.425" y1="994.95" y2="994.95"/><ellipse cx="164.025" cy="1009.8" fill="#84BE84" rx="4.05" ry="4.05" style="stroke:#038048;stroke-width:1.35;"/><text fill="#000000" font-family="sans-serif" font-size="14.85" lengthAdjust="spacing" textLength="364.5" x="176.175" y="1015.7656">BadRequest(boolean read, String filename, String mode)</text><rect fill="#F24D5C" height="8.1" style="stroke:#C82930;stroke-width:1.35;" width="8.1" x="159.975" y="1024.4285"/><text fill="#000000" font-family="sans-serif" font-size="14.85" lengthAdjust="spacing" textLength="261.9" x="176.175" y="1034.4441">byte[] getEncoded(int maxMessageSize)</text><!--MD5=[bf4638d74bc39945c3e1383ef8cbae27]
class model.Request--><rect codeLine="43" fill="#FEFECE" filter="url(#f18jnwhnkqjea2)" height="288.9422" id="model.Request" style="stroke:#A80036;stroke-width:2.0250000000000004;" width="373.95" x="410.4" y="463.05"/><ellipse cx="559.9125" cy="484.65" fill="#ADD1B2" rx="14.85" ry="14.85" style="stroke:#A80036;stroke-width:1.35;"/><path d="M562.6125,479.925 Q562.8867,479.25 563.2031,478.9125 Q563.5195,478.575 563.8781,478.575 Q564.5109,478.575 564.9117,478.9547 Q565.3125,479.3344 565.3125,480.2203 L565.3125,482.3297 Q565.3125,483.2156 564.9328,483.5953 Q564.5531,483.975 563.9625,483.975 Q563.4352,483.975 563.0977,483.743 Q562.7602,483.5109 562.6125,482.8992 Q562.5492,482.4773 562.3172,482.2453 Q561.8953,481.8023 561.1359,481.5492 Q560.3766,481.275 559.6172,481.275 Q558.668,481.275 557.8664,481.6547 Q557.0859,482.0344 556.4742,482.8781 Q555.8625,483.7219 555.8625,484.882 L555.8625,486.1266 Q555.8625,487.5188 557.0016,488.4469 Q558.1406,489.375 560.1656,489.375 Q561.368,489.375 562.2117,489.1008 Q562.6969,488.9531 563.2453,488.468 Q563.6039,488.1938 563.7938,488.1094 Q563.9836,488.025 564.2156,488.025 Q564.6586,488.025 564.975,488.3836 Q565.3125,488.7211 565.3125,489.2063 Q565.3125,489.6703 564.8484,490.2188 Q564.1734,491.0203 563.0977,491.4633 Q561.6844,492.075 559.9547,492.075 Q557.9297,492.075 556.3055,491.2734 Q554.9977,490.6406 554.0695,489.2695 Q553.1625,487.8984 553.1625,486.2742 L553.1625,484.7977 Q553.1625,483.1102 553.9641,481.6336 Q554.7867,480.157 556.2,479.3766 Q557.6344,478.575 559.2375,478.575 Q560.2078,478.575 561.0516,478.9125 Q561.8953,479.25 562.6125,479.925 Z " fill="#000000"/><text fill="#000000" font-family="sans-serif" font-size="16.2" lengthAdjust="spacing" textLength="63.45" x="587.5875" y="491.2787">Request</text><line style="stroke:#A80036;stroke-width:2.0250000000000004;" x1="411.75" x2="783" y1="506.25" y2="506.25"/><rect fill="none" height="8.1" style="stroke:#C82930;stroke-width:1.35;" width="8.1" x="421.2" y="517.05"/><text fill="#000000" font-family="sans-serif" font-size="14.85" lengthAdjust="spacing" textLength="85.05" x="437.4" y="527.0656">boolean read</text><rect fill="none" height="8.1" style="stroke:#C82930;stroke-width:1.35;" width="8.1" x="421.2" y="535.7285"/><text fill="#000000" font-family="sans-serif" font-size="14.85" lengthAdjust="spacing" textLength="95.85" x="437.4" y="545.7441">String filename</text><rect fill="none" height="8.1" style="stroke:#C82930;stroke-width:1.35;" width="8.1" x="421.2" y="554.407"/><text fill="#000000" font-family="sans-serif" font-size="14.85" lengthAdjust="spacing" textLength="76.95" x="437.4" y="564.4226">String mode</text><line style="stroke:#A80036;stroke-width:2.0250000000000004;" x1="411.75" x2="783" y1="573.0855" y2="573.0855"/><ellipse cx="425.25" cy="587.9355" fill="#84BE84" rx="4.05" ry="4.05" style="stroke:#038048;stroke-width:1.35;"/><text fill="#000000" font-family="sans-serif" font-size="14.85" lengthAdjust="spacing" textLength="338.85" x="437.4" y="593.9011">Request(boolean read, String filename, String mode)</text><ellipse cx="425.25" cy="606.6141" fill="#84BE84" rx="4.05" ry="4.05" style="stroke:#038048;stroke-width:1.35;"/><text fill="#000000" font-family="sans-serif" font-size="14.85" lengthAdjust="spacing" text-decoration="underline" textLength="232.2" x="437.4" y="612.5796">Request fromEncoded(byte[] bytes)</text><rect fill="#F24D5C" height="8.1" style="stroke:#C82930;stroke-width:1.35;" width="8.1" x="421.2" y="621.2426"/><text fill="#000000" font-family="sans-serif" font-size="14.85" lengthAdjust="spacing" textLength="272.7" x="437.4" y="631.2582">void writeObject(ObjectOutputStream out)</text><rect fill="#F24D5C" height="8.1" style="stroke:#C82930;stroke-width:1.35;" width="8.1" x="421.2" y="639.9211"/><text fill="#000000" font-family="sans-serif" font-size="14.85" lengthAdjust="spacing" textLength="247.05" x="437.4" y="649.9367">void readObject(ObjectInputStream in)</text><ellipse cx="425.25" cy="662.6496" fill="#84BE84" rx="4.05" ry="4.05" style="stroke:#038048;stroke-width:1.35;"/><text fill="#000000" font-family="sans-serif" font-size="14.85" lengthAdjust="spacing" textLength="261.9" x="437.4" y="668.6152">byte[] getEncoded(int maxMessageSize)</text><ellipse cx="425.25" cy="681.3281" fill="#84BE84" rx="4.05" ry="4.05" style="stroke:#038048;stroke-width:1.35;"/><text fill="#000000" font-family="sans-serif" font-size="14.85" lengthAdjust="spacing" textLength="110.7" x="437.4" y="687.2937">boolean isRead()</text><ellipse cx="425.25" cy="700.0066" fill="#84BE84" rx="4.05" ry="4.05" style="stroke:#038048;stroke-width:1.35;"/><text fill="#000000" font-family="sans-serif" font-size="14.85" lengthAdjust="spacing" textLength="102.6" x="437.4" y="705.9722">String toString()</text><ellipse cx="425.25" cy="718.6852" fill="#84BE84" rx="4.05" ry="4.05" style="stroke:#038048;stroke-width:1.35;"/><text fill="#000000" font-family="sans-serif" font-size="14.85" lengthAdjust="spacing" textLength="163.35" x="437.4" y="724.6507">boolean equals(Object o)</text><ellipse cx="425.25" cy="737.3637" fill="#84BE84" rx="4.05" ry="4.05" style="stroke:#038048;stroke-width:1.35;"/><text fill="#000000" font-family="sans-serif" font-size="14.85" lengthAdjust="spacing" textLength="95.85" x="437.4" y="743.3292">int hashCode()</text><!--MD5=[cd54df1af516238376ca8c3206b0f27d]
class model.State--><rect codeLine="8" fill="#FEFECE" filter="url(#f18jnwhnkqjea2)" height="120.8355" id="model.State" style="stroke:#A80036;stroke-width:2.0250000000000004;" width="228.15" x="607.5" y="1285.875"/><ellipse cx="696.9375" cy="1307.475" fill="#A9DCDF" rx="14.85" ry="14.85" style="stroke:#A80036;stroke-width:1.35;"/><path d="M699.3,1309.5 L694.8492,1309.5 L694.2586,1310.85 L694.2586,1310.85 L694.8914,1310.85 L695.5875,1311.6938 L695.5875,1312.2 L695.5875,1312.7063 L694.8914,1313.55 L694.2586,1313.55 L691.7063,1313.55 L690.8836,1313.55 L690.1875,1312.7063 L690.1875,1312.2 L690.1875,1311.6938 L690.8836,1310.85 L691.7063,1310.85 L694.8281,1302.75 L693.6469,1302.75 L692.2336,1302.75 L691.5375,1301.9063 L691.5375,1301.4 L691.5375,1300.8938 L692.2336,1300.05 L693.6469,1300.05 L698.6039,1300.05 L702.232,1310.85 L702.9914,1310.85 L702.9914,1310.85 L703.6875,1311.6938 L703.6875,1312.2 L703.6875,1312.7063 L702.9914,1313.55 L702.232,1313.55 L699.6797,1313.55 L698.9836,1313.55 L698.2875,1312.7063 L698.2875,1312.2 L698.2875,1311.6938 L698.9836,1310.85 L699.6797,1310.85 L699.6797,1310.85 L699.3,1309.5 Z M698.5617,1306.8 L696.9375,1301.9695 L695.5453,1306.8 L698.5617,1306.8 Z " fill="#000000"/><text fill="#000000" font-family="sans-serif" font-size="16.2" font-style="italic" lengthAdjust="spacing" textLength="37.8" x="724.6125" y="1314.1037">State</text><line style="stroke:#A80036;stroke-width:2.0250000000000004;" x1="608.85" x2="834.3" y1="1329.075" y2="1329.075"/><polygon fill="none" points="622.35,1337.175,627.75,1342.575,622.35,1347.975,616.95,1342.575" style="stroke:#B38D22;stroke-width:1.35;"/><text fill="#000000" font-family="sans-serif" font-size="14.85" lengthAdjust="spacing" textLength="148.5" x="634.5" y="1349.8906">Request.Parser Parser</text><line style="stroke:#A80036;stroke-width:2.0250000000000004;" x1="608.85" x2="834.3" y1="1358.5535" y2="1358.5535"/><polygon fill="#FFFF44" points="622.35,1366.6535,627.75,1372.0535,622.35,1377.4535,616.95,1372.0535" style="stroke:#B38D22;stroke-width:1.35;"/><text fill="#000000" font-family="sans-serif" font-size="14.85" lengthAdjust="spacing" textLength="193.05" x="634.5" y="1379.3691">State(Request.Parser Parser)</text><ellipse cx="622.35" cy="1392.082" fill="#84BE84" rx="4.05" ry="4.05" style="stroke:#038048;stroke-width:1.35;"/><text fill="#000000" font-family="sans-serif" font-size="14.85" font-style="italic" lengthAdjust="spacing" textLength="128.25" x="634.5" y="1398.0476">void handle(byte b)</text><!--MD5=[a2fc373fab115fda23f308f44fb8f6a0]
class model.StringState--><rect codeLine="13" fill="#FEFECE" filter="url(#f18jnwhnkqjea2)" height="139.5141" id="model.StringState" style="stroke:#A80036;stroke-width:2.0250000000000004;" width="265.95" x="530.55" y="1746.9"/><ellipse cx="617.2875" cy="1768.5" fill="#A9DCDF" rx="14.85" ry="14.85" style="stroke:#A80036;stroke-width:1.35;"/><path d="M619.65,1770.525 L615.1992,1770.525 L614.6086,1771.875 L614.6086,1771.875 L615.2414,1771.875 L615.9375,1772.7188 L615.9375,1773.225 L615.9375,1773.7313 L615.2414,1774.575 L614.6086,1774.575 L612.0563,1774.575 L611.2336,1774.575 L610.5375,1773.7313 L610.5375,1773.225 L610.5375,1772.7188 L611.2336,1771.875 L612.0563,1771.875 L615.1781,1763.775 L613.9969,1763.775 L612.5836,1763.775 L611.8875,1762.9313 L611.8875,1762.425 L611.8875,1761.9188 L612.5836,1761.075 L613.9969,1761.075 L618.9539,1761.075 L622.582,1771.875 L623.3414,1771.875 L623.3414,1771.875 L624.0375,1772.7188 L624.0375,1773.225 L624.0375,1773.7313 L623.3414,1774.575 L622.582,1774.575 L620.0297,1774.575 L619.3336,1774.575 L618.6375,1773.7313 L618.6375,1773.225 L618.6375,1772.7188 L619.3336,1771.875 L620.0297,1771.875 L620.0297,1771.875 L619.65,1770.525 Z M618.9117,1767.825 L617.2875,1762.9945 L615.8953,1767.825 L618.9117,1767.825 Z " fill="#000000"/><text fill="#000000" font-family="sans-serif" font-size="16.2" font-style="italic" lengthAdjust="spacing" textLength="81" x="644.9625" y="1775.1287">StringState</text><line style="stroke:#A80036;stroke-width:2.0250000000000004;" x1="531.9" x2="795.15" y1="1790.1" y2="1790.1"/><polygon fill="none" points="545.4,1798.2,550.8,1803.6,545.4,1809,540,1803.6" style="stroke:#B38D22;stroke-width:1.35;"/><text fill="#000000" font-family="sans-serif" font-size="14.85" lengthAdjust="spacing" textLength="201.15" x="557.55" y="1810.9156">ByteArrayOutputStream output</text><line style="stroke:#A80036;stroke-width:2.0250000000000004;" x1="531.9" x2="795.15" y1="1819.5785" y2="1819.5785"/><polygon fill="#FFFF44" points="545.4,1827.6785,550.8,1833.0785,545.4,1838.4785,540,1833.0785" style="stroke:#B38D22;stroke-width:1.35;"/><text fill="#000000" font-family="sans-serif" font-size="14.85" lengthAdjust="spacing" textLength="230.85" x="557.55" y="1840.3941">StringState(Request.Parser Parser)</text><polygon fill="#FFFF44" points="545.4,1846.357,550.8,1851.757,545.4,1857.157,540,1851.757" style="stroke:#B38D22;stroke-width:1.35;"/><text fill="#000000" font-family="sans-serif" font-size="14.85" font-style="italic" lengthAdjust="spacing" textLength="187.65" x="557.55" y="1859.0726">void nextState(String output)</text><ellipse cx="545.4" cy="1871.7855" fill="#84BE84" rx="4.05" ry="4.05" style="stroke:#038048;stroke-width:1.35;"/><text fill="#000000" font-family="sans-serif" font-size="14.85" lengthAdjust="spacing" textLength="125.55" x="557.55" y="1877.7511">void handle(byte b)</text><!--MD5=[44ad56bf2df7ed790d16feb1e78b1064]
class model.InitialState--><rect codeLine="19" fill="#FEFECE" filter="url(#f18jnwhnkqjea2)" height="102.157" id="model.InitialState" style="stroke:#A80036;stroke-width:2.0250000000000004;" width="259.2" x="359.775" y="1539"/><ellipse cx="445.1625" cy="1560.6" fill="#ADD1B2" rx="14.85" ry="14.85" style="stroke:#A80036;stroke-width:1.35;"/><path d="M447.8625,1555.875 Q448.1367,1555.2 448.4531,1554.8625 Q448.7695,1554.525 449.1281,1554.525 Q449.7609,1554.525 450.1617,1554.9047 Q450.5625,1555.2844 450.5625,1556.1703 L450.5625,1558.2797 Q450.5625,1559.1656 450.1828,1559.5453 Q449.8031,1559.925 449.2125,1559.925 Q448.6852,1559.925 448.3477,1559.693 Q448.0102,1559.4609 447.8625,1558.8492 Q447.7992,1558.4273 447.5672,1558.1953 Q447.1453,1557.7523 446.3859,1557.4992 Q445.6266,1557.225 444.8672,1557.225 Q443.918,1557.225 443.1164,1557.6047 Q442.3359,1557.9844 441.7242,1558.8281 Q441.1125,1559.6719 441.1125,1560.832 L441.1125,1562.0766 Q441.1125,1563.4688 442.2516,1564.3969 Q443.3906,1565.325 445.4156,1565.325 Q446.618,1565.325 447.4617,1565.0508 Q447.9469,1564.9031 448.4953,1564.418 Q448.8539,1564.1438 449.0438,1564.0594 Q449.2336,1563.975 449.4656,1563.975 Q449.9086,1563.975 450.225,1564.3336 Q450.5625,1564.6711 450.5625,1565.1563 Q450.5625,1565.6203 450.0984,1566.1688 Q449.4234,1566.9703 448.3477,1567.4133 Q446.9344,1568.025 445.2047,1568.025 Q443.1797,1568.025 441.5555,1567.2234 Q440.2477,1566.5906 439.3195,1565.2195 Q438.4125,1563.8484 438.4125,1562.2242 L438.4125,1560.7477 Q438.4125,1559.0602 439.2141,1557.5836 Q440.0367,1556.107 441.45,1555.3266 Q442.8844,1554.525 444.4875,1554.525 Q445.4578,1554.525 446.3016,1554.8625 Q447.1453,1555.2 447.8625,1555.875 Z " fill="#000000"/><text fill="#000000" font-family="sans-serif" font-size="16.2" lengthAdjust="spacing" textLength="76.95" x="472.8375" y="1567.2287">InitialState</text><line style="stroke:#A80036;stroke-width:2.0250000000000004;" x1="361.125" x2="617.625" y1="1582.2" y2="1582.2"/><line style="stroke:#A80036;stroke-width:2.0250000000000004;" x1="361.125" x2="617.625" y1="1593" y2="1593"/><ellipse cx="374.625" cy="1607.85" fill="#84BE84" rx="4.05" ry="4.05" style="stroke:#038048;stroke-width:1.35;"/><text fill="#000000" font-family="sans-serif" font-size="14.85" lengthAdjust="spacing" textLength="224.1" x="386.775" y="1613.8156">InitialState(Request.Parser Parser)</text><ellipse cx="374.625" cy="1626.5285" fill="#84BE84" rx="4.05" ry="4.05" style="stroke:#038048;stroke-width:1.35;"/><text fill="#000000" font-family="sans-serif" font-size="14.85" lengthAdjust="spacing" textLength="125.55" x="386.775" y="1632.4941">void handle(byte b)</text><!--MD5=[4cfda732b32775db04ce2e815a76f1c3]
class model.TypeState--><rect codeLine="23" fill="#FEFECE" filter="url(#f18jnwhnkqjea2)" height="102.157" id="model.TypeState" style="stroke:#A80036;stroke-width:2.0250000000000004;" width="260.55" x="222.75" y="1765.125"/><ellipse cx="310.8375" cy="1786.725" fill="#ADD1B2" rx="14.85" ry="14.85" style="stroke:#A80036;stroke-width:1.35;"/><path d="M313.5375,1782 Q313.8117,1781.325 314.1281,1780.9875 Q314.4445,1780.65 314.8031,1780.65 Q315.4359,1780.65 315.8367,1781.0297 Q316.2375,1781.4094 316.2375,1782.2953 L316.2375,1784.4047 Q316.2375,1785.2906 315.8578,1785.6703 Q315.4781,1786.05 314.8875,1786.05 Q314.3602,1786.05 314.0227,1785.818 Q313.6852,1785.5859 313.5375,1784.9742 Q313.4742,1784.5523 313.2422,1784.3203 Q312.8203,1783.8773 312.0609,1783.6242 Q311.3016,1783.35 310.5422,1783.35 Q309.593,1783.35 308.7914,1783.7297 Q308.0109,1784.1094 307.3992,1784.9531 Q306.7875,1785.7969 306.7875,1786.957 L306.7875,1788.2016 Q306.7875,1789.5938 307.9266,1790.5219 Q309.0656,1791.45 311.0906,1791.45 Q312.293,1791.45 313.1367,1791.1758 Q313.6219,1791.0281 314.1703,1790.543 Q314.5289,1790.2688 314.7188,1790.1844 Q314.9086,1790.1 315.1406,1790.1 Q315.5836,1790.1 315.9,1790.4586 Q316.2375,1790.7961 316.2375,1791.2813 Q316.2375,1791.7453 315.7734,1792.2938 Q315.0984,1793.0953 314.0227,1793.5383 Q312.6094,1794.15 310.8797,1794.15 Q308.8547,1794.15 307.2305,1793.3484 Q305.9227,1792.7156 304.9945,1791.3445 Q304.0875,1789.9734 304.0875,1788.3492 L304.0875,1786.8727 Q304.0875,1785.1852 304.8891,1783.7086 Q305.7117,1782.232 307.125,1781.4516 Q308.5594,1780.65 310.1625,1780.65 Q311.1328,1780.65 311.9766,1780.9875 Q312.8203,1781.325 313.5375,1782 Z " fill="#000000"/><text fill="#000000" font-family="sans-serif" font-size="16.2" lengthAdjust="spacing" textLength="72.9" x="338.5125" y="1793.3537">TypeState</text><line style="stroke:#A80036;stroke-width:2.0250000000000004;" x1="224.1" x2="481.95" y1="1808.325" y2="1808.325"/><line style="stroke:#A80036;stroke-width:2.0250000000000004;" x1="224.1" x2="481.95" y1="1819.125" y2="1819.125"/><ellipse cx="237.6" cy="1833.975" fill="#84BE84" rx="4.05" ry="4.05" style="stroke:#038048;stroke-width:1.35;"/><text fill="#000000" font-family="sans-serif" font-size="14.85" lengthAdjust="spacing" textLength="225.45" x="249.75" y="1839.9406">TypeState(Request.Parser Parser)</text><ellipse cx="237.6" cy="1852.6535" fill="#84BE84" rx="4.05" ry="4.05" style="stroke:#038048;stroke-width:1.35;"/><text fill="#000000" font-family="sans-serif" font-size="14.85" lengthAdjust="spacing" textLength="125.55" x="249.75" y="1858.6191">void handle(byte b)</text><!--MD5=[4837a687be9a01415f70700c94b7073b]
class model.FilenameState--><rect codeLine="27" fill="#FEFECE" filter="url(#f18jnwhnkqjea2)" height="120.8355" id="model.FilenameState" style="stroke:#A80036;stroke-width:2.0250000000000004;" width="284.85" x="329.4" y="1991.25"/><ellipse cx="412.0875" cy="2012.85" fill="#ADD1B2" rx="14.85" ry="14.85" style="stroke:#A80036;stroke-width:1.35;"/><path d="M414.7875,2008.125 Q415.0617,2007.45 415.3781,2007.1125 Q415.6945,2006.775 416.0531,2006.775 Q416.6859,2006.775 417.0867,2007.1547 Q417.4875,2007.5344 417.4875,2008.4203 L417.4875,2010.5297 Q417.4875,2011.4156 417.1078,2011.7953 Q416.7281,2012.175 416.1375,2012.175 Q415.6102,2012.175 415.2727,2011.943 Q414.9352,2011.7109 414.7875,2011.0992 Q414.7242,2010.6773 414.4922,2010.4453 Q414.0703,2010.0023 413.3109,2009.7492 Q412.5516,2009.475 411.7922,2009.475 Q410.843,2009.475 410.0414,2009.8547 Q409.2609,2010.2344 408.6492,2011.0781 Q408.0375,2011.9219 408.0375,2013.082 L408.0375,2014.3266 Q408.0375,2015.7188 409.1766,2016.6469 Q410.3156,2017.575 412.3406,2017.575 Q413.543,2017.575 414.3867,2017.3008 Q414.8719,2017.1531 415.4203,2016.668 Q415.7789,2016.3938 415.9688,2016.3094 Q416.1586,2016.225 416.3906,2016.225 Q416.8336,2016.225 417.15,2016.5836 Q417.4875,2016.9211 417.4875,2017.4063 Q417.4875,2017.8703 417.0234,2018.4188 Q416.3484,2019.2203 415.2727,2019.6633 Q413.8594,2020.275 412.1297,2020.275 Q410.1047,2020.275 408.4805,2019.4734 Q407.1727,2018.8406 406.2445,2017.4695 Q405.3375,2016.0984 405.3375,2014.4742 L405.3375,2012.9977 Q405.3375,2011.3102 406.1391,2009.8336 Q406.9617,2008.357 408.375,2007.5766 Q409.8094,2006.775 411.4125,2006.775 Q412.3828,2006.775 413.2266,2007.1125 Q414.0703,2007.45 414.7875,2008.125 Z " fill="#000000"/><text fill="#000000" font-family="sans-serif" font-size="16.2" lengthAdjust="spacing" textLength="108" x="439.7625" y="2019.4787">FilenameState</text><line style="stroke:#A80036;stroke-width:2.0250000000000004;" x1="330.75" x2="612.9" y1="2034.45" y2="2034.45"/><line style="stroke:#A80036;stroke-width:2.0250000000000004;" x1="330.75" x2="612.9" y1="2045.25" y2="2045.25"/><ellipse cx="344.25" cy="2060.1" fill="#84BE84" rx="4.05" ry="4.05" style="stroke:#038048;stroke-width:1.35;"/><text fill="#000000" font-family="sans-serif" font-size="14.85" lengthAdjust="spacing" textLength="249.75" x="356.4" y="2066.0656">FilenameState(Request.Parser Parser)</text><polygon fill="#FFFF44" points="344.25,2072.0285,349.65,2077.4285,344.25,2082.8285,338.85,2077.4285" style="stroke:#B38D22;stroke-width:1.35;"/><text fill="#000000" font-family="sans-serif" font-size="14.85" lengthAdjust="spacing" textLength="186.3" x="356.4" y="2084.7441">void nextState(String output)</text><ellipse cx="344.25" cy="2097.457" fill="#84BE84" rx="4.05" ry="4.05" style="stroke:#038048;stroke-width:1.35;"/><text fill="#000000" font-family="sans-serif" font-size="14.85" lengthAdjust="spacing" textLength="125.55" x="356.4" y="2103.4226">void handle(byte b)</text><!--MD5=[f5063ce81b3174903ac08349b20a7dc3]
class model.ModeState--><rect codeLine="32" fill="#FEFECE" filter="url(#f18jnwhnkqjea2)" height="120.8355" id="model.ModeState" style="stroke:#A80036;stroke-width:2.0250000000000004;" width="263.25" x="531.9" y="2218.05"/><ellipse cx="618.6375" cy="2239.65" fill="#ADD1B2" rx="14.85" ry="14.85" style="stroke:#A80036;stroke-width:1.35;"/><path d="M621.3375,2234.925 Q621.6117,2234.25 621.9281,2233.9125 Q622.2445,2233.575 622.6031,2233.575 Q623.2359,2233.575 623.6367,2233.9547 Q624.0375,2234.3344 624.0375,2235.2203 L624.0375,2237.3297 Q624.0375,2238.2156 623.6578,2238.5953 Q623.2781,2238.975 622.6875,2238.975 Q622.1602,2238.975 621.8227,2238.743 Q621.4852,2238.5109 621.3375,2237.8992 Q621.2742,2237.4773 621.0422,2237.2453 Q620.6203,2236.8023 619.8609,2236.5492 Q619.1016,2236.275 618.3422,2236.275 Q617.393,2236.275 616.5914,2236.6547 Q615.8109,2237.0344 615.1992,2237.8781 Q614.5875,2238.7219 614.5875,2239.882 L614.5875,2241.1266 Q614.5875,2242.5188 615.7266,2243.4469 Q616.8656,2244.375 618.8906,2244.375 Q620.093,2244.375 620.9367,2244.1008 Q621.4219,2243.9531 621.9703,2243.468 Q622.3289,2243.1938 622.5188,2243.1094 Q622.7086,2243.025 622.9406,2243.025 Q623.3836,2243.025 623.7,2243.3836 Q624.0375,2243.7211 624.0375,2244.2063 Q624.0375,2244.6703 623.5734,2245.2188 Q622.8984,2246.0203 621.8227,2246.4633 Q620.4094,2247.075 618.6797,2247.075 Q616.6547,2247.075 615.0305,2246.2734 Q613.7227,2245.6406 612.7945,2244.2695 Q611.8875,2242.8984 611.8875,2241.2742 L611.8875,2239.7977 Q611.8875,2238.1102 612.6891,2236.6336 Q613.5117,2235.157 614.925,2234.3766 Q616.3594,2233.575 617.9625,2233.575 Q618.9328,2233.575 619.7766,2233.9125 Q620.6203,2234.25 621.3375,2234.925 Z " fill="#000000"/><text fill="#000000" font-family="sans-serif" font-size="16.2" lengthAdjust="spacing" textLength="78.3" x="646.3125" y="2246.2787">ModeState</text><line style="stroke:#A80036;stroke-width:2.0250000000000004;" x1="533.25" x2="793.8" y1="2261.25" y2="2261.25"/><line style="stroke:#A80036;stroke-width:2.0250000000000004;" x1="533.25" x2="793.8" y1="2272.05" y2="2272.05"/><ellipse cx="546.75" cy="2286.9" fill="#84BE84" rx="4.05" ry="4.05" style="stroke:#038048;stroke-width:1.35;"/><text fill="#000000" font-family="sans-serif" font-size="14.85" lengthAdjust="spacing" textLength="228.15" x="558.9" y="2292.8656">ModeState(Request.Parser Parser)</text><polygon fill="#FFFF44" points="546.75,2298.8285,552.15,2304.2285,546.75,2309.6285,541.35,2304.2285" style="stroke:#B38D22;stroke-width:1.35;"/><text fill="#000000" font-family="sans-serif" font-size="14.85" lengthAdjust="spacing" textLength="186.3" x="558.9" y="2311.5441">void nextState(String output)</text><ellipse cx="546.75" cy="2324.257" fill="#84BE84" rx="4.05" ry="4.05" style="stroke:#038048;stroke-width:1.35;"/><text fill="#000000" font-family="sans-serif" font-size="14.85" lengthAdjust="spacing" textLength="125.55" x="558.9" y="2330.2226">void handle(byte b)</text><!--MD5=[c68c99e2aac25a5a086c199907b4702c]
class model.EndState--><rect codeLine="37" fill="#FEFECE" filter="url(#f18jnwhnkqjea2)" height="102.157" id="model.EndState" style="stroke:#A80036;stroke-width:2.0250000000000004;" width="252.45" x="565.65" y="2444.85"/><ellipse cx="652.3875" cy="2466.45" fill="#ADD1B2" rx="14.85" ry="14.85" style="stroke:#A80036;stroke-width:1.35;"/><path d="M655.0875,2461.725 Q655.3617,2461.05 655.6781,2460.7125 Q655.9945,2460.375 656.3531,2460.375 Q656.9859,2460.375 657.3867,2460.7547 Q657.7875,2461.1344 657.7875,2462.0203 L657.7875,2464.1297 Q657.7875,2465.0156 657.4078,2465.3953 Q657.0281,2465.775 656.4375,2465.775 Q655.9102,2465.775 655.5727,2465.543 Q655.2352,2465.3109 655.0875,2464.6992 Q655.0242,2464.2773 654.7922,2464.0453 Q654.3703,2463.6023 653.6109,2463.3492 Q652.8516,2463.075 652.0922,2463.075 Q651.143,2463.075 650.3414,2463.4547 Q649.5609,2463.8344 648.9492,2464.6781 Q648.3375,2465.5219 648.3375,2466.682 L648.3375,2467.9266 Q648.3375,2469.3188 649.4766,2470.2469 Q650.6156,2471.175 652.6406,2471.175 Q653.843,2471.175 654.6867,2470.9008 Q655.1719,2470.7531 655.7203,2470.268 Q656.0789,2469.9938 656.2688,2469.9094 Q656.4586,2469.825 656.6906,2469.825 Q657.1336,2469.825 657.45,2470.1836 Q657.7875,2470.5211 657.7875,2471.0063 Q657.7875,2471.4703 657.3234,2472.0188 Q656.6484,2472.8203 655.5727,2473.2633 Q654.1594,2473.875 652.4297,2473.875 Q650.4047,2473.875 648.7805,2473.0734 Q647.4727,2472.4406 646.5445,2471.0695 Q645.6375,2469.6984 645.6375,2468.0742 L645.6375,2466.5977 Q645.6375,2464.9102 646.4391,2463.4336 Q647.2617,2461.957 648.675,2461.1766 Q650.1094,2460.375 651.7125,2460.375 Q652.6828,2460.375 653.5266,2460.7125 Q654.3703,2461.05 655.0875,2461.725 Z " fill="#000000"/><text fill="#000000" font-family="sans-serif" font-size="16.2" lengthAdjust="spacing" textLength="67.5" x="680.0625" y="2473.0787">EndState</text><line style="stroke:#A80036;stroke-width:2.0250000000000004;" x1="567" x2="816.75" y1="2488.05" y2="2488.05"/><line style="stroke:#A80036;stroke-width:2.0250000000000004;" x1="567" x2="816.75" y1="2498.85" y2="2498.85"/><ellipse cx="580.5" cy="2513.7" fill="#84BE84" rx="4.05" ry="4.05" style="stroke:#038048;stroke-width:1.35;"/><text fill="#000000" font-family="sans-serif" font-size="14.85" lengthAdjust="spacing" textLength="217.35" x="592.65" y="2519.6656">EndState(Request.Parser Parser)</text><ellipse cx="580.5" cy="2532.3785" fill="#84BE84" rx="4.05" ry="4.05" style="stroke:#038048;stroke-width:1.35;"/><text fill="#000000" font-family="sans-serif" font-size="14.85" lengthAdjust="spacing" textLength="125.55" x="592.65" y="2538.3441">void handle(byte b)</text><!--MD5=[56289b86346904abf9bb103a77220af2]
class model.Request.Parser--><rect codeLine="57" fill="#FEFECE" filter="url(#f18jnwhnkqjea2)" height="270.2637" id="model.Request.Parser" style="stroke:#A80036;stroke-width:2.0250000000000004;" width="249.75" x="596.7" y="857.25"/><ellipse cx="657.1125" cy="878.85" fill="#ADD1B2" rx="14.85" ry="14.85" style="stroke:#A80036;stroke-width:1.35;"/><path d="M659.8125,874.125 Q660.0867,873.45 660.4031,873.1125 Q660.7195,872.775 661.0781,872.775 Q661.7109,872.775 662.1117,873.1547 Q662.5125,873.5344 662.5125,874.4203 L662.5125,876.5297 Q662.5125,877.4156 662.1328,877.7953 Q661.7531,878.175 661.1625,878.175 Q660.6352,878.175 660.2977,877.943 Q659.9602,877.7109 659.8125,877.0992 Q659.7492,876.6773 659.5172,876.4453 Q659.0953,876.0023 658.3359,875.7492 Q657.5766,875.475 656.8172,875.475 Q655.868,875.475 655.0664,875.8547 Q654.2859,876.2344 653.6742,877.0781 Q653.0625,877.9219 653.0625,879.082 L653.0625,880.3266 Q653.0625,881.7188 654.2016,882.6469 Q655.3406,883.575 657.3656,883.575 Q658.568,883.575 659.4117,883.3008 Q659.8969,883.1531 660.4453,882.668 Q660.8039,882.3938 660.9938,882.3094 Q661.1836,882.225 661.4156,882.225 Q661.8586,882.225 662.175,882.5836 Q662.5125,882.9211 662.5125,883.4063 Q662.5125,883.8703 662.0484,884.4188 Q661.3734,885.2203 660.2977,885.6633 Q658.8844,886.275 657.1547,886.275 Q655.1297,886.275 653.5055,885.4734 Q652.1977,884.8406 651.2695,883.4695 Q650.3625,882.0984 650.3625,880.4742 L650.3625,878.9977 Q650.3625,877.3102 651.1641,875.8336 Q651.9867,874.357 653.4,873.5766 Q654.8344,872.775 656.4375,872.775 Q657.4078,872.775 658.2516,873.1125 Q659.0953,873.45 659.8125,874.125 Z " fill="#000000"/><text fill="#000000" font-family="sans-serif" font-size="16.2" lengthAdjust="spacing" textLength="117.45" x="684.7875" y="885.4787">Request.Parser</text><line style="stroke:#A80036;stroke-width:2.0250000000000004;" x1="598.05" x2="845.1" y1="900.45" y2="900.45"/><rect fill="none" height="8.1" style="stroke:#C82930;stroke-width:1.35;" width="8.1" x="607.5" y="911.25"/><text fill="#000000" font-family="sans-serif" font-size="14.85" lengthAdjust="spacing" textLength="85.05" x="623.7" y="921.2656">boolean read</text><rect fill="none" height="8.1" style="stroke:#C82930;stroke-width:1.35;" width="8.1" x="607.5" y="929.9285"/><text fill="#000000" font-family="sans-serif" font-size="14.85" lengthAdjust="spacing" textLength="95.85" x="623.7" y="939.9441">String filename</text><rect fill="none" height="8.1" style="stroke:#C82930;stroke-width:1.35;" width="8.1" x="607.5" y="948.607"/><text fill="#000000" font-family="sans-serif" font-size="14.85" lengthAdjust="spacing" textLength="76.95" x="623.7" y="958.6226">String mode</text><rect fill="none" height="8.1" style="stroke:#C82930;stroke-width:1.35;" width="8.1" x="607.5" y="967.2855"/><text fill="#000000" font-family="sans-serif" font-size="14.85" lengthAdjust="spacing" textLength="70.2" x="623.7" y="977.3011">State state</text><line style="stroke:#A80036;stroke-width:2.0250000000000004;" x1="598.05" x2="845.1" y1="985.9641" y2="985.9641"/><ellipse cx="611.55" cy="1000.8141" fill="#84BE84" rx="4.05" ry="4.05" style="stroke:#038048;stroke-width:1.35;"/><text fill="#000000" font-family="sans-serif" font-size="14.85" lengthAdjust="spacing" textLength="54" x="623.7" y="1006.7796">Parser()</text><ellipse cx="611.55" cy="1019.4926" fill="#84BE84" rx="4.05" ry="4.05" style="stroke:#038048;stroke-width:1.35;"/><text fill="#000000" font-family="sans-serif" font-size="14.85" lengthAdjust="spacing" textLength="180.9" x="623.7" y="1025.4582">void setRead(boolean read)</text><ellipse cx="611.55" cy="1038.1711" fill="#84BE84" rx="4.05" ry="4.05" style="stroke:#038048;stroke-width:1.35;"/><text fill="#000000" font-family="sans-serif" font-size="14.85" lengthAdjust="spacing" textLength="214.65" x="623.7" y="1044.1367">void setFilename(String filename)</text><ellipse cx="611.55" cy="1056.8496" fill="#84BE84" rx="4.05" ry="4.05" style="stroke:#038048;stroke-width:1.35;"/><text fill="#000000" font-family="sans-serif" font-size="14.85" lengthAdjust="spacing" textLength="174.15" x="623.7" y="1062.8152">void setMode(String mode)</text><ellipse cx="611.55" cy="1075.5281" fill="#84BE84" rx="4.05" ry="4.05" style="stroke:#038048;stroke-width:1.35;"/><text fill="#000000" font-family="sans-serif" font-size="14.85" lengthAdjust="spacing" textLength="98.55" x="623.7" y="1081.4937">Request build()</text><ellipse cx="611.55" cy="1094.2066" fill="#84BE84" rx="4.05" ry="4.05" style="stroke:#038048;stroke-width:1.35;"/><text fill="#000000" font-family="sans-serif" font-size="14.85" lengthAdjust="spacing" textLength="102.6" x="623.7" y="1100.1722">State getState()</text><ellipse cx="611.55" cy="1112.8852" fill="#84BE84" rx="4.05" ry="4.05" style="stroke:#038048;stroke-width:1.35;"/><text fill="#000000" font-family="sans-serif" font-size="14.85" lengthAdjust="spacing" textLength="166.05" x="623.7" y="1118.8507">void setState(State state)</text><!--MD5=[377e5d5fe91810aa30a37bbe1ce49825]
class model.Response--><rect fill="#FEFECE" filter="url(#f18jnwhnkqjea2)" height="64.8" id="model.Response" style="stroke:#A80036;stroke-width:2.0250000000000004;" width="121.5" x="185.625" y="575.1"/><ellipse cx="205.875" cy="596.7" fill="#ADD1B2" rx="14.85" ry="14.85" style="stroke:#A80036;stroke-width:1.35;"/><path d="M208.575,591.975 Q208.8492,591.3 209.1656,590.9625 Q209.482,590.625 209.8406,590.625 Q210.4734,590.625 210.8742,591.0047 Q211.275,591.3844 211.275,592.2703 L211.275,594.3797 Q211.275,595.2656 210.8953,595.6453 Q210.5156,596.025 209.925,596.025 Q209.3977,596.025 209.0602,595.793 Q208.7227,595.5609 208.575,594.9492 Q208.5117,594.5273 208.2797,594.2953 Q207.8578,593.8523 207.0984,593.5992 Q206.3391,593.325 205.5797,593.325 Q204.6305,593.325 203.8289,593.7047 Q203.0484,594.0844 202.4367,594.9281 Q201.825,595.7719 201.825,596.932 L201.825,598.1766 Q201.825,599.5688 202.9641,600.4969 Q204.1031,601.425 206.1281,601.425 Q207.3305,601.425 208.1742,601.1508 Q208.6594,601.0031 209.2078,600.518 Q209.5664,600.2438 209.7563,600.1594 Q209.9461,600.075 210.1781,600.075 Q210.6211,600.075 210.9375,600.4336 Q211.275,600.7711 211.275,601.2563 Q211.275,601.7203 210.8109,602.2688 Q210.1359,603.0703 209.0602,603.5133 Q207.6469,604.125 205.9172,604.125 Q203.8922,604.125 202.268,603.3234 Q200.9602,602.6906 200.032,601.3195 Q199.125,599.9484 199.125,598.3242 L199.125,596.8477 Q199.125,595.1602 199.9266,593.6836 Q200.7492,592.207 202.1625,591.4266 Q203.5969,590.625 205.2,590.625 Q206.1703,590.625 207.0141,590.9625 Q207.8578,591.3 208.575,591.975 Z " fill="#000000"/><text fill="#000000" font-family="sans-serif" font-size="16.2" lengthAdjust="spacing" textLength="78.3" x="224.775" y="603.3287">Response</text><line style="stroke:#A80036;stroke-width:2.0250000000000004;" x1="186.975" x2="305.775" y1="618.3" y2="618.3"/><line style="stroke:#A80036;stroke-width:2.0250000000000004;" x1="186.975" x2="305.775" y1="629.1" y2="629.1"/><!--MD5=[7352e6cfda6766d671b3da7f220b926d]
class stub.StubClient--><rect codeLine="3" fill="#FEFECE" filter="url(#f18jnwhnkqjea2)" height="214.2281" id="stub.StubClient" style="stroke:#A80036;stroke-width:2.0250000000000004;" width="738.45" x="1192.05" y="1239.3"/><ellipse cx="1516.3875" cy="1260.9" fill="#A9DCDF" rx="14.85" ry="14.85" style="stroke:#A80036;stroke-width:1.35;"/><path d="M1518.75,1262.925 L1514.2992,1262.925 L1513.7086,1264.275 L1513.7086,1264.275 L1514.3414,1264.275 L1515.0375,1265.1188 L1515.0375,1265.625 L1515.0375,1266.1313 L1514.3414,1266.975 L1513.7086,1266.975 L1511.1563,1266.975 L1510.3336,1266.975 L1509.6375,1266.1313 L1509.6375,1265.625 L1509.6375,1265.1188 L1510.3336,1264.275 L1511.1563,1264.275 L1514.2781,1256.175 L1513.0969,1256.175 L1511.6836,1256.175 L1510.9875,1255.3313 L1510.9875,1254.825 L1510.9875,1254.3188 L1511.6836,1253.475 L1513.0969,1253.475 L1518.0539,1253.475 L1521.682,1264.275 L1522.4414,1264.275 L1522.4414,1264.275 L1523.1375,1265.1188 L1523.1375,1265.625 L1523.1375,1266.1313 L1522.4414,1266.975 L1521.682,1266.975 L1519.1297,1266.975 L1518.4336,1266.975 L1517.7375,1266.1313 L1517.7375,1265.625 L1517.7375,1265.1188 L1518.4336,1264.275 L1519.1297,1264.275 L1519.1297,1264.275 L1518.75,1262.925 Z M1518.0117,1260.225 L1516.3875,1255.3945 L1514.9953,1260.225 L1518.0117,1260.225 Z " fill="#000000"/><text fill="#000000" font-family="sans-serif" font-size="16.2" font-style="italic" lengthAdjust="spacing" textLength="78.3" x="1544.0625" y="1267.5287">StubClient</text><line style="stroke:#A80036;stroke-width:2.0250000000000004;" x1="1193.4" x2="1929.15" y1="1282.5" y2="1282.5"/><polygon fill="none" points="1206.9,1290.6,1212.3,1296,1206.9,1301.4,1201.5,1296" style="stroke:#B38D22;stroke-width:1.35;"/><text fill="#000000" font-family="sans-serif" font-size="14.85" lengthAdjust="spacing" textLength="86.4" x="1219.05" y="1303.3156">Config config</text><line style="stroke:#A80036;stroke-width:2.0250000000000004;" x1="1193.4" x2="1929.15" y1="1311.9785" y2="1311.9785"/><polygon fill="#FFFF44" points="1206.9,1320.0785,1212.3,1325.4785,1206.9,1330.8785,1201.5,1325.4785" style="stroke:#B38D22;stroke-width:1.35;"/><text fill="#000000" font-family="sans-serif" font-size="14.85" lengthAdjust="spacing" textLength="162" x="1219.05" y="1332.7941">StubClient(Config config)</text><polygon fill="#FFFF44" points="1206.9,1338.757,1212.3,1344.157,1206.9,1349.557,1201.5,1344.157" style="stroke:#B38D22;stroke-width:1.35;"/><text fill="#000000" font-family="sans-serif" font-size="14.85" lengthAdjust="spacing" textLength="508.95" x="1219.05" y="1351.4726">&lt;T&gt; T sendAndReceive(int functionNumber, InetAddress inetAddress, int port)</text><polygon fill="#FFFF44" points="1206.9,1357.4355,1212.3,1362.8355,1206.9,1368.2355,1201.5,1362.8355" style="stroke:#B38D22;stroke-width:1.35;"/><text fill="#000000" font-family="sans-serif" font-size="14.85" lengthAdjust="spacing" textLength="656.1" x="1219.05" y="1370.1511">&lt;T&gt; T sendAndReceive(int functionNumber, Serializable argument, InetAddress inetAddress, int port)</text><polygon fill="#FFFF44" points="1206.9,1376.1141,1212.3,1381.5141,1206.9,1386.9141,1201.5,1381.5141" style="stroke:#B38D22;stroke-width:1.35;"/><text fill="#000000" font-family="sans-serif" font-size="14.85" lengthAdjust="spacing" textLength="703.35" x="1219.05" y="1388.8296">&lt;T&gt; T sendAndReceive(int functionNumber, List&lt;Serializable&gt; arguments, InetAddress inetAddress, int port)</text><polygon fill="#FFFF44" points="1206.9,1394.7926,1212.3,1400.1926,1206.9,1405.5926,1201.5,1400.1926" style="stroke:#B38D22;stroke-width:1.35;"/><text fill="#000000" font-family="sans-serif" font-size="14.85" lengthAdjust="spacing" textLength="676.35" x="1219.05" y="1407.5082">&lt;T&gt; T sendAndReceive(StubRequestMessage stubRequestMessage, InetAddress inetAddress, int port)</text><polygon fill="#FFFF44" points="1206.9,1413.4711,1212.3,1418.8711,1206.9,1424.2711,1201.5,1418.8711" style="stroke:#B38D22;stroke-width:1.35;"/><text fill="#000000" font-family="sans-serif" font-size="14.85" lengthAdjust="spacing" textLength="456.3" x="1219.05" y="1426.1867">byte[] sendAndReceive(byte[] data, InetAddress inetAddress, int port)</text><polygon fill="#FFFF44" points="1206.9,1432.1496,1212.3,1437.5496,1206.9,1442.9496,1201.5,1437.5496" style="stroke:#B38D22;stroke-width:1.35;"/><text fill="#000000" font-family="sans-serif" font-size="14.85" lengthAdjust="spacing" textLength="680.4" x="1219.05" y="1444.8652">byte[] sendAndReceive(DatagramSocket datagramSocket, byte[] data, InetAddress inetAddress, int port)</text><!--MD5=[f8ac1f9d61fb676404f016ffdedb620b]
class stub.intermediate.ServerSide--><rect codeLine="8" fill="#FEFECE" filter="url(#f18jnwhnkqjea2)" height="120.8355" id="stub.intermediate.ServerSide" style="stroke:#A80036;stroke-width:2.0250000000000004;" width="429.3" x="922.725" y="931.5"/><ellipse cx="1091.1375" cy="953.1" fill="#ADD1B2" rx="14.85" ry="14.85" style="stroke:#A80036;stroke-width:1.35;"/><path d="M1093.8375,948.375 Q1094.1117,947.7 1094.4281,947.3625 Q1094.7445,947.025 1095.1031,947.025 Q1095.7359,947.025 1096.1367,947.4047 Q1096.5375,947.7844 1096.5375,948.6703 L1096.5375,950.7797 Q1096.5375,951.6656 1096.1578,952.0453 Q1095.7781,952.425 1095.1875,952.425 Q1094.6602,952.425 1094.3227,952.193 Q1093.9852,951.9609 1093.8375,951.3492 Q1093.7742,950.9273 1093.5422,950.6953 Q1093.1203,950.2523 1092.3609,949.9992 Q1091.6016,949.725 1090.8422,949.725 Q1089.893,949.725 1089.0914,950.1047 Q1088.3109,950.4844 1087.6992,951.3281 Q1087.0875,952.1719 1087.0875,953.332 L1087.0875,954.5766 Q1087.0875,955.9688 1088.2266,956.8969 Q1089.3656,957.825 1091.3906,957.825 Q1092.593,957.825 1093.4367,957.5508 Q1093.9219,957.4031 1094.4703,956.918 Q1094.8289,956.6438 1095.0188,956.5594 Q1095.2086,956.475 1095.4406,956.475 Q1095.8836,956.475 1096.2,956.8336 Q1096.5375,957.1711 1096.5375,957.6563 Q1096.5375,958.1203 1096.0734,958.6688 Q1095.3984,959.4703 1094.3227,959.9133 Q1092.9094,960.525 1091.1797,960.525 Q1089.1547,960.525 1087.5305,959.7234 Q1086.2227,959.0906 1085.2945,957.7195 Q1084.3875,956.3484 1084.3875,954.7242 L1084.3875,953.2477 Q1084.3875,951.5602 1085.1891,950.0836 Q1086.0117,948.607 1087.425,947.8266 Q1088.8594,947.025 1090.4625,947.025 Q1091.4328,947.025 1092.2766,947.3625 Q1093.1203,947.7 1093.8375,948.375 Z " fill="#000000"/><text fill="#000000" font-family="sans-serif" font-size="16.2" lengthAdjust="spacing" textLength="81" x="1118.8125" y="959.7287">ServerSide</text><line style="stroke:#A80036;stroke-width:2.0250000000000004;" x1="924.075" x2="1350.675" y1="974.7" y2="974.7"/><rect fill="none" height="8.1" style="stroke:#C82930;stroke-width:1.35;" width="8.1" x="933.525" y="985.5"/><text fill="#000000" font-family="sans-serif" font-size="14.85" lengthAdjust="spacing" textLength="163.35" x="949.725" y="995.5156">InetAddress inetAddress</text><rect fill="none" height="8.1" style="stroke:#C82930;stroke-width:1.35;" width="8.1" x="933.525" y="1004.1785"/><text fill="#000000" font-family="sans-serif" font-size="14.85" lengthAdjust="spacing" textLength="44.55" x="949.725" y="1014.1941">int port</text><line style="stroke:#A80036;stroke-width:2.0250000000000004;" x1="924.075" x2="1350.675" y1="1022.857" y2="1022.857"/><ellipse cx="937.575" cy="1037.707" fill="#84BE84" rx="4.05" ry="4.05" style="stroke:#038048;stroke-width:1.35;"/><text fill="#000000" font-family="sans-serif" font-size="14.85" lengthAdjust="spacing" textLength="394.2" x="949.725" y="1043.6726">ServerSide(Config config, InetAddress inetAddress, int port)</text><!--MD5=[86969326bc20c038e889ce38f5cd24ca]
class actor.Server--><rect codeLine="17" fill="#FEFECE" filter="url(#f18jnwhnkqjea2)" height="139.5141" id="actor.Server" style="stroke:#A80036;stroke-width:2.0250000000000004;" width="260.55" x="116.1" y="186.3"/><ellipse cx="217.0125" cy="207.9" fill="#ADD1B2" rx="14.85" ry="14.85" style="stroke:#A80036;stroke-width:1.35;"/><path d="M219.7125,203.175 Q219.9867,202.5 220.3031,202.1625 Q220.6195,201.825 220.9781,201.825 Q221.6109,201.825 222.0117,202.2047 Q222.4125,202.5844 222.4125,203.4703 L222.4125,205.5797 Q222.4125,206.4656 222.0328,206.8453 Q221.6531,207.225 221.0625,207.225 Q220.5352,207.225 220.1977,206.993 Q219.8602,206.7609 219.7125,206.1492 Q219.6492,205.7273 219.4172,205.4953 Q218.9953,205.0523 218.2359,204.7992 Q217.4766,204.525 216.7172,204.525 Q215.768,204.525 214.9664,204.9047 Q214.1859,205.2844 213.5742,206.1281 Q212.9625,206.9719 212.9625,208.132 L212.9625,209.3766 Q212.9625,210.7688 214.1016,211.6969 Q215.2406,212.625 217.2656,212.625 Q218.468,212.625 219.3117,212.3508 Q219.7969,212.2031 220.3453,211.718 Q220.7039,211.4438 220.8938,211.3594 Q221.0836,211.275 221.3156,211.275 Q221.7586,211.275 222.075,211.6336 Q222.4125,211.9711 222.4125,212.4563 Q222.4125,212.9203 221.9484,213.4688 Q221.2734,214.2703 220.1977,214.7133 Q218.7844,215.325 217.0547,215.325 Q215.0297,215.325 213.4055,214.5234 Q212.0977,213.8906 211.1695,212.5195 Q210.2625,211.1484 210.2625,209.5242 L210.2625,208.0477 Q210.2625,206.3602 211.0641,204.8836 Q211.8867,203.407 213.3,202.6266 Q214.7344,201.825 216.3375,201.825 Q217.3078,201.825 218.1516,202.1625 Q218.9953,202.5 219.7125,203.175 Z " fill="#000000"/><text fill="#000000" font-family="sans-serif" font-size="16.2" lengthAdjust="spacing" textLength="47.25" x="244.6875" y="214.5287">Server</text><line style="stroke:#A80036;stroke-width:2.0250000000000004;" x1="117.45" x2="375.3" y1="229.5" y2="229.5"/><rect fill="none" height="8.1" style="stroke:#C82930;stroke-width:1.35;" width="8.1" x="126.9" y="240.3"/><text fill="#000000" font-family="sans-serif" font-size="14.85" lengthAdjust="spacing" textLength="90.45" x="143.1" y="250.3156">Logger logger</text><rect fill="none" height="8.1" style="stroke:#C82930;stroke-width:1.35;" width="8.1" x="126.9" y="258.9785"/><text fill="#000000" font-family="sans-serif" font-size="14.85" lengthAdjust="spacing" textLength="170.1" x="143.1" y="268.9941">ServerSideApi serverSide</text><line style="stroke:#A80036;stroke-width:2.0250000000000004;" x1="117.45" x2="375.3" y1="277.657" y2="277.657"/><ellipse cx="130.95" cy="292.507" fill="#84BE84" rx="4.05" ry="4.05" style="stroke:#038048;stroke-width:1.35;"/><text fill="#000000" font-family="sans-serif" font-size="14.85" lengthAdjust="spacing" textLength="225.45" x="143.1" y="298.4726">Server(ServerSideApi serverSide)</text><ellipse cx="130.95" cy="311.1855" fill="#84BE84" rx="4.05" ry="4.05" style="stroke:#038048;stroke-width:1.35;"/><text fill="#000000" font-family="sans-serif" font-size="14.85" lengthAdjust="spacing" textLength="151.2" x="143.1" y="317.1511">void main(String[] args)</text><!--MD5=[5689ca287c7aea90fda97069f53aa21d]
class InetAddress--><rect fill="#FEFECE" filter="url(#f18jnwhnkqjea2)" height="64.8" id="InetAddress" style="stroke:#A80036;stroke-width:2.0250000000000004;" width="132.3" x="1011.825" y="1314.225"/><ellipse cx="1032.075" cy="1335.825" fill="#ADD1B2" rx="14.85" ry="14.85" style="stroke:#A80036;stroke-width:1.35;"/><path d="M1034.775,1331.1 Q1035.0492,1330.425 1035.3656,1330.0875 Q1035.682,1329.75 1036.0406,1329.75 Q1036.6734,1329.75 1037.0742,1330.1297 Q1037.475,1330.5094 1037.475,1331.3953 L1037.475,1333.5047 Q1037.475,1334.3906 1037.0953,1334.7703 Q1036.7156,1335.15 1036.125,1335.15 Q1035.5977,1335.15 1035.2602,1334.918 Q1034.9227,1334.6859 1034.775,1334.0742 Q1034.7117,1333.6523 1034.4797,1333.4203 Q1034.0578,1332.9773 1033.2984,1332.7242 Q1032.5391,1332.45 1031.7797,1332.45 Q1030.8305,1332.45 1030.0289,1332.8297 Q1029.2484,1333.2094 1028.6367,1334.0531 Q1028.025,1334.8969 1028.025,1336.057 L1028.025,1337.3016 Q1028.025,1338.6938 1029.1641,1339.6219 Q1030.3031,1340.55 1032.3281,1340.55 Q1033.5305,1340.55 1034.3742,1340.2758 Q1034.8594,1340.1281 1035.4078,1339.643 Q1035.7664,1339.3688 1035.9563,1339.2844 Q1036.1461,1339.2 1036.3781,1339.2 Q1036.8211,1339.2 1037.1375,1339.5586 Q1037.475,1339.8961 1037.475,1340.3813 Q1037.475,1340.8453 1037.0109,1341.3938 Q1036.3359,1342.1953 1035.2602,1342.6383 Q1033.8469,1343.25 1032.1172,1343.25 Q1030.0922,1343.25 1028.468,1342.4484 Q1027.1602,1341.8156 1026.232,1340.4445 Q1025.325,1339.0734 1025.325,1337.4492 L1025.325,1335.9727 Q1025.325,1334.2852 1026.1266,1332.8086 Q1026.9492,1331.332 1028.3625,1330.5516 Q1029.7969,1329.75 1031.4,1329.75 Q1032.3703,1329.75 1033.2141,1330.0875 Q1034.0578,1330.425 1034.775,1331.1 Z " fill="#000000"/><text fill="#000000" font-family="sans-serif" font-size="16.2" lengthAdjust="spacing" textLength="89.1" x="1050.975" y="1342.4537">InetAddress</text><line style="stroke:#A80036;stroke-width:2.0250000000000004;" x1="1013.175" x2="1142.775" y1="1357.425" y2="1357.425"/><line style="stroke:#A80036;stroke-width:2.0250000000000004;" x1="1013.175" x2="1142.775" y1="1368.225" y2="1368.225"/><!--MD5=[53ae8b34bebe44116eb8626f99f3fe78]
class Runnable--><rect fill="#FEFECE" filter="url(#f18jnwhnkqjea2)" height="64.8" id="Runnable" style="stroke:#A80036;stroke-width:2.0250000000000004;" width="117.45" x="187.65" y="9.45"/><ellipse cx="207.9" cy="31.05" fill="#B4A7E5" rx="14.85" ry="14.85" style="stroke:#A80036;stroke-width:1.35;"/><path d="M209.25,27 L209.25,35.1 L211.95,35.1 L212.6039,35.1 L213.3,35.9438 L213.3,36.45 L213.3,36.9563 L212.6039,37.8 L211.95,37.8 L203.85,37.8 L203.1961,37.8 L202.5,36.9563 L202.5,36.45 L202.5,35.9438 L203.1961,35.1 L203.85,35.1 L206.55,35.1 L206.55,27 L203.85,27 L203.1961,27 L202.5,26.1563 L202.5,25.65 L202.5,25.1438 L203.1961,24.3 L203.85,24.3 L211.95,24.3 L212.6039,24.3 L213.3,25.1438 L213.3,25.65 L213.3,26.1563 L212.6039,27 L211.95,27 L209.25,27 Z " fill="#000000"/><text fill="#000000" font-family="sans-serif" font-size="16.2" font-style="italic" lengthAdjust="spacing" textLength="74.25" x="226.8" y="37.6787">Runnable</text><line style="stroke:#A80036;stroke-width:2.0250000000000004;" x1="189" x2="303.75" y1="52.65" y2="52.65"/><line style="stroke:#A80036;stroke-width:2.0250000000000004;" x1="189" x2="303.75" y1="63.45" y2="63.45"/><!--MD5=[248f897e4bb16c2722904b15df30346f]
class Logger--><rect fill="#FEFECE" filter="url(#f18jnwhnkqjea2)" height="64.8" id="Logger" style="stroke:#A80036;stroke-width:2.0250000000000004;" width="95.85" x="9.45" y="575.1"/><ellipse cx="29.7" cy="596.7" fill="#ADD1B2" rx="14.85" ry="14.85" style="stroke:#A80036;stroke-width:1.35;"/><path d="M32.4,591.975 Q32.6742,591.3 32.9906,590.9625 Q33.307,590.625 33.6656,590.625 Q34.2984,590.625 34.6992,591.0047 Q35.1,591.3844 35.1,592.2703 L35.1,594.3797 Q35.1,595.2656 34.7203,595.6453 Q34.3406,596.025 33.75,596.025 Q33.2227,596.025 32.8852,595.793 Q32.5477,595.5609 32.4,594.9492 Q32.3367,594.5273 32.1047,594.2953 Q31.6828,593.8523 30.9234,593.5992 Q30.1641,593.325 29.4047,593.325 Q28.4555,593.325 27.6539,593.7047 Q26.8734,594.0844 26.2617,594.9281 Q25.65,595.7719 25.65,596.932 L25.65,598.1766 Q25.65,599.5688 26.7891,600.4969 Q27.9281,601.425 29.9531,601.425 Q31.1555,601.425 31.9992,601.1508 Q32.4844,601.0031 33.0328,600.518 Q33.3914,600.2438 33.5813,600.1594 Q33.7711,600.075 34.0031,600.075 Q34.4461,600.075 34.7625,600.4336 Q35.1,600.7711 35.1,601.2563 Q35.1,601.7203 34.6359,602.2688 Q33.9609,603.0703 32.8852,603.5133 Q31.4719,604.125 29.7422,604.125 Q27.7172,604.125 26.093,603.3234 Q24.7852,602.6906 23.857,601.3195 Q22.95,599.9484 22.95,598.3242 L22.95,596.8477 Q22.95,595.1602 23.7516,593.6836 Q24.5742,592.207 25.9875,591.4266 Q27.4219,590.625 29.025,590.625 Q29.9953,590.625 30.8391,590.9625 Q31.6828,591.3 32.4,591.975 Z " fill="#000000"/><text fill="#000000" font-family="sans-serif" font-size="16.2" lengthAdjust="spacing" textLength="52.65" x="48.6" y="603.3287">Logger</text><line style="stroke:#A80036;stroke-width:2.0250000000000004;" x1="10.8" x2="103.95" y1="618.3" y2="618.3"/><line style="stroke:#A80036;stroke-width:2.0250000000000004;" x1="10.8" x2="103.95" y1="629.1" y2="629.1"/><!--MD5=[6a2413a739cf72e11fd384a063aa4c53]
reverse link model.Request to model.BadRequest--><path d="M489.3615,774.981 C450.333,835.002 409.158,898.344 381.564,940.788 " fill="none" id="model.Request-backto-model.BadRequest" style="stroke:#A80036;stroke-width:1.35;"/><polygon fill="none" points="481.5315,769.689,504.171,752.193,497.3805,779.9895,481.5315,769.689" style="stroke:#A80036;stroke-width:1.35;"/><!--MD5=[982c1ea44aef17b788a6a1fe24ff5d26]
reverse link model.State to model.StringState--><path d="M712.935,1434.7395 C705.429,1507.4235 693.765,1613.8305 681.075,1706.4 C679.2795,1719.468 677.187,1733.3865 675.0675,1746.738 " fill="none" id="model.State-backto-model.StringState" style="stroke:#A80036;stroke-width:1.35;"/><polygon fill="none" points="703.5525,1433.592,715.7025,1407.699,722.358,1435.5225,703.5525,1433.592" style="stroke:#A80036;stroke-width:1.35;"/><!--MD5=[3bdc2157b610a7c47cb1b0318105792e]
reverse link model.State to model.InitialState--><path d="M645.219,1427.22 C609.8625,1463.913 568.9305,1506.3975 537.8805,1538.6085 " fill="none" id="model.State-backto-model.InitialState" style="stroke:#A80036;stroke-width:1.35;"/><polygon fill="none" points="638.631,1420.4295,664.173,1407.537,652.2525,1433.538,638.631,1420.4295" style="stroke:#A80036;stroke-width:1.35;"/><!--MD5=[aa4c5e89d20af985ee667eb6a6a9c808]
reverse link model.State to model.TypeState--><path d="M702.0135,1434.4155 C683.2485,1514.862 655.9515,1624.7925 643.275,1641.6 C617.5575,1675.6875 527.31,1727.0685 454.194,1765.071 " fill="none" id="model.State-backto-model.TypeState" style="stroke:#A80036;stroke-width:1.35;"/><polygon fill="none" points="692.847,1432.0935,708.129,1407.915,711.261,1436.3595,692.847,1432.0935" style="stroke:#A80036;stroke-width:1.35;"/><!--MD5=[a4cef68c3d61425d9eb5b150c93596af]
reverse link model.StringState to model.FilenameState--><path d="M589.815,1907.3205 C566.676,1935.4275 541.728,1965.735 520.7625,1991.2095 " fill="none" id="model.StringState-backto-model.FilenameState" style="stroke:#A80036;stroke-width:1.35;"/><polygon fill="none" points="582.5925,1901.232,607.041,1886.382,597.186,1913.2335,582.5925,1901.232" style="stroke:#A80036;stroke-width:1.35;"/><!--MD5=[65ff1417afff23e5d119421445d48b91]
reverse link model.StringState to model.ModeState--><path d="M663.525,1913.625 C663.525,2005.3305 663.525,2140.7625 663.525,2217.9015 " fill="none" id="model.StringState-backto-model.ModeState" style="stroke:#A80036;stroke-width:1.35;"/><polygon fill="none" points="654.075,1913.0985,663.525,1886.0985,672.975,1913.0985,654.075,1913.0985" style="stroke:#A80036;stroke-width:1.35;"/><!--MD5=[0ecb1233802ed338c902a1921120b8d2]
reverse link model.State to model.EndState--><path d="M788.3055,1430.1225 C817.7355,1474.4565 845.775,1531.6965 845.775,1588.95 C845.775,1588.95 845.775,1588.95 845.775,2280.15 C845.775,2345.7195 797.7555,2405.0115 755.3655,2444.58 " fill="none" id="model.State-backto-model.EndState" style="stroke:#A80036;stroke-width:1.35;"/><polygon fill="none" points="780.2325,1435.077,772.4565,1407.5505,795.7035,1424.223,780.2325,1435.077" style="stroke:#A80036;stroke-width:1.35;"/><!--MD5=[7627ce8b65ba9ba0651fcd179b75c75b]
reverse link model.Request to model.Request.Parser--><path codeLine="71" d="M715.0815,770.823 C718.038,777.978 720.684,785.2005 722.925,792.45 C729.2295,812.862 732.4155,835.0155 733.6035,856.8855 " fill="none" id="model.Request-backto-model.Request.Parser" style="stroke:#A80036;stroke-width:1.35;"/><ellipse cx="711.0348" cy="761.9095" fill="#FFFFFF" rx="10.8" ry="10.8" style="stroke:#A80036;stroke-width:1.35;"/><line style="stroke:#A80036;stroke-width:1.35;" x1="715.5202" x2="706.5495" y1="771.7341" y2="752.085"/><line style="stroke:#A80036;stroke-width:1.35;" x1="701.2103" x2="720.8594" y1="766.3949" y2="757.4242"/><!--MD5=[8f1abbe6026d4382835c0cf209136fc9]
link model.Request.Parser to model.Request--><path codeLine="77" d="M656.856,857.061 C651.4155,843.6015 646.3125,830.007 641.925,816.75 C635.769,798.174 630.2475,778.383 625.374,758.673 " fill="none" id="model.Request.Parser-to-model.Request" style="stroke:#A80036;stroke-width:1.35;stroke-dasharray:7.0,7.0;"/><polygon fill="#A80036" points="623.7405,751.9905,621.376,765.0745,625.3413,758.5479,631.8679,762.5133,623.7405,751.9905" style="stroke:#A80036;stroke-width:1.35;"/><text fill="#000000" font-family="sans-serif" font-size="17.55" lengthAdjust="spacing" textLength="67.5" x="643.275" y="812.0184">create</text><!--MD5=[04efe6920c1b8b315bccfdebe26f95b2]
link model.Request to model.Request.Parser--><path codeLine="78" d="M544.347,752.301 C542.5785,774.2655 544.5765,796.392 552.825,816.75 C562.14,839.754 576.1125,861.408 592.11,881.091 " fill="none" id="model.Request-to-model.Request.Parser" style="stroke:#A80036;stroke-width:1.35;stroke-dasharray:7.0,7.0;"/><polygon fill="#A80036" points="596.673,886.599,593.0712,873.8002,592.3631,881.4041,584.7593,880.696,596.673,886.599" style="stroke:#A80036;stroke-width:1.35;"/><text fill="#000000" font-family="sans-serif" font-size="17.55" lengthAdjust="spacing" textLength="67.5" x="554.175" y="812.0184">create</text><!--MD5=[f440c5bbb88fee7d138a419509b9a8c8]
reverse link model.Request.Parser to model.State--><path codeLine="74" d="M704.4975,1145.6235 C703.917,1195.074 705.1725,1247.0895 708.2775,1285.6185 " fill="none" id="model.Request.Parser-backto-model.State" style="stroke:#A80036;stroke-width:1.35;"/><polygon fill="#A80036" points="704.808,1127.5605,699.2752,1135.5704,704.541,1143.7583,710.0738,1135.7484,704.808,1127.5605" style="stroke:#A80036;stroke-width:1.35;"/><text fill="#000000" font-family="sans-serif" font-size="17.55" lengthAdjust="spacing" textLength="9.45" x="693.7797" y="1156.5166">1</text><text fill="#000000" font-family="sans-serif" font-size="17.55" lengthAdjust="spacing" textLength="9.45" x="696.0678" y="1271.3287">1</text><!--MD5=[f66c136f1911cf1e19fd51d2265ff126]
reverse link model.State to model.Request.Parser--><path codeLine="75" d="M736.965,1268.0955 C739.6245,1226.9205 740.4075,1175.067 739.3275,1127.5605 " fill="none" id="model.State-backto-model.Request.Parser" style="stroke:#A80036;stroke-width:1.35;"/><polygon fill="#A80036" points="735.6555,1285.6185,741.6369,1277.9378,736.8476,1269.4624,730.8662,1277.1431,735.6555,1285.6185" style="stroke:#A80036;stroke-width:1.35;"/><text fill="#000000" font-family="sans-serif" font-size="17.55" lengthAdjust="spacing" textLength="9.45" x="727.6381" y="1271.3287">1</text><text fill="#000000" font-family="sans-serif" font-size="17.55" lengthAdjust="spacing" textLength="9.45" x="730.8342" y="1156.5166">1</text><!--MD5=[634ed5e4bf3e81550b83cac2ab47e730]
link model.Request.Parser to model.InitialState--><path codeLine="80" d="M596.457,1106.325 C588.546,1113.4125 580.7025,1120.4325 573.075,1127.25 C546.7635,1150.7535 529.092,1148.175 513.675,1179.9 C457.866,1294.7175 468.3555,1449.5625 479.628,1531.899 " fill="none" id="model.Request.Parser-to-model.InitialState" style="stroke:#A80036;stroke-width:1.35;stroke-dasharray:7.0,7.0;"/><polygon fill="#A80036" points="480.573,1538.676,484.2211,1525.8903,479.6292,1531.9923,473.5272,1527.4004,480.573,1538.676" style="stroke:#A80036;stroke-width:1.35;"/><text fill="#000000" font-family="sans-serif" font-size="17.55" lengthAdjust="spacing" textLength="67.5" x="515.025" y="1354.0434">create</text><!--MD5=[ab54adff33485c450c5f9ba9d8c5e509]
link model.InitialState to model.TypeState--><path codeLine="81" d="M458.7705,1641.789 C437.5485,1676.5785 409.2525,1722.9375 387.2745,1758.9555 " fill="none" id="model.InitialState-to-model.TypeState" style="stroke:#A80036;stroke-width:1.35;stroke-dasharray:7.0,7.0;"/><polygon fill="#A80036" points="383.5215,1765.098,394.4699,1757.5539,387.0452,1759.3407,385.2583,1751.916,383.5215,1765.098" style="stroke:#A80036;stroke-width:1.35;"/><text fill="#000000" font-family="sans-serif" font-size="17.55" lengthAdjust="spacing" textLength="67.5" x="434.025" y="1701.6684">create</text><!--MD5=[a73aacdbd28eaa1d02e411dc3385037a]
link model.TypeState to model.FilenameState--><path codeLine="82" d="M378.513,1867.7385 C395.9145,1901.8395 419.148,1947.402 438.0885,1984.5135 " fill="none" id="model.TypeState-to-model.FilenameState" style="stroke:#A80036;stroke-width:1.35;stroke-dasharray:7.0,7.0;"/><polygon fill="#A80036" points="441.3285,1990.872,440.623,1977.5948,438.2636,1984.8579,431.0005,1982.4986,441.3285,1990.872" style="stroke:#A80036;stroke-width:1.35;"/><text fill="#000000" font-family="sans-serif" font-size="17.55" lengthAdjust="spacing" textLength="67.5" x="420.525" y="1946.0184">create</text><!--MD5=[a1271fe150f3a6cd11263aa8c61e15c5]
link model.FilenameState to model.ModeState--><path codeLine="83" d="M522.693,2112.8175 C548.91,2143.4625 580.932,2180.898 607.8105,2212.3125 " fill="none" id="model.FilenameState-to-model.ModeState" style="stroke:#A80036;stroke-width:1.35;stroke-dasharray:7.0,7.0;"/><polygon fill="#A80036" points="612.414,2217.7125,608.6345,2204.965,608.0323,2212.578,600.4193,2211.9757,612.414,2217.7125" style="stroke:#A80036;stroke-width:1.35;"/><text fill="#000000" font-family="sans-serif" font-size="17.55" lengthAdjust="spacing" textLength="67.5" x="574.425" y="2172.8184">create</text><!--MD5=[c7d1eaa1be6815ca8a3fdf6f08c6efba]
link model.ModeState to model.EndState--><path codeLine="84" d="M671.4225,2339.9415 C675.4725,2370.6135 680.3865,2407.7925 684.3825,2438.019 " fill="none" id="model.ModeState-to-model.EndState" style="stroke:#A80036;stroke-width:1.35;stroke-dasharray:7.0,7.0;"/><polygon fill="#A80036" points="685.26,2444.7555,689.0526,2432.0119,684.3919,2438.0616,678.3423,2433.4009,685.26,2444.7555" style="stroke:#A80036;stroke-width:1.35;"/><text fill="#000000" font-family="sans-serif" font-size="17.55" lengthAdjust="spacing" textLength="67.5" x="679.725" y="2399.6184">create</text><!--MD5=[ccb46543f0b404210e928655b4c24524]
reverse link actor.intermediate.ServerSideApi to stub.intermediate.ServerSide--><path d="M1099.6695,686.0025 C1108.6065,758.3085 1121.796,864.9045 1129.9635,931.014 " fill="none" id="actor.intermediate.ServerSideApi-backto-stub.intermediate.ServerSide" style="stroke:#A80036;stroke-width:1.35;stroke-dasharray:7.0,7.0;"/><polygon fill="none" points="1090.287,687.15,1096.3485,659.1915,1109.0385,684.828,1090.287,687.15" style="stroke:#A80036;stroke-width:1.35;"/><!--MD5=[30299d03d0ac0caefd80636aff00f6de]
reverse link stub.intermediate.ServerSide to InetAddress--><path codeLine="14" d="M1124.3205,1070.8605 C1111.428,1147.1895 1092.3525,1260.144 1083.2265,1314.2115 " fill="none" id="stub.intermediate.ServerSide-backto-InetAddress" style="stroke:#A80036;stroke-width:1.35;"/><polygon fill="#A80036" points="1127.304,1053.2565,1120.6279,1060.3417,1124.6004,1069.2293,1131.2764,1062.1441,1127.304,1053.2565" style="stroke:#A80036;stroke-width:1.35;"/><text fill="#000000" font-family="sans-serif" font-size="17.55" lengthAdjust="spacing" textLength="9.45" x="1115.8658" y="1081.2004">1</text><text fill="#000000" font-family="sans-serif" font-size="17.55" lengthAdjust="spacing" textLength="9.45" x="1073.9114" y="1299.8173">1</text><!--MD5=[ff1b0b8057e9e9aaa7c2588899f4da2b]
link stub.intermediate.ServerSide to stub.StubClient--><path codeLine="15" d="M1209.2895,1053.2565 C1264.7205,1099.251 1343.3175,1164.4425 1412.1675,1221.5745 " fill="none" id="stub.intermediate.ServerSide-to-stub.StubClient" style="stroke:#A80036;stroke-width:1.35;"/><polygon fill="none" points="1418.445,1214.5005,1433.187,1239.0165,1406.376,1229.04,1418.445,1214.5005" style="stroke:#A80036;stroke-width:1.35;"/><!--MD5=[a87e4aa347667407a480603e79ac1c9f]
reverse link Runnable to actor.Server--><path d="M246.375,101.3985 C246.375,127.602 246.375,158.706 246.375,186.0165 " fill="none" id="Runnable-backto-actor.Server" style="stroke:#A80036;stroke-width:1.35;stroke-dasharray:7.0,7.0;"/><polygon fill="none" points="236.925,101.3715,246.375,74.3715,255.825,101.3715,236.925,101.3715" style="stroke:#A80036;stroke-width:1.35;"/><!--MD5=[987494060b78462f7d1da2614bb2809a]
link actor.Server to model.Response--><path codeLine="24" d="M246.375,325.701 C246.375,398.1825 246.375,509.9355 246.375,568.0665 " fill="none" id="actor.Server-to-model.Response" style="stroke:#A80036;stroke-width:1.35;stroke-dasharray:7.0,7.0;"/><polygon fill="#A80036" points="246.375,574.884,251.775,562.734,246.375,568.134,240.975,562.734,246.375,574.884" style="stroke:#A80036;stroke-width:1.35;"/><text fill="#000000" font-family="sans-serif" font-size="17.55" lengthAdjust="spacing" textLength="67.5" x="247.725" y="388.1184">create</text><!--MD5=[1689a7b28b610c20c9cdf0302bc172e3]
reverse link actor.Server to actor.intermediate.ServerSideApi--><path codeLine="25" d="M394.6995,270.7155 C525.663,287.5095 718.5915,324.3375 868.725,403.65 C941.031,441.855 1007.9235,509.355 1048.842,555.8625 " fill="none" id="actor.Server-backto-actor.intermediate.ServerSideApi" style="stroke:#A80036;stroke-width:1.35;"/><polygon fill="#A80036" points="377.0415,268.5285,384.4152,274.8844,393.1183,270.5225,385.7446,264.1666,377.0415,268.5285" style="stroke:#A80036;stroke-width:1.35;"/><text fill="#000000" font-family="sans-serif" font-size="17.55" lengthAdjust="spacing" textLength="9.45" x="387.4074" y="265.293">1</text><text fill="#000000" font-family="sans-serif" font-size="17.55" lengthAdjust="spacing" textLength="9.45" x="1031.1968" y="541.441">1</text><!--MD5=[56b5ae65a1cd3b50906e5bf4f28733ef]
reverse link actor.Server to Logger--><path codeLine="26" d="M171.234,339.6735 C155.3985,359.6805 139.806,381.6585 127.575,403.65 C96.012,460.3905 74.8575,533.871 64.5975,574.8975 " fill="none" id="actor.Server-backto-Logger" style="stroke:#A80036;stroke-width:1.35;"/><polygon fill="#A80036" points="182.763,325.485,173.4633,328.3633,172.5434,338.0548,181.8431,335.1764,182.763,325.485" style="stroke:#A80036;stroke-width:1.35;"/><text fill="#000000" font-family="sans-serif" font-size="17.55" lengthAdjust="spacing" textLength="9.45" x="163.7031" y="355.0188">1</text><text fill="#000000" font-family="sans-serif" font-size="17.55" lengthAdjust="spacing" textLength="9.45" x="55.7875" y="560.4548">1</text><!--MD5=[e92f838d9e0abc993d73c5e29b54bb45]
@startuml
'https://plantuml.com/class-diagram

!include class_diagram_ServerSideApi.puml
!include class_diagram_parser.puml
!include class_diagram_StubClient.puml


class stub.intermediate.ServerSide implements actor.intermediate.ServerSideApi{
    - InetAddress inetAddress
    - int port
    + ServerSide(Config config, InetAddress inetAddress, int port)
}

stub.intermediate.ServerSide "1" *- - "1" InetAddress
stub.intermediate.ServerSide - -|> stub.StubClient

class actor.Server implements Runnable{
    - Logger logger
    - ServerSideApi serverSide
    + Server(ServerSideApi serverSide)
    + void main(String[] args)
}

actor.Server ..> model.Response: "<<create>>"
actor.Server "1" *- - "1" actor.intermediate.ServerSideApi
actor.Server "1" *- - "1" Logger


@enduml

@startuml


interface actor.intermediate.ServerSideApi{
    + void send(Response response)
    + Message send()
}


class model.BadRequest extends model.Request{
 + BadRequest(boolean read, String filename, String mode)
 - byte[] getEncoded(int maxMessageSize)
}

abstract class model.State{
 # Request.Parser Parser
 # State(Request.Parser Parser)
 {abstract} + void handle(byte b)
}
abstract class model.StringState extends model.State{
 # ByteArrayOutputStream output
 # StringState(Request.Parser Parser)
 {abstract} # void nextState(String output)
 + void handle(byte b)
}
class model.InitialState extends model.State{
 + InitialState(Request.Parser Parser)
 + void handle(byte b)
}
class model.TypeState extends model.State{
 + TypeState(Request.Parser Parser)
 + void handle(byte b)
}
class model.FilenameState extends model.StringState{
 + FilenameState(Request.Parser Parser)
 # void nextState(String output)
 + void handle(byte b)
}
class model.ModeState extends model.StringState{
 + ModeState(Request.Parser Parser)
 # void nextState(String output)
 + void handle(byte b)
}
class model.EndState extends model.State{
 + EndState(Request.Parser Parser)
 + void handle(byte b)
}


class model.Request{
 - boolean read
 - String filename
 - String mode
 + Request(boolean read, String filename, String mode)
 {static} + Request fromEncoded(byte[] bytes)
 - void writeObject(ObjectOutputStream out)
 - void readObject(ObjectInputStream in)
 + byte[] getEncoded(int maxMessageSize)
 + boolean isRead()
 + String toString()
 + boolean equals(Object o)
 + int hashCode()
}
class model.Request.Parser{
 - boolean read
 - String filename
 - String mode
 - State state
 + Parser()
 + void setRead(boolean read)
 + void setFilename(String filename)
 + void setMode(String mode)
 + Request build()
 + State getState()
 + void setState(State state)
}

model.Request +- - model.Request.Parser


model.Request.Parser "1" *- - "1" model.State
model.State "1" *- - "1" model.Request.Parser

model.Request.Parser ..> model.Request: "<<create>>"
model.Request ..> model.Request.Parser: "<<create>>"

model.Request.Parser ..> model.InitialState: "<<create>>"
model.InitialState ..> model.TypeState: "<<create>>"
model.TypeState ..> model.FilenameState: "<<create>>"
model.FilenameState ..> model.ModeState: "<<create>>"
model.ModeState ..> model.EndState: "<<create>>"


abstract class stub.StubClient{
    # Config config
    # StubClient(Config config)
    # <T> T sendAndReceive(int functionNumber, InetAddress inetAddress, int port)
    # <T> T sendAndReceive(int functionNumber, Serializable argument, InetAddress inetAddress, int port)
    # <T> T sendAndReceive(int functionNumber, List<Serializable> arguments, InetAddress inetAddress, int port)
    # <T> T sendAndReceive(StubRequestMessage stubRequestMessage, InetAddress inetAddress, int port)
    # byte[] sendAndReceive(byte[] data, InetAddress inetAddress, int port)
    # byte[] sendAndReceive(DatagramSocket datagramSocket, byte[] data, InetAddress inetAddress, int port)
}



class stub.intermediate.ServerSide implements actor.intermediate.ServerSideApi{
    - InetAddress inetAddress
    - int port
    + ServerSide(Config config, InetAddress inetAddress, int port)
}

stub.intermediate.ServerSide "1" *- - "1" InetAddress
stub.intermediate.ServerSide - -|> stub.StubClient

class actor.Server implements Runnable{
    - Logger logger
    - ServerSideApi serverSide
    + Server(ServerSideApi serverSide)
    + void main(String[] args)
}

actor.Server ..> model.Response: "<<create>>"
actor.Server "1" *- - "1" actor.intermediate.ServerSideApi
actor.Server "1" *- - "1" Logger


@enduml

PlantUML version 1.2021.01(Tue Feb 02 02:55:08 EST 2021)
(GPL source distribution)
Java Runtime: OpenJDK Runtime Environment
JVM: OpenJDK 64-Bit Server VM
Default Encoding: Cp1252
Language: en
Country: US
--></g></svg>