<?xml version="1.0" encoding="UTF-8" standalone="no"?><svg xmlns="http://www.w3.org/2000/svg" xmlns:xlink="http://www.w3.org/1999/xlink" contentScriptType="application/ecmascript" contentStyleType="text/css" height="190.35px" preserveAspectRatio="none" style="width:330px;height:190px;" version="1.1" viewBox="0 0 330 190" width="330.75px" zoomAndPan="magnify"><defs><filter height="300%" id="f181odr8ncxyg" width="300%" x="-1" y="-1"><feGaussianBlur result="blurOut" stdDeviation="2.7"/><feColorMatrix in="blurOut" result="blurOut2" type="matrix" values="0 0 0 0 0 0 0 0 0 0 0 0 0 0 0 0 0 0 .4 0"/><feOffset dx="5.4" dy="5.4" in="blurOut2" result="blurOut3"/><feBlend in="SourceGraphic" in2="blurOut3" mode="normal"/></filter></defs><g><!--MD5=[25978a4fff2e3f143e96a46d7bb4290d]
cluster actor.intermediate--><polygon fill="#FFFFFF" filter="url(#f181odr8ncxyg)" points="21.6,8.1,203.85,8.1,213.3,39.9727,307.8,39.9727,307.8,180.9,21.6,180.9,21.6,8.1" style="stroke:#000000;stroke-width:2.0250000000000004;"/><line style="stroke:#000000;stroke-width:2.0250000000000004;" x1="21.6" x2="213.3" y1="39.9727" y2="39.9727"/><text fill="#000000" font-family="sans-serif" font-size="18.9" font-weight="bold" lengthAdjust="spacing" textLength="174.15" x="27" y="30.4198">actor.intermediate</text><!--MD5=[9a27a3e923bbc1cb39c16d5ac83fa6f1]
class actor.intermediate.ServerSideApi--><rect codeLine="3" fill="#FEFECE" filter="url(#f181odr8ncxyg)" height="102.157" id="actor.intermediate.ServerSideApi" style="stroke:#A80036;stroke-width:2.0250000000000004;" width="241.65" x="43.875" y="56.7"/><ellipse cx="105.6375" cy="78.3" fill="#B4A7E5" rx="14.85" ry="14.85" style="stroke:#A80036;stroke-width:1.35;"/><path d="M106.9875,74.25 L106.9875,82.35 L109.6875,82.35 L110.3414,82.35 L111.0375,83.1938 L111.0375,83.7 L111.0375,84.2063 L110.3414,85.05 L109.6875,85.05 L101.5875,85.05 L100.9336,85.05 L100.2375,84.2063 L100.2375,83.7 L100.2375,83.1938 L100.9336,82.35 L101.5875,82.35 L104.2875,82.35 L104.2875,74.25 L101.5875,74.25 L100.9336,74.25 L100.2375,73.4063 L100.2375,72.9 L100.2375,72.3938 L100.9336,71.55 L101.5875,71.55 L109.6875,71.55 L110.3414,71.55 L111.0375,72.3938 L111.0375,72.9 L111.0375,73.4063 L110.3414,74.25 L109.6875,74.25 L106.9875,74.25 Z " fill="#000000"/><text fill="#000000" font-family="sans-serif" font-size="16.2" font-style="italic" lengthAdjust="spacing" textLength="106.65" x="133.3125" y="84.9287">ServerSideApi</text><line style="stroke:#A80036;stroke-width:2.0250000000000004;" x1="45.225" x2="284.175" y1="99.9" y2="99.9"/><line style="stroke:#A80036;stroke-width:2.0250000000000004;" x1="45.225" x2="284.175" y1="110.7" y2="110.7"/><ellipse cx="58.725" cy="125.55" fill="#84BE84" rx="4.05" ry="4.05" style="stroke:#038048;stroke-width:1.35;"/><text fill="#000000" font-family="sans-serif" font-size="14.85" lengthAdjust="spacing" textLength="206.55" x="70.875" y="131.5156">void send(Response response)</text><ellipse cx="58.725" cy="144.2285" fill="#84BE84" rx="4.05" ry="4.05" style="stroke:#038048;stroke-width:1.35;"/><text fill="#000000" font-family="sans-serif" font-size="14.85" lengthAdjust="spacing" textLength="106.65" x="70.875" y="150.1941">Message send()</text><!--MD5=[d754584d82b4d77d2b0514dfee8876bb]
@startuml
'https://plantuml.com/class-diagram

interface actor.intermediate.ServerSideApi{
    + void send(Response response)
    + Message send()
}

@enduml

@startuml

interface actor.intermediate.ServerSideApi{
    + void send(Response response)
    + Message send()
}

@enduml

PlantUML version 1.2021.01(Tue Feb 02 02:55:08 EST 2021)
(GPL source distribution)
Java Runtime: OpenJDK Runtime Environment
JVM: OpenJDK 64-Bit Server VM
Default Encoding: Cp1252
Language: en
Country: US
--></g></svg>