<?xml version="1.0" encoding="UTF-8" standalone="no"?><svg xmlns="http://www.w3.org/2000/svg" xmlns:xlink="http://www.w3.org/1999/xlink" contentScriptType="application/ecmascript" contentStyleType="text/css" height="302.4px" preserveAspectRatio="none" style="width:395px;height:302px;" version="1.1" viewBox="0 0 395 302" width="395.55px" zoomAndPan="magnify"><defs><filter height="300%" id="fenuf5380676d" width="300%" x="-1" y="-1"><feGaussianBlur result="blurOut" stdDeviation="2.7"/><feColorMatrix in="blurOut" result="blurOut2" type="matrix" values="0 0 0 0 0 0 0 0 0 0 0 0 0 0 0 0 0 0 .4 0"/><feOffset dx="5.4" dy="5.4" in="blurOut2" result="blurOut3"/><feBlend in="SourceGraphic" in2="blurOut3" mode="normal"/></filter></defs><g><!--MD5=[5d4cd377749310b66bf14896f5cd8d9b]
cluster model--><polygon fill="#FFFFFF" filter="url(#fenuf5380676d)" points="21.6,8.1,87.75,8.1,97.2,39.9727,372.6,39.9727,372.6,292.95,21.6,292.95,21.6,8.1" style="stroke:#000000;stroke-width:2.0250000000000004;"/><line style="stroke:#000000;stroke-width:2.0250000000000004;" x1="21.6" x2="97.2" y1="39.9727" y2="39.9727"/><text fill="#000000" font-family="sans-serif" font-size="18.9" font-weight="bold" lengthAdjust="spacing" textLength="58.05" x="27" y="30.4198">model</text><!--MD5=[377e5d5fe91810aa30a37bbe1ce49825]
class model.Response--><rect codeLine="3" fill="#FEFECE" filter="url(#fenuf5380676d)" height="214.2281" id="model.Response" style="stroke:#A80036;stroke-width:2.0250000000000004;" width="307.8" x="43.2" y="56.7"/><ellipse cx="152.2125" cy="78.3" fill="#ADD1B2" rx="14.85" ry="14.85" style="stroke:#A80036;stroke-width:1.35;"/><path d="M154.9125,73.575 Q155.1867,72.9 155.5031,72.5625 Q155.8195,72.225 156.1781,72.225 Q156.8109,72.225 157.2117,72.6047 Q157.6125,72.9844 157.6125,73.8703 L157.6125,75.9797 Q157.6125,76.8656 157.2328,77.2453 Q156.8531,77.625 156.2625,77.625 Q155.7352,77.625 155.3977,77.393 Q155.0602,77.1609 154.9125,76.5492 Q154.8492,76.1273 154.6172,75.8953 Q154.1953,75.4523 153.4359,75.1992 Q152.6766,74.925 151.9172,74.925 Q150.968,74.925 150.1664,75.3047 Q149.3859,75.6844 148.7742,76.5281 Q148.1625,77.3719 148.1625,78.532 L148.1625,79.7766 Q148.1625,81.1688 149.3016,82.0969 Q150.4406,83.025 152.4656,83.025 Q153.668,83.025 154.5117,82.7508 Q154.9969,82.6031 155.5453,82.118 Q155.9039,81.8438 156.0938,81.7594 Q156.2836,81.675 156.5156,81.675 Q156.9586,81.675 157.275,82.0336 Q157.6125,82.3711 157.6125,82.8563 Q157.6125,83.3203 157.1484,83.8688 Q156.4734,84.6703 155.3977,85.1133 Q153.9844,85.725 152.2547,85.725 Q150.2297,85.725 148.6055,84.9234 Q147.2977,84.2906 146.3695,82.9195 Q145.4625,81.5484 145.4625,79.9242 L145.4625,78.4477 Q145.4625,76.7602 146.2641,75.2836 Q147.0867,73.807 148.5,73.0266 Q149.9344,72.225 151.5375,72.225 Q152.5078,72.225 153.3516,72.5625 Q154.1953,72.9 154.9125,73.575 Z " fill="#000000"/><text fill="#000000" font-family="sans-serif" font-size="16.2" lengthAdjust="spacing" textLength="78.3" x="179.8875" y="84.9287">Response</text><line style="stroke:#A80036;stroke-width:2.0250000000000004;" x1="44.55" x2="349.65" y1="99.9" y2="99.9"/><rect fill="none" height="8.1" style="stroke:#C82930;stroke-width:1.35;" width="8.1" x="54" y="110.7"/><text fill="#000000" font-family="sans-serif" font-size="14.85" lengthAdjust="spacing" textLength="85.05" x="70.2" y="120.7156">boolean read</text><line style="stroke:#A80036;stroke-width:2.0250000000000004;" x1="44.55" x2="349.65" y1="129.3785" y2="129.3785"/><ellipse cx="58.05" cy="144.2285" fill="#84BE84" rx="4.05" ry="4.05" style="stroke:#038048;stroke-width:1.35;"/><text fill="#000000" font-family="sans-serif" font-size="14.85" lengthAdjust="spacing" textLength="162" x="70.2" y="150.1941">Response(boolean read)</text><ellipse cx="58.05" cy="162.907" fill="#84BE84" rx="4.05" ry="4.05" style="stroke:#038048;stroke-width:1.35;"/><text fill="#000000" font-family="sans-serif" font-size="14.85" lengthAdjust="spacing" textLength="128.25" x="70.2" y="168.8726">byte[] getEncoded()</text><ellipse cx="58.05" cy="181.5855" fill="#84BE84" rx="4.05" ry="4.05" style="stroke:#038048;stroke-width:1.35;"/><text fill="#000000" font-family="sans-serif" font-size="14.85" lengthAdjust="spacing" textLength="272.7" x="70.2" y="187.5511">void writeObject(ObjectOutputStream out)</text><ellipse cx="58.05" cy="200.2641" fill="#84BE84" rx="4.05" ry="4.05" style="stroke:#038048;stroke-width:1.35;"/><text fill="#000000" font-family="sans-serif" font-size="14.85" lengthAdjust="spacing" textLength="247.05" x="70.2" y="206.2296">void readObject(ObjectInputStream in)</text><ellipse cx="58.05" cy="218.9426" fill="#84BE84" rx="4.05" ry="4.05" style="stroke:#038048;stroke-width:1.35;"/><text fill="#000000" font-family="sans-serif" font-size="14.85" lengthAdjust="spacing" textLength="102.6" x="70.2" y="224.9082">String toString()</text><ellipse cx="58.05" cy="237.6211" fill="#84BE84" rx="4.05" ry="4.05" style="stroke:#038048;stroke-width:1.35;"/><text fill="#000000" font-family="sans-serif" font-size="14.85" lengthAdjust="spacing" textLength="163.35" x="70.2" y="243.5867">boolean equals(Object o)</text><ellipse cx="58.05" cy="256.2996" fill="#84BE84" rx="4.05" ry="4.05" style="stroke:#038048;stroke-width:1.35;"/><text fill="#000000" font-family="sans-serif" font-size="14.85" lengthAdjust="spacing" textLength="95.85" x="70.2" y="262.2652">int hashCode()</text><!--MD5=[b1a05111e020b4e6d4e6412cb9f62bae]
@startuml
'https://plantuml.com/class-diagram

class model.Response{
 - boolean read
 + Response(boolean read)
 + byte[] getEncoded()
 + void writeObject(ObjectOutputStream out)
 + void readObject(ObjectInputStream in)
 + String toString()
 + boolean equals(Object o)
 + int hashCode()
}

@enduml

@startuml

class model.Response{
 - boolean read
 + Response(boolean read)
 + byte[] getEncoded()
 + void writeObject(ObjectOutputStream out)
 + void readObject(ObjectInputStream in)
 + String toString()
 + boolean equals(Object o)
 + int hashCode()
}

@enduml

PlantUML version 1.2021.01(Tue Feb 02 02:55:08 EST 2021)
(GPL source distribution)
Java Runtime: OpenJDK Runtime Environment
JVM: OpenJDK 64-Bit Server VM
Default Encoding: Cp1252
Language: en
Country: US
--></g></svg>