<?xml version="1.0" encoding="UTF-8" standalone="no"?><svg xmlns="http://www.w3.org/2000/svg" xmlns:xlink="http://www.w3.org/1999/xlink" contentScriptType="application/ecmascript" contentStyleType="text/css" height="2654.1px" preserveAspectRatio="none" style="width:1972px;height:2654px;" version="1.1" viewBox="0 0 1972 2654" width="1972.35px" zoomAndPan="magnify"><defs><filter height="300%" id="f12od2r0u2pjc5" width="300%" x="-1" y="-1"><feGaussianBlur result="blurOut" stdDeviation="2.7"/><feColorMatrix in="blurOut" result="blurOut2" type="matrix" values="0 0 0 0 0 0 0 0 0 0 0 0 0 0 0 0 0 0 .4 0"/><feOffset dx="5.4" dy="5.4" in="blurOut2" result="blurOut3"/><feBlend in="SourceGraphic" in2="blurOut3" mode="normal"/></filter></defs><g><!--MD5=[25978a4fff2e3f143e96a46d7bb4290d]
cluster actor.intermediate--><polygon fill="#FFFFFF" filter="url(#f12od2r0u2pjc5)" points="901.125,583.2,1083.375,583.2,1092.825,615.0727,1163.025,615.0727,1163.025,756,901.125,756,901.125,583.2" style="stroke:#000000;stroke-width:2.0250000000000004;"/><line style="stroke:#000000;stroke-width:2.0250000000000004;" x1="901.125" x2="1092.825" y1="615.0727" y2="615.0727"/><text fill="#000000" font-family="sans-serif" font-size="18.9" font-weight="bold" lengthAdjust="spacing" textLength="174.15" x="906.525" y="605.5198">actor.intermediate</text><!--MD5=[5d4cd377749310b66bf14896f5cd8d9b]
cluster model--><polygon fill="#FFFFFF" filter="url(#f12od2r0u2pjc5)" points="127.575,490.05,193.725,490.05,203.175,521.9227,868.725,521.9227,868.725,2644.65,127.575,2644.65,127.575,490.05" style="stroke:#000000;stroke-width:2.0250000000000004;"/><line style="stroke:#000000;stroke-width:2.0250000000000004;" x1="127.575" x2="203.175" y1="521.9227" y2="521.9227"/><text fill="#000000" font-family="sans-serif" font-size="18.9" font-weight="bold" lengthAdjust="spacing" textLength="58.05" x="132.975" y="512.3698">model</text><!--MD5=[3e81cc6ee7da4fa8b6adc12b329096f6]
cluster util--><polygon fill="#FFFFFF" filter="url(#f12od2r0u2pjc5)" points="1195.425,546.075,1233.225,546.075,1242.675,577.9477,1492.425,577.9477,1492.425,793.125,1195.425,793.125,1195.425,546.075" style="stroke:#000000;stroke-width:2.0250000000000004;"/><line style="stroke:#000000;stroke-width:2.0250000000000004;" x1="1195.425" x2="1242.675" y1="577.9477" y2="577.9477"/><text fill="#000000" font-family="sans-serif" font-size="18.9" font-weight="bold" lengthAdjust="spacing" textLength="29.7" x="1200.825" y="568.3948">util</text><!--MD5=[18aed0fe745dedb90085b331e37ded62]
cluster stub--><polygon fill="#FFFFFF" filter="url(#f12od2r0u2pjc5)" points="1167.075,1266.3,1217.025,1266.3,1226.475,1298.1727,1950.075,1298.1727,1950.075,1551.15,1167.075,1551.15,1167.075,1266.3" style="stroke:#000000;stroke-width:2.0250000000000004;"/><line style="stroke:#000000;stroke-width:2.0250000000000004;" x1="1167.075" x2="1226.475" y1="1298.1727" y2="1298.1727"/><text fill="#000000" font-family="sans-serif" font-size="18.9" font-weight="bold" lengthAdjust="spacing" textLength="41.85" x="1172.475" y="1288.6198">stub</text><!--MD5=[df97d02f0e0087fdb4900c9f3b8cbe8b]
cluster stub.intermediate--><polygon fill="#FFFFFF" filter="url(#f12od2r0u2pjc5)" points="901.125,958.5,1076.625,958.5,1086.075,990.3727,1365.525,990.3727,1365.525,1150.2,901.125,1150.2,901.125,958.5" style="stroke:#000000;stroke-width:2.0250000000000004;"/><line style="stroke:#000000;stroke-width:2.0250000000000004;" x1="901.125" x2="1086.075" y1="990.3727" y2="990.3727"/><text fill="#000000" font-family="sans-serif" font-size="18.9" font-weight="bold" lengthAdjust="spacing" textLength="167.4" x="906.525" y="980.8198">stub.intermediate</text><!--MD5=[e1f23030ead27e1095528dde945cb3cc]
cluster actor--><polygon fill="#FFFFFF" filter="url(#f12od2r0u2pjc5)" points="461.025,137.7,517.725,137.7,527.175,169.5727,1014.525,169.5727,1014.525,422.55,461.025,422.55,461.025,137.7" style="stroke:#000000;stroke-width:2.0250000000000004;"/><line style="stroke:#000000;stroke-width:2.0250000000000004;" x1="461.025" x2="527.175" y1="169.5727" y2="169.5727"/><text fill="#000000" font-family="sans-serif" font-size="18.9" font-weight="bold" lengthAdjust="spacing" textLength="48.6" x="466.425" y="160.0198">actor</text><!--MD5=[835cf35f9f779e49c9359fdf76690ac7]
class actor.intermediate.ClientSideApi--><rect codeLine="3" fill="#FEFECE" filter="url(#f12od2r0u2pjc5)" height="102.157" id="actor.intermediate.ClientSideApi" style="stroke:#A80036;stroke-width:2.0250000000000004;" width="217.35" x="923.4" y="631.8"/><ellipse cx="976.455" cy="653.4" fill="#B4A7E5" rx="14.85" ry="14.85" style="stroke:#A80036;stroke-width:1.35;"/><path d="M977.805,649.35 L977.805,657.45 L980.505,657.45 L981.1589,657.45 L981.855,658.2938 L981.855,658.8 L981.855,659.3063 L981.1589,660.15 L980.505,660.15 L972.405,660.15 L971.7511,660.15 L971.055,659.3063 L971.055,658.8 L971.055,658.2938 L971.7511,657.45 L972.405,657.45 L975.105,657.45 L975.105,649.35 L972.405,649.35 L971.7511,649.35 L971.055,648.5063 L971.055,648 L971.055,647.4938 L971.7511,646.65 L972.405,646.65 L980.505,646.65 L981.1589,646.65 L981.855,647.4938 L981.855,648 L981.855,648.5063 L981.1589,649.35 L980.505,649.35 L977.805,649.35 Z " fill="#000000"/><text fill="#000000" font-family="sans-serif" font-size="16.2" font-style="italic" lengthAdjust="spacing" textLength="101.25" x="1002.645" y="660.0287">ClientSideApi</text><line style="stroke:#A80036;stroke-width:2.0250000000000004;" x1="924.75" x2="1139.4" y1="675" y2="675"/><line style="stroke:#A80036;stroke-width:2.0250000000000004;" x1="924.75" x2="1139.4" y1="685.8" y2="685.8"/><ellipse cx="938.25" cy="700.65" fill="#84BE84" rx="4.05" ry="4.05" style="stroke:#038048;stroke-width:1.35;"/><text fill="#000000" font-family="sans-serif" font-size="14.85" lengthAdjust="spacing" textLength="182.25" x="950.4" y="706.6156">void send(Request request)</text><ellipse cx="938.25" cy="719.3285" fill="#84BE84" rx="4.05" ry="4.05" style="stroke:#038048;stroke-width:1.35;"/><text fill="#000000" font-family="sans-serif" font-size="14.85" lengthAdjust="spacing" textLength="106.65" x="950.4" y="725.2941">Message send()</text><!--MD5=[47d34067e58fbf84983dbb17222562fa]
class model.BadRequest--><rect codeLine="3" fill="#FEFECE" filter="url(#f12od2r0u2pjc5)" height="102.157" id="model.BadRequest" style="stroke:#A80036;stroke-width:2.0250000000000004;" width="399.6" x="149.175" y="1016.55"/><ellipse cx="296.6625" cy="1038.15" fill="#ADD1B2" rx="14.85" ry="14.85" style="stroke:#A80036;stroke-width:1.35;"/><path d="M299.3625,1033.425 Q299.6367,1032.75 299.9531,1032.4125 Q300.2695,1032.075 300.6281,1032.075 Q301.2609,1032.075 301.6617,1032.4547 Q302.0625,1032.8344 302.0625,1033.7203 L302.0625,1035.8297 Q302.0625,1036.7156 301.6828,1037.0953 Q301.3031,1037.475 300.7125,1037.475 Q300.1852,1037.475 299.8477,1037.243 Q299.5102,1037.0109 299.3625,1036.3992 Q299.2992,1035.9773 299.0672,1035.7453 Q298.6453,1035.3023 297.8859,1035.0492 Q297.1266,1034.775 296.3672,1034.775 Q295.418,1034.775 294.6164,1035.1547 Q293.8359,1035.5344 293.2242,1036.3781 Q292.6125,1037.2219 292.6125,1038.382 L292.6125,1039.6266 Q292.6125,1041.0188 293.7516,1041.9469 Q294.8906,1042.875 296.9156,1042.875 Q298.118,1042.875 298.9617,1042.6008 Q299.4469,1042.4531 299.9953,1041.968 Q300.3539,1041.6938 300.5438,1041.6094 Q300.7336,1041.525 300.9656,1041.525 Q301.4086,1041.525 301.725,1041.8836 Q302.0625,1042.2211 302.0625,1042.7063 Q302.0625,1043.1703 301.5984,1043.7188 Q300.9234,1044.5203 299.8477,1044.9633 Q298.4344,1045.575 296.7047,1045.575 Q294.6797,1045.575 293.0555,1044.7734 Q291.7477,1044.1406 290.8195,1042.7695 Q289.9125,1041.3984 289.9125,1039.7742 L289.9125,1038.2977 Q289.9125,1036.6102 290.7141,1035.1336 Q291.5367,1033.657 292.95,1032.8766 Q294.3844,1032.075 295.9875,1032.075 Q296.9578,1032.075 297.8016,1032.4125 Q298.6453,1032.75 299.3625,1033.425 Z " fill="#000000"/><text fill="#000000" font-family="sans-serif" font-size="16.2" lengthAdjust="spacing" textLength="93.15" x="324.3375" y="1044.7787">BadRequest</text><line style="stroke:#A80036;stroke-width:2.0250000000000004;" x1="150.525" x2="547.425" y1="1059.75" y2="1059.75"/><line style="stroke:#A80036;stroke-width:2.0250000000000004;" x1="150.525" x2="547.425" y1="1070.55" y2="1070.55"/><ellipse cx="164.025" cy="1085.4" fill="#84BE84" rx="4.05" ry="4.05" style="stroke:#038048;stroke-width:1.35;"/><text fill="#000000" font-family="sans-serif" font-size="14.85" lengthAdjust="spacing" textLength="364.5" x="176.175" y="1091.3656">BadRequest(boolean read, String filename, String mode)</text><rect fill="#F24D5C" height="8.1" style="stroke:#C82930;stroke-width:1.35;" width="8.1" x="159.975" y="1100.0285"/><text fill="#000000" font-family="sans-serif" font-size="14.85" lengthAdjust="spacing" textLength="261.9" x="176.175" y="1110.0441">byte[] getEncoded(int maxMessageSize)</text><!--MD5=[bf4638d74bc39945c3e1383ef8cbae27]
class model.Request--><rect codeLine="43" fill="#FEFECE" filter="url(#f12od2r0u2pjc5)" height="288.9422" id="model.Request" style="stroke:#A80036;stroke-width:2.0250000000000004;" width="373.95" x="472.5" y="538.65"/><ellipse cx="622.0125" cy="560.25" fill="#ADD1B2" rx="14.85" ry="14.85" style="stroke:#A80036;stroke-width:1.35;"/><path d="M624.7125,555.525 Q624.9867,554.85 625.3031,554.5125 Q625.6195,554.175 625.9781,554.175 Q626.6109,554.175 627.0117,554.5547 Q627.4125,554.9344 627.4125,555.8203 L627.4125,557.9297 Q627.4125,558.8156 627.0328,559.1953 Q626.6531,559.575 626.0625,559.575 Q625.5352,559.575 625.1977,559.343 Q624.8602,559.1109 624.7125,558.4992 Q624.6492,558.0773 624.4172,557.8453 Q623.9953,557.4023 623.2359,557.1492 Q622.4766,556.875 621.7172,556.875 Q620.768,556.875 619.9664,557.2547 Q619.1859,557.6344 618.5742,558.4781 Q617.9625,559.3219 617.9625,560.482 L617.9625,561.7266 Q617.9625,563.1188 619.1016,564.0469 Q620.2406,564.975 622.2656,564.975 Q623.468,564.975 624.3117,564.7008 Q624.7969,564.5531 625.3453,564.068 Q625.7039,563.7938 625.8938,563.7094 Q626.0836,563.625 626.3156,563.625 Q626.7586,563.625 627.075,563.9836 Q627.4125,564.3211 627.4125,564.8063 Q627.4125,565.2703 626.9484,565.8188 Q626.2734,566.6203 625.1977,567.0633 Q623.7844,567.675 622.0547,567.675 Q620.0297,567.675 618.4055,566.8734 Q617.0977,566.2406 616.1695,564.8695 Q615.2625,563.4984 615.2625,561.8742 L615.2625,560.3977 Q615.2625,558.7102 616.0641,557.2336 Q616.8867,555.757 618.3,554.9766 Q619.7344,554.175 621.3375,554.175 Q622.3078,554.175 623.1516,554.5125 Q623.9953,554.85 624.7125,555.525 Z " fill="#000000"/><text fill="#000000" font-family="sans-serif" font-size="16.2" lengthAdjust="spacing" textLength="63.45" x="649.6875" y="566.8787">Request</text><line style="stroke:#A80036;stroke-width:2.0250000000000004;" x1="473.85" x2="845.1" y1="581.85" y2="581.85"/><rect fill="none" height="8.1" style="stroke:#C82930;stroke-width:1.35;" width="8.1" x="483.3" y="592.65"/><text fill="#000000" font-family="sans-serif" font-size="14.85" lengthAdjust="spacing" textLength="85.05" x="499.5" y="602.6656">boolean read</text><rect fill="none" height="8.1" style="stroke:#C82930;stroke-width:1.35;" width="8.1" x="483.3" y="611.3285"/><text fill="#000000" font-family="sans-serif" font-size="14.85" lengthAdjust="spacing" textLength="95.85" x="499.5" y="621.3441">String filename</text><rect fill="none" height="8.1" style="stroke:#C82930;stroke-width:1.35;" width="8.1" x="483.3" y="630.007"/><text fill="#000000" font-family="sans-serif" font-size="14.85" lengthAdjust="spacing" textLength="76.95" x="499.5" y="640.0226">String mode</text><line style="stroke:#A80036;stroke-width:2.0250000000000004;" x1="473.85" x2="845.1" y1="648.6855" y2="648.6855"/><ellipse cx="487.35" cy="663.5355" fill="#84BE84" rx="4.05" ry="4.05" style="stroke:#038048;stroke-width:1.35;"/><text fill="#000000" font-family="sans-serif" font-size="14.85" lengthAdjust="spacing" textLength="338.85" x="499.5" y="669.5011">Request(boolean read, String filename, String mode)</text><ellipse cx="487.35" cy="682.2141" fill="#84BE84" rx="4.05" ry="4.05" style="stroke:#038048;stroke-width:1.35;"/><text fill="#000000" font-family="sans-serif" font-size="14.85" lengthAdjust="spacing" text-decoration="underline" textLength="232.2" x="499.5" y="688.1796">Request fromEncoded(byte[] bytes)</text><rect fill="#F24D5C" height="8.1" style="stroke:#C82930;stroke-width:1.35;" width="8.1" x="483.3" y="696.8426"/><text fill="#000000" font-family="sans-serif" font-size="14.85" lengthAdjust="spacing" textLength="272.7" x="499.5" y="706.8582">void writeObject(ObjectOutputStream out)</text><rect fill="#F24D5C" height="8.1" style="stroke:#C82930;stroke-width:1.35;" width="8.1" x="483.3" y="715.5211"/><text fill="#000000" font-family="sans-serif" font-size="14.85" lengthAdjust="spacing" textLength="247.05" x="499.5" y="725.5367">void readObject(ObjectInputStream in)</text><ellipse cx="487.35" cy="738.2496" fill="#84BE84" rx="4.05" ry="4.05" style="stroke:#038048;stroke-width:1.35;"/><text fill="#000000" font-family="sans-serif" font-size="14.85" lengthAdjust="spacing" textLength="261.9" x="499.5" y="744.2152">byte[] getEncoded(int maxMessageSize)</text><ellipse cx="487.35" cy="756.9281" fill="#84BE84" rx="4.05" ry="4.05" style="stroke:#038048;stroke-width:1.35;"/><text fill="#000000" font-family="sans-serif" font-size="14.85" lengthAdjust="spacing" textLength="110.7" x="499.5" y="762.8937">boolean isRead()</text><ellipse cx="487.35" cy="775.6066" fill="#84BE84" rx="4.05" ry="4.05" style="stroke:#038048;stroke-width:1.35;"/><text fill="#000000" font-family="sans-serif" font-size="14.85" lengthAdjust="spacing" textLength="102.6" x="499.5" y="781.5722">String toString()</text><ellipse cx="487.35" cy="794.2852" fill="#84BE84" rx="4.05" ry="4.05" style="stroke:#038048;stroke-width:1.35;"/><text fill="#000000" font-family="sans-serif" font-size="14.85" lengthAdjust="spacing" textLength="163.35" x="499.5" y="800.2507">boolean equals(Object o)</text><ellipse cx="487.35" cy="812.9637" fill="#84BE84" rx="4.05" ry="4.05" style="stroke:#038048;stroke-width:1.35;"/><text fill="#000000" font-family="sans-serif" font-size="14.85" lengthAdjust="spacing" textLength="95.85" x="499.5" y="818.9292">int hashCode()</text><!--MD5=[cd54df1af516238376ca8c3206b0f27d]
class model.State--><rect codeLine="8" fill="#FEFECE" filter="url(#f12od2r0u2pjc5)" height="120.8355" id="model.State" style="stroke:#A80036;stroke-width:2.0250000000000004;" width="228.15" x="607.5" y="1361.475"/><ellipse cx="696.9375" cy="1383.075" fill="#A9DCDF" rx="14.85" ry="14.85" style="stroke:#A80036;stroke-width:1.35;"/><path d="M699.3,1385.1 L694.8492,1385.1 L694.2586,1386.45 L694.2586,1386.45 L694.8914,1386.45 L695.5875,1387.2938 L695.5875,1387.8 L695.5875,1388.3063 L694.8914,1389.15 L694.2586,1389.15 L691.7063,1389.15 L690.8836,1389.15 L690.1875,1388.3063 L690.1875,1387.8 L690.1875,1387.2938 L690.8836,1386.45 L691.7063,1386.45 L694.8281,1378.35 L693.6469,1378.35 L692.2336,1378.35 L691.5375,1377.5063 L691.5375,1377 L691.5375,1376.4938 L692.2336,1375.65 L693.6469,1375.65 L698.6039,1375.65 L702.232,1386.45 L702.9914,1386.45 L702.9914,1386.45 L703.6875,1387.2938 L703.6875,1387.8 L703.6875,1388.3063 L702.9914,1389.15 L702.232,1389.15 L699.6797,1389.15 L698.9836,1389.15 L698.2875,1388.3063 L698.2875,1387.8 L698.2875,1387.2938 L698.9836,1386.45 L699.6797,1386.45 L699.6797,1386.45 L699.3,1385.1 Z M698.5617,1382.4 L696.9375,1377.5695 L695.5453,1382.4 L698.5617,1382.4 Z " fill="#000000"/><text fill="#000000" font-family="sans-serif" font-size="16.2" font-style="italic" lengthAdjust="spacing" textLength="37.8" x="724.6125" y="1389.7037">State</text><line style="stroke:#A80036;stroke-width:2.0250000000000004;" x1="608.85" x2="834.3" y1="1404.675" y2="1404.675"/><polygon fill="none" points="622.35,1412.775,627.75,1418.175,622.35,1423.575,616.95,1418.175" style="stroke:#B38D22;stroke-width:1.35;"/><text fill="#000000" font-family="sans-serif" font-size="14.85" lengthAdjust="spacing" textLength="148.5" x="634.5" y="1425.4906">Request.Parser Parser</text><line style="stroke:#A80036;stroke-width:2.0250000000000004;" x1="608.85" x2="834.3" y1="1434.1535" y2="1434.1535"/><polygon fill="#FFFF44" points="622.35,1442.2535,627.75,1447.6535,622.35,1453.0535,616.95,1447.6535" style="stroke:#B38D22;stroke-width:1.35;"/><text fill="#000000" font-family="sans-serif" font-size="14.85" lengthAdjust="spacing" textLength="193.05" x="634.5" y="1454.9691">State(Request.Parser Parser)</text><ellipse cx="622.35" cy="1467.682" fill="#84BE84" rx="4.05" ry="4.05" style="stroke:#038048;stroke-width:1.35;"/><text fill="#000000" font-family="sans-serif" font-size="14.85" font-style="italic" lengthAdjust="spacing" textLength="128.25" x="634.5" y="1473.6476">void handle(byte b)</text><!--MD5=[a2fc373fab115fda23f308f44fb8f6a0]
class model.StringState--><rect codeLine="13" fill="#FEFECE" filter="url(#f12od2r0u2pjc5)" height="139.5141" id="model.StringState" style="stroke:#A80036;stroke-width:2.0250000000000004;" width="265.95" x="530.55" y="1822.5"/><ellipse cx="617.2875" cy="1844.1" fill="#A9DCDF" rx="14.85" ry="14.85" style="stroke:#A80036;stroke-width:1.35;"/><path d="M619.65,1846.125 L615.1992,1846.125 L614.6086,1847.475 L614.6086,1847.475 L615.2414,1847.475 L615.9375,1848.3188 L615.9375,1848.825 L615.9375,1849.3313 L615.2414,1850.175 L614.6086,1850.175 L612.0563,1850.175 L611.2336,1850.175 L610.5375,1849.3313 L610.5375,1848.825 L610.5375,1848.3188 L611.2336,1847.475 L612.0563,1847.475 L615.1781,1839.375 L613.9969,1839.375 L612.5836,1839.375 L611.8875,1838.5313 L611.8875,1838.025 L611.8875,1837.5188 L612.5836,1836.675 L613.9969,1836.675 L618.9539,1836.675 L622.582,1847.475 L623.3414,1847.475 L623.3414,1847.475 L624.0375,1848.3188 L624.0375,1848.825 L624.0375,1849.3313 L623.3414,1850.175 L622.582,1850.175 L620.0297,1850.175 L619.3336,1850.175 L618.6375,1849.3313 L618.6375,1848.825 L618.6375,1848.3188 L619.3336,1847.475 L620.0297,1847.475 L620.0297,1847.475 L619.65,1846.125 Z M618.9117,1843.425 L617.2875,1838.5945 L615.8953,1843.425 L618.9117,1843.425 Z " fill="#000000"/><text fill="#000000" font-family="sans-serif" font-size="16.2" font-style="italic" lengthAdjust="spacing" textLength="81" x="644.9625" y="1850.7287">StringState</text><line style="stroke:#A80036;stroke-width:2.0250000000000004;" x1="531.9" x2="795.15" y1="1865.7" y2="1865.7"/><polygon fill="none" points="545.4,1873.8,550.8,1879.2,545.4,1884.6,540,1879.2" style="stroke:#B38D22;stroke-width:1.35;"/><text fill="#000000" font-family="sans-serif" font-size="14.85" lengthAdjust="spacing" textLength="201.15" x="557.55" y="1886.5156">ByteArrayOutputStream output</text><line style="stroke:#A80036;stroke-width:2.0250000000000004;" x1="531.9" x2="795.15" y1="1895.1785" y2="1895.1785"/><polygon fill="#FFFF44" points="545.4,1903.2785,550.8,1908.6785,545.4,1914.0785,540,1908.6785" style="stroke:#B38D22;stroke-width:1.35;"/><text fill="#000000" font-family="sans-serif" font-size="14.85" lengthAdjust="spacing" textLength="230.85" x="557.55" y="1915.9941">StringState(Request.Parser Parser)</text><polygon fill="#FFFF44" points="545.4,1921.957,550.8,1927.357,545.4,1932.757,540,1927.357" style="stroke:#B38D22;stroke-width:1.35;"/><text fill="#000000" font-family="sans-serif" font-size="14.85" font-style="italic" lengthAdjust="spacing" textLength="187.65" x="557.55" y="1934.6726">void nextState(String output)</text><ellipse cx="545.4" cy="1947.3855" fill="#84BE84" rx="4.05" ry="4.05" style="stroke:#038048;stroke-width:1.35;"/><text fill="#000000" font-family="sans-serif" font-size="14.85" lengthAdjust="spacing" textLength="125.55" x="557.55" y="1953.3511">void handle(byte b)</text><!--MD5=[44ad56bf2df7ed790d16feb1e78b1064]
class model.InitialState--><rect codeLine="19" fill="#FEFECE" filter="url(#f12od2r0u2pjc5)" height="102.157" id="model.InitialState" style="stroke:#A80036;stroke-width:2.0250000000000004;" width="259.2" x="359.775" y="1614.6"/><ellipse cx="445.1625" cy="1636.2" fill="#ADD1B2" rx="14.85" ry="14.85" style="stroke:#A80036;stroke-width:1.35;"/><path d="M447.8625,1631.475 Q448.1367,1630.8 448.4531,1630.4625 Q448.7695,1630.125 449.1281,1630.125 Q449.7609,1630.125 450.1617,1630.5047 Q450.5625,1630.8844 450.5625,1631.7703 L450.5625,1633.8797 Q450.5625,1634.7656 450.1828,1635.1453 Q449.8031,1635.525 449.2125,1635.525 Q448.6852,1635.525 448.3477,1635.293 Q448.0102,1635.0609 447.8625,1634.4492 Q447.7992,1634.0273 447.5672,1633.7953 Q447.1453,1633.3523 446.3859,1633.0992 Q445.6266,1632.825 444.8672,1632.825 Q443.918,1632.825 443.1164,1633.2047 Q442.3359,1633.5844 441.7242,1634.4281 Q441.1125,1635.2719 441.1125,1636.432 L441.1125,1637.6766 Q441.1125,1639.0688 442.2516,1639.9969 Q443.3906,1640.925 445.4156,1640.925 Q446.618,1640.925 447.4617,1640.6508 Q447.9469,1640.5031 448.4953,1640.018 Q448.8539,1639.7438 449.0438,1639.6594 Q449.2336,1639.575 449.4656,1639.575 Q449.9086,1639.575 450.225,1639.9336 Q450.5625,1640.2711 450.5625,1640.7563 Q450.5625,1641.2203 450.0984,1641.7688 Q449.4234,1642.5703 448.3477,1643.0133 Q446.9344,1643.625 445.2047,1643.625 Q443.1797,1643.625 441.5555,1642.8234 Q440.2477,1642.1906 439.3195,1640.8195 Q438.4125,1639.4484 438.4125,1637.8242 L438.4125,1636.3477 Q438.4125,1634.6602 439.2141,1633.1836 Q440.0367,1631.707 441.45,1630.9266 Q442.8844,1630.125 444.4875,1630.125 Q445.4578,1630.125 446.3016,1630.4625 Q447.1453,1630.8 447.8625,1631.475 Z " fill="#000000"/><text fill="#000000" font-family="sans-serif" font-size="16.2" lengthAdjust="spacing" textLength="76.95" x="472.8375" y="1642.8287">InitialState</text><line style="stroke:#A80036;stroke-width:2.0250000000000004;" x1="361.125" x2="617.625" y1="1657.8" y2="1657.8"/><line style="stroke:#A80036;stroke-width:2.0250000000000004;" x1="361.125" x2="617.625" y1="1668.6" y2="1668.6"/><ellipse cx="374.625" cy="1683.45" fill="#84BE84" rx="4.05" ry="4.05" style="stroke:#038048;stroke-width:1.35;"/><text fill="#000000" font-family="sans-serif" font-size="14.85" lengthAdjust="spacing" textLength="224.1" x="386.775" y="1689.4156">InitialState(Request.Parser Parser)</text><ellipse cx="374.625" cy="1702.1285" fill="#84BE84" rx="4.05" ry="4.05" style="stroke:#038048;stroke-width:1.35;"/><text fill="#000000" font-family="sans-serif" font-size="14.85" lengthAdjust="spacing" textLength="125.55" x="386.775" y="1708.0941">void handle(byte b)</text><!--MD5=[4cfda732b32775db04ce2e815a76f1c3]
class model.TypeState--><rect codeLine="23" fill="#FEFECE" filter="url(#f12od2r0u2pjc5)" height="102.157" id="model.TypeState" style="stroke:#A80036;stroke-width:2.0250000000000004;" width="260.55" x="222.75" y="1840.725"/><ellipse cx="310.8375" cy="1862.325" fill="#ADD1B2" rx="14.85" ry="14.85" style="stroke:#A80036;stroke-width:1.35;"/><path d="M313.5375,1857.6 Q313.8117,1856.925 314.1281,1856.5875 Q314.4445,1856.25 314.8031,1856.25 Q315.4359,1856.25 315.8367,1856.6297 Q316.2375,1857.0094 316.2375,1857.8953 L316.2375,1860.0047 Q316.2375,1860.8906 315.8578,1861.2703 Q315.4781,1861.65 314.8875,1861.65 Q314.3602,1861.65 314.0227,1861.418 Q313.6852,1861.1859 313.5375,1860.5742 Q313.4742,1860.1523 313.2422,1859.9203 Q312.8203,1859.4773 312.0609,1859.2242 Q311.3016,1858.95 310.5422,1858.95 Q309.593,1858.95 308.7914,1859.3297 Q308.0109,1859.7094 307.3992,1860.5531 Q306.7875,1861.3969 306.7875,1862.557 L306.7875,1863.8016 Q306.7875,1865.1938 307.9266,1866.1219 Q309.0656,1867.05 311.0906,1867.05 Q312.293,1867.05 313.1367,1866.7758 Q313.6219,1866.6281 314.1703,1866.143 Q314.5289,1865.8688 314.7188,1865.7844 Q314.9086,1865.7 315.1406,1865.7 Q315.5836,1865.7 315.9,1866.0586 Q316.2375,1866.3961 316.2375,1866.8813 Q316.2375,1867.3453 315.7734,1867.8938 Q315.0984,1868.6953 314.0227,1869.1383 Q312.6094,1869.75 310.8797,1869.75 Q308.8547,1869.75 307.2305,1868.9484 Q305.9227,1868.3156 304.9945,1866.9445 Q304.0875,1865.5734 304.0875,1863.9492 L304.0875,1862.4727 Q304.0875,1860.7852 304.8891,1859.3086 Q305.7117,1857.832 307.125,1857.0516 Q308.5594,1856.25 310.1625,1856.25 Q311.1328,1856.25 311.9766,1856.5875 Q312.8203,1856.925 313.5375,1857.6 Z " fill="#000000"/><text fill="#000000" font-family="sans-serif" font-size="16.2" lengthAdjust="spacing" textLength="72.9" x="338.5125" y="1868.9537">TypeState</text><line style="stroke:#A80036;stroke-width:2.0250000000000004;" x1="224.1" x2="481.95" y1="1883.925" y2="1883.925"/><line style="stroke:#A80036;stroke-width:2.0250000000000004;" x1="224.1" x2="481.95" y1="1894.725" y2="1894.725"/><ellipse cx="237.6" cy="1909.575" fill="#84BE84" rx="4.05" ry="4.05" style="stroke:#038048;stroke-width:1.35;"/><text fill="#000000" font-family="sans-serif" font-size="14.85" lengthAdjust="spacing" textLength="225.45" x="249.75" y="1915.5406">TypeState(Request.Parser Parser)</text><ellipse cx="237.6" cy="1928.2535" fill="#84BE84" rx="4.05" ry="4.05" style="stroke:#038048;stroke-width:1.35;"/><text fill="#000000" font-family="sans-serif" font-size="14.85" lengthAdjust="spacing" textLength="125.55" x="249.75" y="1934.2191">void handle(byte b)</text><!--MD5=[4837a687be9a01415f70700c94b7073b]
class model.FilenameState--><rect codeLine="27" fill="#FEFECE" filter="url(#f12od2r0u2pjc5)" height="120.8355" id="model.FilenameState" style="stroke:#A80036;stroke-width:2.0250000000000004;" width="284.85" x="329.4" y="2066.85"/><ellipse cx="412.0875" cy="2088.45" fill="#ADD1B2" rx="14.85" ry="14.85" style="stroke:#A80036;stroke-width:1.35;"/><path d="M414.7875,2083.725 Q415.0617,2083.05 415.3781,2082.7125 Q415.6945,2082.375 416.0531,2082.375 Q416.6859,2082.375 417.0867,2082.7547 Q417.4875,2083.1344 417.4875,2084.0203 L417.4875,2086.1297 Q417.4875,2087.0156 417.1078,2087.3953 Q416.7281,2087.775 416.1375,2087.775 Q415.6102,2087.775 415.2727,2087.543 Q414.9352,2087.3109 414.7875,2086.6992 Q414.7242,2086.2773 414.4922,2086.0453 Q414.0703,2085.6023 413.3109,2085.3492 Q412.5516,2085.075 411.7922,2085.075 Q410.843,2085.075 410.0414,2085.4547 Q409.2609,2085.8344 408.6492,2086.6781 Q408.0375,2087.5219 408.0375,2088.682 L408.0375,2089.9266 Q408.0375,2091.3188 409.1766,2092.2469 Q410.3156,2093.175 412.3406,2093.175 Q413.543,2093.175 414.3867,2092.9008 Q414.8719,2092.7531 415.4203,2092.268 Q415.7789,2091.9938 415.9688,2091.9094 Q416.1586,2091.825 416.3906,2091.825 Q416.8336,2091.825 417.15,2092.1836 Q417.4875,2092.5211 417.4875,2093.0063 Q417.4875,2093.4703 417.0234,2094.0188 Q416.3484,2094.8203 415.2727,2095.2633 Q413.8594,2095.875 412.1297,2095.875 Q410.1047,2095.875 408.4805,2095.0734 Q407.1727,2094.4406 406.2445,2093.0695 Q405.3375,2091.6984 405.3375,2090.0742 L405.3375,2088.5977 Q405.3375,2086.9102 406.1391,2085.4336 Q406.9617,2083.957 408.375,2083.1766 Q409.8094,2082.375 411.4125,2082.375 Q412.3828,2082.375 413.2266,2082.7125 Q414.0703,2083.05 414.7875,2083.725 Z " fill="#000000"/><text fill="#000000" font-family="sans-serif" font-size="16.2" lengthAdjust="spacing" textLength="108" x="439.7625" y="2095.0787">FilenameState</text><line style="stroke:#A80036;stroke-width:2.0250000000000004;" x1="330.75" x2="612.9" y1="2110.05" y2="2110.05"/><line style="stroke:#A80036;stroke-width:2.0250000000000004;" x1="330.75" x2="612.9" y1="2120.85" y2="2120.85"/><ellipse cx="344.25" cy="2135.7" fill="#84BE84" rx="4.05" ry="4.05" style="stroke:#038048;stroke-width:1.35;"/><text fill="#000000" font-family="sans-serif" font-size="14.85" lengthAdjust="spacing" textLength="249.75" x="356.4" y="2141.6656">FilenameState(Request.Parser Parser)</text><polygon fill="#FFFF44" points="344.25,2147.6285,349.65,2153.0285,344.25,2158.4285,338.85,2153.0285" style="stroke:#B38D22;stroke-width:1.35;"/><text fill="#000000" font-family="sans-serif" font-size="14.85" lengthAdjust="spacing" textLength="186.3" x="356.4" y="2160.3441">void nextState(String output)</text><ellipse cx="344.25" cy="2173.057" fill="#84BE84" rx="4.05" ry="4.05" style="stroke:#038048;stroke-width:1.35;"/><text fill="#000000" font-family="sans-serif" font-size="14.85" lengthAdjust="spacing" textLength="125.55" x="356.4" y="2179.0226">void handle(byte b)</text><!--MD5=[f5063ce81b3174903ac08349b20a7dc3]
class model.ModeState--><rect codeLine="32" fill="#FEFECE" filter="url(#f12od2r0u2pjc5)" height="120.8355" id="model.ModeState" style="stroke:#A80036;stroke-width:2.0250000000000004;" width="263.25" x="531.9" y="2293.65"/><ellipse cx="618.6375" cy="2315.25" fill="#ADD1B2" rx="14.85" ry="14.85" style="stroke:#A80036;stroke-width:1.35;"/><path d="M621.3375,2310.525 Q621.6117,2309.85 621.9281,2309.5125 Q622.2445,2309.175 622.6031,2309.175 Q623.2359,2309.175 623.6367,2309.5547 Q624.0375,2309.9344 624.0375,2310.8203 L624.0375,2312.9297 Q624.0375,2313.8156 623.6578,2314.1953 Q623.2781,2314.575 622.6875,2314.575 Q622.1602,2314.575 621.8227,2314.343 Q621.4852,2314.1109 621.3375,2313.4992 Q621.2742,2313.0773 621.0422,2312.8453 Q620.6203,2312.4023 619.8609,2312.1492 Q619.1016,2311.875 618.3422,2311.875 Q617.393,2311.875 616.5914,2312.2547 Q615.8109,2312.6344 615.1992,2313.4781 Q614.5875,2314.3219 614.5875,2315.482 L614.5875,2316.7266 Q614.5875,2318.1188 615.7266,2319.0469 Q616.8656,2319.975 618.8906,2319.975 Q620.093,2319.975 620.9367,2319.7008 Q621.4219,2319.5531 621.9703,2319.068 Q622.3289,2318.7938 622.5188,2318.7094 Q622.7086,2318.625 622.9406,2318.625 Q623.3836,2318.625 623.7,2318.9836 Q624.0375,2319.3211 624.0375,2319.8063 Q624.0375,2320.2703 623.5734,2320.8188 Q622.8984,2321.6203 621.8227,2322.0633 Q620.4094,2322.675 618.6797,2322.675 Q616.6547,2322.675 615.0305,2321.8734 Q613.7227,2321.2406 612.7945,2319.8695 Q611.8875,2318.4984 611.8875,2316.8742 L611.8875,2315.3977 Q611.8875,2313.7102 612.6891,2312.2336 Q613.5117,2310.757 614.925,2309.9766 Q616.3594,2309.175 617.9625,2309.175 Q618.9328,2309.175 619.7766,2309.5125 Q620.6203,2309.85 621.3375,2310.525 Z " fill="#000000"/><text fill="#000000" font-family="sans-serif" font-size="16.2" lengthAdjust="spacing" textLength="78.3" x="646.3125" y="2321.8787">ModeState</text><line style="stroke:#A80036;stroke-width:2.0250000000000004;" x1="533.25" x2="793.8" y1="2336.85" y2="2336.85"/><line style="stroke:#A80036;stroke-width:2.0250000000000004;" x1="533.25" x2="793.8" y1="2347.65" y2="2347.65"/><ellipse cx="546.75" cy="2362.5" fill="#84BE84" rx="4.05" ry="4.05" style="stroke:#038048;stroke-width:1.35;"/><text fill="#000000" font-family="sans-serif" font-size="14.85" lengthAdjust="spacing" textLength="228.15" x="558.9" y="2368.4656">ModeState(Request.Parser Parser)</text><polygon fill="#FFFF44" points="546.75,2374.4285,552.15,2379.8285,546.75,2385.2285,541.35,2379.8285" style="stroke:#B38D22;stroke-width:1.35;"/><text fill="#000000" font-family="sans-serif" font-size="14.85" lengthAdjust="spacing" textLength="186.3" x="558.9" y="2387.1441">void nextState(String output)</text><ellipse cx="546.75" cy="2399.857" fill="#84BE84" rx="4.05" ry="4.05" style="stroke:#038048;stroke-width:1.35;"/><text fill="#000000" font-family="sans-serif" font-size="14.85" lengthAdjust="spacing" textLength="125.55" x="558.9" y="2405.8226">void handle(byte b)</text><!--MD5=[c68c99e2aac25a5a086c199907b4702c]
class model.EndState--><rect codeLine="37" fill="#FEFECE" filter="url(#f12od2r0u2pjc5)" height="102.157" id="model.EndState" style="stroke:#A80036;stroke-width:2.0250000000000004;" width="252.45" x="565.65" y="2520.45"/><ellipse cx="652.3875" cy="2542.05" fill="#ADD1B2" rx="14.85" ry="14.85" style="stroke:#A80036;stroke-width:1.35;"/><path d="M655.0875,2537.325 Q655.3617,2536.65 655.6781,2536.3125 Q655.9945,2535.975 656.3531,2535.975 Q656.9859,2535.975 657.3867,2536.3547 Q657.7875,2536.7344 657.7875,2537.6203 L657.7875,2539.7297 Q657.7875,2540.6156 657.4078,2540.9953 Q657.0281,2541.375 656.4375,2541.375 Q655.9102,2541.375 655.5727,2541.143 Q655.2352,2540.9109 655.0875,2540.2992 Q655.0242,2539.8773 654.7922,2539.6453 Q654.3703,2539.2023 653.6109,2538.9492 Q652.8516,2538.675 652.0922,2538.675 Q651.143,2538.675 650.3414,2539.0547 Q649.5609,2539.4344 648.9492,2540.2781 Q648.3375,2541.1219 648.3375,2542.282 L648.3375,2543.5266 Q648.3375,2544.9188 649.4766,2545.8469 Q650.6156,2546.775 652.6406,2546.775 Q653.843,2546.775 654.6867,2546.5008 Q655.1719,2546.3531 655.7203,2545.868 Q656.0789,2545.5938 656.2688,2545.5094 Q656.4586,2545.425 656.6906,2545.425 Q657.1336,2545.425 657.45,2545.7836 Q657.7875,2546.1211 657.7875,2546.6063 Q657.7875,2547.0703 657.3234,2547.6188 Q656.6484,2548.4203 655.5727,2548.8633 Q654.1594,2549.475 652.4297,2549.475 Q650.4047,2549.475 648.7805,2548.6734 Q647.4727,2548.0406 646.5445,2546.6695 Q645.6375,2545.2984 645.6375,2543.6742 L645.6375,2542.1977 Q645.6375,2540.5102 646.4391,2539.0336 Q647.2617,2537.557 648.675,2536.7766 Q650.1094,2535.975 651.7125,2535.975 Q652.6828,2535.975 653.5266,2536.3125 Q654.3703,2536.65 655.0875,2537.325 Z " fill="#000000"/><text fill="#000000" font-family="sans-serif" font-size="16.2" lengthAdjust="spacing" textLength="67.5" x="680.0625" y="2548.6787">EndState</text><line style="stroke:#A80036;stroke-width:2.0250000000000004;" x1="567" x2="816.75" y1="2563.65" y2="2563.65"/><line style="stroke:#A80036;stroke-width:2.0250000000000004;" x1="567" x2="816.75" y1="2574.45" y2="2574.45"/><ellipse cx="580.5" cy="2589.3" fill="#84BE84" rx="4.05" ry="4.05" style="stroke:#038048;stroke-width:1.35;"/><text fill="#000000" font-family="sans-serif" font-size="14.85" lengthAdjust="spacing" textLength="217.35" x="592.65" y="2595.2656">EndState(Request.Parser Parser)</text><ellipse cx="580.5" cy="2607.9785" fill="#84BE84" rx="4.05" ry="4.05" style="stroke:#038048;stroke-width:1.35;"/><text fill="#000000" font-family="sans-serif" font-size="14.85" lengthAdjust="spacing" textLength="125.55" x="592.65" y="2613.9441">void handle(byte b)</text><!--MD5=[56289b86346904abf9bb103a77220af2]
class model.Request.Parser--><rect codeLine="57" fill="#FEFECE" filter="url(#f12od2r0u2pjc5)" height="270.2637" id="model.Request.Parser" style="stroke:#A80036;stroke-width:2.0250000000000004;" width="249.75" x="596.7" y="932.85"/><ellipse cx="657.1125" cy="954.45" fill="#ADD1B2" rx="14.85" ry="14.85" style="stroke:#A80036;stroke-width:1.35;"/><path d="M659.8125,949.725 Q660.0867,949.05 660.4031,948.7125 Q660.7195,948.375 661.0781,948.375 Q661.7109,948.375 662.1117,948.7547 Q662.5125,949.1344 662.5125,950.0203 L662.5125,952.1297 Q662.5125,953.0156 662.1328,953.3953 Q661.7531,953.775 661.1625,953.775 Q660.6352,953.775 660.2977,953.543 Q659.9602,953.3109 659.8125,952.6992 Q659.7492,952.2773 659.5172,952.0453 Q659.0953,951.6023 658.3359,951.3492 Q657.5766,951.075 656.8172,951.075 Q655.868,951.075 655.0664,951.4547 Q654.2859,951.8344 653.6742,952.6781 Q653.0625,953.5219 653.0625,954.682 L653.0625,955.9266 Q653.0625,957.3188 654.2016,958.2469 Q655.3406,959.175 657.3656,959.175 Q658.568,959.175 659.4117,958.9008 Q659.8969,958.7531 660.4453,958.268 Q660.8039,957.9938 660.9938,957.9094 Q661.1836,957.825 661.4156,957.825 Q661.8586,957.825 662.175,958.1836 Q662.5125,958.5211 662.5125,959.0063 Q662.5125,959.4703 662.0484,960.0188 Q661.3734,960.8203 660.2977,961.2633 Q658.8844,961.875 657.1547,961.875 Q655.1297,961.875 653.5055,961.0734 Q652.1977,960.4406 651.2695,959.0695 Q650.3625,957.6984 650.3625,956.0742 L650.3625,954.5977 Q650.3625,952.9102 651.1641,951.4336 Q651.9867,949.957 653.4,949.1766 Q654.8344,948.375 656.4375,948.375 Q657.4078,948.375 658.2516,948.7125 Q659.0953,949.05 659.8125,949.725 Z " fill="#000000"/><text fill="#000000" font-family="sans-serif" font-size="16.2" lengthAdjust="spacing" textLength="117.45" x="684.7875" y="961.0787">Request.Parser</text><line style="stroke:#A80036;stroke-width:2.0250000000000004;" x1="598.05" x2="845.1" y1="976.05" y2="976.05"/><rect fill="none" height="8.1" style="stroke:#C82930;stroke-width:1.35;" width="8.1" x="607.5" y="986.85"/><text fill="#000000" font-family="sans-serif" font-size="14.85" lengthAdjust="spacing" textLength="85.05" x="623.7" y="996.8656">boolean read</text><rect fill="none" height="8.1" style="stroke:#C82930;stroke-width:1.35;" width="8.1" x="607.5" y="1005.5285"/><text fill="#000000" font-family="sans-serif" font-size="14.85" lengthAdjust="spacing" textLength="95.85" x="623.7" y="1015.5441">String filename</text><rect fill="none" height="8.1" style="stroke:#C82930;stroke-width:1.35;" width="8.1" x="607.5" y="1024.207"/><text fill="#000000" font-family="sans-serif" font-size="14.85" lengthAdjust="spacing" textLength="76.95" x="623.7" y="1034.2226">String mode</text><rect fill="none" height="8.1" style="stroke:#C82930;stroke-width:1.35;" width="8.1" x="607.5" y="1042.8855"/><text fill="#000000" font-family="sans-serif" font-size="14.85" lengthAdjust="spacing" textLength="70.2" x="623.7" y="1052.9011">State state</text><line style="stroke:#A80036;stroke-width:2.0250000000000004;" x1="598.05" x2="845.1" y1="1061.5641" y2="1061.5641"/><ellipse cx="611.55" cy="1076.4141" fill="#84BE84" rx="4.05" ry="4.05" style="stroke:#038048;stroke-width:1.35;"/><text fill="#000000" font-family="sans-serif" font-size="14.85" lengthAdjust="spacing" textLength="54" x="623.7" y="1082.3796">Parser()</text><ellipse cx="611.55" cy="1095.0926" fill="#84BE84" rx="4.05" ry="4.05" style="stroke:#038048;stroke-width:1.35;"/><text fill="#000000" font-family="sans-serif" font-size="14.85" lengthAdjust="spacing" textLength="180.9" x="623.7" y="1101.0582">void setRead(boolean read)</text><ellipse cx="611.55" cy="1113.7711" fill="#84BE84" rx="4.05" ry="4.05" style="stroke:#038048;stroke-width:1.35;"/><text fill="#000000" font-family="sans-serif" font-size="14.85" lengthAdjust="spacing" textLength="214.65" x="623.7" y="1119.7367">void setFilename(String filename)</text><ellipse cx="611.55" cy="1132.4496" fill="#84BE84" rx="4.05" ry="4.05" style="stroke:#038048;stroke-width:1.35;"/><text fill="#000000" font-family="sans-serif" font-size="14.85" lengthAdjust="spacing" textLength="174.15" x="623.7" y="1138.4152">void setMode(String mode)</text><ellipse cx="611.55" cy="1151.1281" fill="#84BE84" rx="4.05" ry="4.05" style="stroke:#038048;stroke-width:1.35;"/><text fill="#000000" font-family="sans-serif" font-size="14.85" lengthAdjust="spacing" textLength="98.55" x="623.7" y="1157.0937">Request build()</text><ellipse cx="611.55" cy="1169.8066" fill="#84BE84" rx="4.05" ry="4.05" style="stroke:#038048;stroke-width:1.35;"/><text fill="#000000" font-family="sans-serif" font-size="14.85" lengthAdjust="spacing" textLength="102.6" x="623.7" y="1175.7722">State getState()</text><ellipse cx="611.55" cy="1188.4852" fill="#84BE84" rx="4.05" ry="4.05" style="stroke:#038048;stroke-width:1.35;"/><text fill="#000000" font-family="sans-serif" font-size="14.85" lengthAdjust="spacing" textLength="166.05" x="623.7" y="1194.4507">void setState(State state)</text><!--MD5=[a813df4c85b388216b83cdbb1b1c209c]
class util.Config--><rect codeLine="1" fill="#FEFECE" filter="url(#f12od2r0u2pjc5)" height="176.8711" id="util.Config" style="stroke:#A80036;stroke-width:2.0250000000000004;" width="252.45" x="1217.7" y="594.675"/><ellipse cx="1313.8875" cy="616.275" fill="#ADD1B2" rx="14.85" ry="14.85" style="stroke:#A80036;stroke-width:1.35;"/><path d="M1316.5875,611.55 Q1316.8617,610.875 1317.1781,610.5375 Q1317.4945,610.2 1317.8531,610.2 Q1318.4859,610.2 1318.8867,610.5797 Q1319.2875,610.9594 1319.2875,611.8453 L1319.2875,613.9547 Q1319.2875,614.8406 1318.9078,615.2203 Q1318.5281,615.6 1317.9375,615.6 Q1317.4102,615.6 1317.0727,615.368 Q1316.7352,615.1359 1316.5875,614.5242 Q1316.5242,614.1023 1316.2922,613.8703 Q1315.8703,613.4273 1315.1109,613.1742 Q1314.3516,612.9 1313.5922,612.9 Q1312.643,612.9 1311.8414,613.2797 Q1311.0609,613.6594 1310.4492,614.5031 Q1309.8375,615.3469 1309.8375,616.507 L1309.8375,617.7516 Q1309.8375,619.1438 1310.9766,620.0719 Q1312.1156,621 1314.1406,621 Q1315.343,621 1316.1867,620.7258 Q1316.6719,620.5781 1317.2203,620.093 Q1317.5789,619.8188 1317.7688,619.7344 Q1317.9586,619.65 1318.1906,619.65 Q1318.6336,619.65 1318.95,620.0086 Q1319.2875,620.3461 1319.2875,620.8313 Q1319.2875,621.2953 1318.8234,621.8438 Q1318.1484,622.6453 1317.0727,623.0883 Q1315.6594,623.7 1313.9297,623.7 Q1311.9047,623.7 1310.2805,622.8984 Q1308.9727,622.2656 1308.0445,620.8945 Q1307.1375,619.5234 1307.1375,617.8992 L1307.1375,616.4227 Q1307.1375,614.7352 1307.9391,613.2586 Q1308.7617,611.782 1310.175,611.0016 Q1311.6094,610.2 1313.2125,610.2 Q1314.1828,610.2 1315.0266,610.5375 Q1315.8703,610.875 1316.5875,611.55 Z " fill="#000000"/><text fill="#000000" font-family="sans-serif" font-size="16.2" lengthAdjust="spacing" textLength="48.6" x="1341.5625" y="622.9037">Config</text><line style="stroke:#A80036;stroke-width:2.0250000000000004;" x1="1219.05" x2="1468.8" y1="637.875" y2="637.875"/><rect fill="none" height="8.1" style="stroke:#C82930;stroke-width:1.35;" width="8.1" x="1228.5" y="648.675"/><text fill="#000000" font-family="sans-serif" font-size="14.85" lengthAdjust="spacing" text-decoration="underline" textLength="175.5" x="1244.7" y="658.6906">String CONFIG_FILE_NAME</text><rect fill="none" height="8.1" style="stroke:#C82930;stroke-width:1.35;" width="8.1" x="1228.5" y="667.3535"/><text fill="#000000" font-family="sans-serif" font-size="14.85" lengthAdjust="spacing" textLength="136.35" x="1244.7" y="677.3691">Properties properties</text><line style="stroke:#A80036;stroke-width:2.0250000000000004;" x1="1219.05" x2="1468.8" y1="686.032" y2="686.032"/><ellipse cx="1232.55" cy="700.882" fill="#84BE84" rx="4.05" ry="4.05" style="stroke:#038048;stroke-width:1.35;"/><text fill="#000000" font-family="sans-serif" font-size="14.85" lengthAdjust="spacing" textLength="52.65" x="1244.7" y="706.8476">Config()</text><ellipse cx="1232.55" cy="719.5605" fill="#84BE84" rx="4.05" ry="4.05" style="stroke:#038048;stroke-width:1.35;"/><text fill="#000000" font-family="sans-serif" font-size="14.85" lengthAdjust="spacing" textLength="193.05" x="1244.7" y="725.5261">String getProperty(String key)</text><ellipse cx="1232.55" cy="738.2391" fill="#84BE84" rx="4.05" ry="4.05" style="stroke:#038048;stroke-width:1.35;"/><text fill="#000000" font-family="sans-serif" font-size="14.85" lengthAdjust="spacing" textLength="184.95" x="1244.7" y="744.2046">int getIntProperty(String key)</text><ellipse cx="1232.55" cy="756.9176" fill="#84BE84" rx="4.05" ry="4.05" style="stroke:#038048;stroke-width:1.35;"/><text fill="#000000" font-family="sans-serif" font-size="14.85" lengthAdjust="spacing" textLength="217.35" x="1244.7" y="762.8832">Float getFloatProperty(String key)</text><!--MD5=[7352e6cfda6766d671b3da7f220b926d]
class stub.StubClient--><rect codeLine="3" fill="#FEFECE" filter="url(#f12od2r0u2pjc5)" height="214.2281" id="stub.StubClient" style="stroke:#A80036;stroke-width:2.0250000000000004;" width="738.45" x="1189.35" y="1314.9"/><ellipse cx="1513.6875" cy="1336.5" fill="#A9DCDF" rx="14.85" ry="14.85" style="stroke:#A80036;stroke-width:1.35;"/><path d="M1516.05,1338.525 L1511.5992,1338.525 L1511.0086,1339.875 L1511.0086,1339.875 L1511.6414,1339.875 L1512.3375,1340.7188 L1512.3375,1341.225 L1512.3375,1341.7313 L1511.6414,1342.575 L1511.0086,1342.575 L1508.4563,1342.575 L1507.6336,1342.575 L1506.9375,1341.7313 L1506.9375,1341.225 L1506.9375,1340.7188 L1507.6336,1339.875 L1508.4563,1339.875 L1511.5781,1331.775 L1510.3969,1331.775 L1508.9836,1331.775 L1508.2875,1330.9313 L1508.2875,1330.425 L1508.2875,1329.9188 L1508.9836,1329.075 L1510.3969,1329.075 L1515.3539,1329.075 L1518.982,1339.875 L1519.7414,1339.875 L1519.7414,1339.875 L1520.4375,1340.7188 L1520.4375,1341.225 L1520.4375,1341.7313 L1519.7414,1342.575 L1518.982,1342.575 L1516.4297,1342.575 L1515.7336,1342.575 L1515.0375,1341.7313 L1515.0375,1341.225 L1515.0375,1340.7188 L1515.7336,1339.875 L1516.4297,1339.875 L1516.4297,1339.875 L1516.05,1338.525 Z M1515.3117,1335.825 L1513.6875,1330.9945 L1512.2953,1335.825 L1515.3117,1335.825 Z " fill="#000000"/><text fill="#000000" font-family="sans-serif" font-size="16.2" font-style="italic" lengthAdjust="spacing" textLength="78.3" x="1541.3625" y="1343.1287">StubClient</text><line style="stroke:#A80036;stroke-width:2.0250000000000004;" x1="1190.7" x2="1926.45" y1="1358.1" y2="1358.1"/><polygon fill="none" points="1204.2,1366.2,1209.6,1371.6,1204.2,1377,1198.8,1371.6" style="stroke:#B38D22;stroke-width:1.35;"/><text fill="#000000" font-family="sans-serif" font-size="14.85" lengthAdjust="spacing" textLength="86.4" x="1216.35" y="1378.9156">Config config</text><line style="stroke:#A80036;stroke-width:2.0250000000000004;" x1="1190.7" x2="1926.45" y1="1387.5785" y2="1387.5785"/><polygon fill="#FFFF44" points="1204.2,1395.6785,1209.6,1401.0785,1204.2,1406.4785,1198.8,1401.0785" style="stroke:#B38D22;stroke-width:1.35;"/><text fill="#000000" font-family="sans-serif" font-size="14.85" lengthAdjust="spacing" textLength="162" x="1216.35" y="1408.3941">StubClient(Config config)</text><polygon fill="#FFFF44" points="1204.2,1414.357,1209.6,1419.757,1204.2,1425.157,1198.8,1419.757" style="stroke:#B38D22;stroke-width:1.35;"/><text fill="#000000" font-family="sans-serif" font-size="14.85" lengthAdjust="spacing" textLength="508.95" x="1216.35" y="1427.0726">&lt;T&gt; T sendAndReceive(int functionNumber, InetAddress inetAddress, int port)</text><polygon fill="#FFFF44" points="1204.2,1433.0355,1209.6,1438.4355,1204.2,1443.8355,1198.8,1438.4355" style="stroke:#B38D22;stroke-width:1.35;"/><text fill="#000000" font-family="sans-serif" font-size="14.85" lengthAdjust="spacing" textLength="656.1" x="1216.35" y="1445.7511">&lt;T&gt; T sendAndReceive(int functionNumber, Serializable argument, InetAddress inetAddress, int port)</text><polygon fill="#FFFF44" points="1204.2,1451.7141,1209.6,1457.1141,1204.2,1462.5141,1198.8,1457.1141" style="stroke:#B38D22;stroke-width:1.35;"/><text fill="#000000" font-family="sans-serif" font-size="14.85" lengthAdjust="spacing" textLength="703.35" x="1216.35" y="1464.4296">&lt;T&gt; T sendAndReceive(int functionNumber, List&lt;Serializable&gt; arguments, InetAddress inetAddress, int port)</text><polygon fill="#FFFF44" points="1204.2,1470.3926,1209.6,1475.7926,1204.2,1481.1926,1198.8,1475.7926" style="stroke:#B38D22;stroke-width:1.35;"/><text fill="#000000" font-family="sans-serif" font-size="14.85" lengthAdjust="spacing" textLength="676.35" x="1216.35" y="1483.1082">&lt;T&gt; T sendAndReceive(StubRequestMessage stubRequestMessage, InetAddress inetAddress, int port)</text><polygon fill="#FFFF44" points="1204.2,1489.0711,1209.6,1494.4711,1204.2,1499.8711,1198.8,1494.4711" style="stroke:#B38D22;stroke-width:1.35;"/><text fill="#000000" font-family="sans-serif" font-size="14.85" lengthAdjust="spacing" textLength="456.3" x="1216.35" y="1501.7867">byte[] sendAndReceive(byte[] data, InetAddress inetAddress, int port)</text><polygon fill="#FFFF44" points="1204.2,1507.7496,1209.6,1513.1496,1204.2,1518.5496,1198.8,1513.1496" style="stroke:#B38D22;stroke-width:1.35;"/><text fill="#000000" font-family="sans-serif" font-size="14.85" lengthAdjust="spacing" textLength="680.4" x="1216.35" y="1520.4652">byte[] sendAndReceive(DatagramSocket datagramSocket, byte[] data, InetAddress inetAddress, int port)</text><!--MD5=[f637e7567e5dbc0f92738005a8bede1c]
class stub.intermediate.ClientSide--><rect codeLine="9" fill="#FEFECE" filter="url(#f12od2r0u2pjc5)" height="120.8355" id="stub.intermediate.ClientSide" style="stroke:#A80036;stroke-width:2.0250000000000004;" width="419.85" x="923.4" y="1007.1"/><ellipse cx="1089.1125" cy="1028.7" fill="#ADD1B2" rx="14.85" ry="14.85" style="stroke:#A80036;stroke-width:1.35;"/><path d="M1091.8125,1023.975 Q1092.0867,1023.3 1092.4031,1022.9625 Q1092.7195,1022.625 1093.0781,1022.625 Q1093.7109,1022.625 1094.1117,1023.0047 Q1094.5125,1023.3844 1094.5125,1024.2703 L1094.5125,1026.3797 Q1094.5125,1027.2656 1094.1328,1027.6453 Q1093.7531,1028.025 1093.1625,1028.025 Q1092.6352,1028.025 1092.2977,1027.793 Q1091.9602,1027.5609 1091.8125,1026.9492 Q1091.7492,1026.5273 1091.5172,1026.2953 Q1091.0953,1025.8523 1090.3359,1025.5992 Q1089.5766,1025.325 1088.8172,1025.325 Q1087.868,1025.325 1087.0664,1025.7047 Q1086.2859,1026.0844 1085.6742,1026.9281 Q1085.0625,1027.7719 1085.0625,1028.932 L1085.0625,1030.1766 Q1085.0625,1031.5688 1086.2016,1032.4969 Q1087.3406,1033.425 1089.3656,1033.425 Q1090.568,1033.425 1091.4117,1033.1508 Q1091.8969,1033.0031 1092.4453,1032.518 Q1092.8039,1032.2438 1092.9938,1032.1594 Q1093.1836,1032.075 1093.4156,1032.075 Q1093.8586,1032.075 1094.175,1032.4336 Q1094.5125,1032.7711 1094.5125,1033.2563 Q1094.5125,1033.7203 1094.0484,1034.2688 Q1093.3734,1035.0703 1092.2977,1035.5133 Q1090.8844,1036.125 1089.1547,1036.125 Q1087.1297,1036.125 1085.5055,1035.3234 Q1084.1977,1034.6906 1083.2695,1033.3195 Q1082.3625,1031.9484 1082.3625,1030.3242 L1082.3625,1028.8477 Q1082.3625,1027.1602 1083.1641,1025.6836 Q1083.9867,1024.207 1085.4,1023.4266 Q1086.8344,1022.625 1088.4375,1022.625 Q1089.4078,1022.625 1090.2516,1022.9625 Q1091.0953,1023.3 1091.8125,1023.975 Z " fill="#000000"/><text fill="#000000" font-family="sans-serif" font-size="16.2" lengthAdjust="spacing" textLength="76.95" x="1116.7875" y="1035.3287">ClientSide</text><line style="stroke:#A80036;stroke-width:2.0250000000000004;" x1="924.75" x2="1341.9" y1="1050.3" y2="1050.3"/><rect fill="none" height="8.1" style="stroke:#C82930;stroke-width:1.35;" width="8.1" x="934.2" y="1061.1"/><text fill="#000000" font-family="sans-serif" font-size="14.85" lengthAdjust="spacing" textLength="163.35" x="950.4" y="1071.1156">InetAddress inetAddress</text><rect fill="none" height="8.1" style="stroke:#C82930;stroke-width:1.35;" width="8.1" x="934.2" y="1079.7785"/><text fill="#000000" font-family="sans-serif" font-size="14.85" lengthAdjust="spacing" textLength="44.55" x="950.4" y="1089.7941">int port</text><line style="stroke:#A80036;stroke-width:2.0250000000000004;" x1="924.75" x2="1341.9" y1="1098.457" y2="1098.457"/><ellipse cx="938.25" cy="1113.307" fill="#84BE84" rx="4.05" ry="4.05" style="stroke:#038048;stroke-width:1.35;"/><text fill="#000000" font-family="sans-serif" font-size="14.85" lengthAdjust="spacing" textLength="384.75" x="950.4" y="1119.2726">ClientSide(Config config, InetAddress inetAddress, int port)</text><!--MD5=[e5ca9bdc03ec2e514bd7e850f175b0ff]
class actor.Client--><rect codeLine="18" fill="#FEFECE" filter="url(#f12od2r0u2pjc5)" height="214.2281" id="actor.Client" style="stroke:#A80036;stroke-width:2.0250000000000004;" width="510.3" x="482.625" y="186.3"/><ellipse cx="710.4375" cy="207.9" fill="#ADD1B2" rx="14.85" ry="14.85" style="stroke:#A80036;stroke-width:1.35;"/><path d="M713.1375,203.175 Q713.4117,202.5 713.7281,202.1625 Q714.0445,201.825 714.4031,201.825 Q715.0359,201.825 715.4367,202.2047 Q715.8375,202.5844 715.8375,203.4703 L715.8375,205.5797 Q715.8375,206.4656 715.4578,206.8453 Q715.0781,207.225 714.4875,207.225 Q713.9602,207.225 713.6227,206.993 Q713.2852,206.7609 713.1375,206.1492 Q713.0742,205.7273 712.8422,205.4953 Q712.4203,205.0523 711.6609,204.7992 Q710.9016,204.525 710.1422,204.525 Q709.193,204.525 708.3914,204.9047 Q707.6109,205.2844 706.9992,206.1281 Q706.3875,206.9719 706.3875,208.132 L706.3875,209.3766 Q706.3875,210.7688 707.5266,211.6969 Q708.6656,212.625 710.6906,212.625 Q711.893,212.625 712.7367,212.3508 Q713.2219,212.2031 713.7703,211.718 Q714.1289,211.4438 714.3188,211.3594 Q714.5086,211.275 714.7406,211.275 Q715.1836,211.275 715.5,211.6336 Q715.8375,211.9711 715.8375,212.4563 Q715.8375,212.9203 715.3734,213.4688 Q714.6984,214.2703 713.6227,214.7133 Q712.2094,215.325 710.4797,215.325 Q708.4547,215.325 706.8305,214.5234 Q705.5227,213.8906 704.5945,212.5195 Q703.6875,211.1484 703.6875,209.5242 L703.6875,208.0477 Q703.6875,206.3602 704.4891,204.8836 Q705.3117,203.407 706.725,202.6266 Q708.1594,201.825 709.7625,201.825 Q710.7328,201.825 711.5766,202.1625 Q712.4203,202.5 713.1375,203.175 Z " fill="#000000"/><text fill="#000000" font-family="sans-serif" font-size="16.2" lengthAdjust="spacing" textLength="43.2" x="738.1125" y="214.5287">Client</text><line style="stroke:#A80036;stroke-width:2.0250000000000004;" x1="483.975" x2="991.575" y1="229.5" y2="229.5"/><rect fill="none" height="8.1" style="stroke:#C82930;stroke-width:1.35;" width="8.1" x="493.425" y="240.3"/><text fill="#000000" font-family="sans-serif" font-size="14.85" lengthAdjust="spacing" textLength="90.45" x="509.625" y="250.3156">Logger logger</text><rect fill="none" height="8.1" style="stroke:#C82930;stroke-width:1.35;" width="8.1" x="493.425" y="258.9785"/><text fill="#000000" font-family="sans-serif" font-size="14.85" lengthAdjust="spacing" textLength="175.5" x="509.625" y="268.9941">Queue&lt;Request&gt; requests</text><rect fill="none" height="8.1" style="stroke:#C82930;stroke-width:1.35;" width="8.1" x="493.425" y="277.657"/><text fill="#000000" font-family="sans-serif" font-size="14.85" lengthAdjust="spacing" textLength="151.2" x="509.625" y="287.6726">ClientSideApi clientSide</text><rect fill="none" height="8.1" style="stroke:#C82930;stroke-width:1.35;" width="8.1" x="493.425" y="296.3355"/><text fill="#000000" font-family="sans-serif" font-size="14.85" lengthAdjust="spacing" textLength="86.4" x="509.625" y="306.3511">Config config</text><line style="stroke:#A80036;stroke-width:2.0250000000000004;" x1="483.975" x2="991.575" y1="315.0141" y2="315.0141"/><ellipse cx="497.475" cy="329.8641" fill="#84BE84" rx="4.05" ry="4.05" style="stroke:#038048;stroke-width:1.35;"/><text fill="#000000" font-family="sans-serif" font-size="14.85" lengthAdjust="spacing" textLength="475.2" x="509.625" y="335.8296">Client(Config config, ClientSideApi clientSide, Queue&lt;Request&gt; requests)</text><ellipse cx="497.475" cy="348.5426" fill="#84BE84" rx="4.05" ry="4.05" style="stroke:#038048;stroke-width:1.35;"/><text fill="#000000" font-family="sans-serif" font-size="14.85" lengthAdjust="spacing" textLength="291.6" x="509.625" y="354.5082">Client(Config config, ClientSideApi clientSide)</text><ellipse cx="497.475" cy="367.2211" fill="#84BE84" rx="4.05" ry="4.05" style="stroke:#038048;stroke-width:1.35;"/><text fill="#000000" font-family="sans-serif" font-size="14.85" lengthAdjust="spacing" text-decoration="underline" textLength="256.5" x="509.625" y="373.1867">Queue&lt;Request&gt; getDefaultRequests()</text><ellipse cx="497.475" cy="385.8996" fill="#84BE84" rx="4.05" ry="4.05" style="stroke:#038048;stroke-width:1.35;"/><text fill="#000000" font-family="sans-serif" font-size="14.85" lengthAdjust="spacing" textLength="151.2" x="509.625" y="391.8652">void main(String[] args)</text><!--MD5=[5689ca287c7aea90fda97069f53aa21d]
class InetAddress--><rect fill="#FEFECE" filter="url(#f12od2r0u2pjc5)" height="64.8" id="InetAddress" style="stroke:#A80036;stroke-width:2.0250000000000004;" width="132.3" x="1009.125" y="1389.825"/><ellipse cx="1029.375" cy="1411.425" fill="#ADD1B2" rx="14.85" ry="14.85" style="stroke:#A80036;stroke-width:1.35;"/><path d="M1032.075,1406.7 Q1032.3492,1406.025 1032.6656,1405.6875 Q1032.982,1405.35 1033.3406,1405.35 Q1033.9734,1405.35 1034.3742,1405.7297 Q1034.775,1406.1094 1034.775,1406.9953 L1034.775,1409.1047 Q1034.775,1409.9906 1034.3953,1410.3703 Q1034.0156,1410.75 1033.425,1410.75 Q1032.8977,1410.75 1032.5602,1410.518 Q1032.2227,1410.2859 1032.075,1409.6742 Q1032.0117,1409.2523 1031.7797,1409.0203 Q1031.3578,1408.5773 1030.5984,1408.3242 Q1029.8391,1408.05 1029.0797,1408.05 Q1028.1305,1408.05 1027.3289,1408.4297 Q1026.5484,1408.8094 1025.9367,1409.6531 Q1025.325,1410.4969 1025.325,1411.657 L1025.325,1412.9016 Q1025.325,1414.2938 1026.4641,1415.2219 Q1027.6031,1416.15 1029.6281,1416.15 Q1030.8305,1416.15 1031.6742,1415.8758 Q1032.1594,1415.7281 1032.7078,1415.243 Q1033.0664,1414.9688 1033.2563,1414.8844 Q1033.4461,1414.8 1033.6781,1414.8 Q1034.1211,1414.8 1034.4375,1415.1586 Q1034.775,1415.4961 1034.775,1415.9813 Q1034.775,1416.4453 1034.3109,1416.9938 Q1033.6359,1417.7953 1032.5602,1418.2383 Q1031.1469,1418.85 1029.4172,1418.85 Q1027.3922,1418.85 1025.768,1418.0484 Q1024.4602,1417.4156 1023.532,1416.0445 Q1022.625,1414.6734 1022.625,1413.0492 L1022.625,1411.5727 Q1022.625,1409.8852 1023.4266,1408.4086 Q1024.2492,1406.932 1025.6625,1406.1516 Q1027.0969,1405.35 1028.7,1405.35 Q1029.6703,1405.35 1030.5141,1405.6875 Q1031.3578,1406.025 1032.075,1406.7 Z " fill="#000000"/><text fill="#000000" font-family="sans-serif" font-size="16.2" lengthAdjust="spacing" textLength="89.1" x="1048.275" y="1418.0537">InetAddress</text><line style="stroke:#A80036;stroke-width:2.0250000000000004;" x1="1010.475" x2="1140.075" y1="1433.025" y2="1433.025"/><line style="stroke:#A80036;stroke-width:2.0250000000000004;" x1="1010.475" x2="1140.075" y1="1443.825" y2="1443.825"/><!--MD5=[53ae8b34bebe44116eb8626f99f3fe78]
class Runnable--><rect fill="#FEFECE" filter="url(#f12od2r0u2pjc5)" height="64.8" id="Runnable" style="stroke:#A80036;stroke-width:2.0250000000000004;" width="117.45" x="679.05" y="9.45"/><ellipse cx="699.3" cy="31.05" fill="#B4A7E5" rx="14.85" ry="14.85" style="stroke:#A80036;stroke-width:1.35;"/><path d="M700.65,27 L700.65,35.1 L703.35,35.1 L704.0039,35.1 L704.7,35.9438 L704.7,36.45 L704.7,36.9563 L704.0039,37.8 L703.35,37.8 L695.25,37.8 L694.5961,37.8 L693.9,36.9563 L693.9,36.45 L693.9,35.9438 L694.5961,35.1 L695.25,35.1 L697.95,35.1 L697.95,27 L695.25,27 L694.5961,27 L693.9,26.1563 L693.9,25.65 L693.9,25.1438 L694.5961,24.3 L695.25,24.3 L703.35,24.3 L704.0039,24.3 L704.7,25.1438 L704.7,25.65 L704.7,26.1563 L704.0039,27 L703.35,27 L700.65,27 Z " fill="#000000"/><text fill="#000000" font-family="sans-serif" font-size="16.2" font-style="italic" lengthAdjust="spacing" textLength="74.25" x="718.2" y="37.6787">Runnable</text><line style="stroke:#A80036;stroke-width:2.0250000000000004;" x1="680.4" x2="795.15" y1="52.65" y2="52.65"/><line style="stroke:#A80036;stroke-width:2.0250000000000004;" x1="680.4" x2="795.15" y1="63.45" y2="63.45"/><!--MD5=[248f897e4bb16c2722904b15df30346f]
class Logger--><rect fill="#FEFECE" filter="url(#f12od2r0u2pjc5)" height="64.8" id="Logger" style="stroke:#A80036;stroke-width:2.0250000000000004;" width="95.85" x="9.45" y="650.7"/><ellipse cx="29.7" cy="672.3" fill="#ADD1B2" rx="14.85" ry="14.85" style="stroke:#A80036;stroke-width:1.35;"/><path d="M32.4,667.575 Q32.6742,666.9 32.9906,666.5625 Q33.307,666.225 33.6656,666.225 Q34.2984,666.225 34.6992,666.6047 Q35.1,666.9844 35.1,667.8703 L35.1,669.9797 Q35.1,670.8656 34.7203,671.2453 Q34.3406,671.625 33.75,671.625 Q33.2227,671.625 32.8852,671.393 Q32.5477,671.1609 32.4,670.5492 Q32.3367,670.1273 32.1047,669.8953 Q31.6828,669.4523 30.9234,669.1992 Q30.1641,668.925 29.4047,668.925 Q28.4555,668.925 27.6539,669.3047 Q26.8734,669.6844 26.2617,670.5281 Q25.65,671.3719 25.65,672.532 L25.65,673.7766 Q25.65,675.1688 26.7891,676.0969 Q27.9281,677.025 29.9531,677.025 Q31.1555,677.025 31.9992,676.7508 Q32.4844,676.6031 33.0328,676.118 Q33.3914,675.8438 33.5813,675.7594 Q33.7711,675.675 34.0031,675.675 Q34.4461,675.675 34.7625,676.0336 Q35.1,676.3711 35.1,676.8563 Q35.1,677.3203 34.6359,677.8688 Q33.9609,678.6703 32.8852,679.1133 Q31.4719,679.725 29.7422,679.725 Q27.7172,679.725 26.093,678.9234 Q24.7852,678.2906 23.857,676.9195 Q22.95,675.5484 22.95,673.9242 L22.95,672.4477 Q22.95,670.7602 23.7516,669.2836 Q24.5742,667.807 25.9875,667.0266 Q27.4219,666.225 29.025,666.225 Q29.9953,666.225 30.8391,666.5625 Q31.6828,666.9 32.4,667.575 Z " fill="#000000"/><text fill="#000000" font-family="sans-serif" font-size="16.2" lengthAdjust="spacing" textLength="52.65" x="48.6" y="678.9287">Logger</text><line style="stroke:#A80036;stroke-width:2.0250000000000004;" x1="10.8" x2="103.95" y1="693.9" y2="693.9"/><line style="stroke:#A80036;stroke-width:2.0250000000000004;" x1="10.8" x2="103.95" y1="704.7" y2="704.7"/><!--MD5=[6a2413a739cf72e11fd384a063aa4c53]
reverse link model.Request to model.BadRequest--><path d="M525.744,849.0015 C476.5905,909.4815 424.494,973.566 389.7045,1016.388 " fill="none" id="model.Request-backto-model.BadRequest" style="stroke:#A80036;stroke-width:1.35;"/><polygon fill="none" points="518.616,842.7915,542.97,827.793,533.277,854.712,518.616,842.7915" style="stroke:#A80036;stroke-width:1.35;"/><!--MD5=[982c1ea44aef17b788a6a1fe24ff5d26]
reverse link model.State to model.StringState--><path d="M712.935,1510.3395 C705.429,1583.0235 693.765,1689.4305 681.075,1782 C679.2795,1795.068 677.187,1808.9865 675.0675,1822.338 " fill="none" id="model.State-backto-model.StringState" style="stroke:#A80036;stroke-width:1.35;"/><polygon fill="none" points="703.5525,1509.192,715.7025,1483.299,722.358,1511.1225,703.5525,1509.192" style="stroke:#A80036;stroke-width:1.35;"/><!--MD5=[3bdc2157b610a7c47cb1b0318105792e]
reverse link model.State to model.InitialState--><path d="M645.219,1502.82 C609.8625,1539.513 568.9305,1581.9975 537.8805,1614.2085 " fill="none" id="model.State-backto-model.InitialState" style="stroke:#A80036;stroke-width:1.35;"/><polygon fill="none" points="638.631,1496.0295,664.173,1483.137,652.2525,1509.138,638.631,1496.0295" style="stroke:#A80036;stroke-width:1.35;"/><!--MD5=[aa4c5e89d20af985ee667eb6a6a9c808]
reverse link model.State to model.TypeState--><path d="M702.0135,1510.0155 C683.2485,1590.462 655.9515,1700.3925 643.275,1717.2 C617.5575,1751.2875 527.31,1802.6685 454.194,1840.671 " fill="none" id="model.State-backto-model.TypeState" style="stroke:#A80036;stroke-width:1.35;"/><polygon fill="none" points="692.847,1507.6935,708.129,1483.515,711.261,1511.9595,692.847,1507.6935" style="stroke:#A80036;stroke-width:1.35;"/><!--MD5=[a4cef68c3d61425d9eb5b150c93596af]
reverse link model.StringState to model.FilenameState--><path d="M589.815,1982.9205 C566.676,2011.0275 541.728,2041.335 520.7625,2066.8095 " fill="none" id="model.StringState-backto-model.FilenameState" style="stroke:#A80036;stroke-width:1.35;"/><polygon fill="none" points="582.5925,1976.832,607.041,1961.982,597.186,1988.8335,582.5925,1976.832" style="stroke:#A80036;stroke-width:1.35;"/><!--MD5=[65ff1417afff23e5d119421445d48b91]
reverse link model.StringState to model.ModeState--><path d="M663.525,1989.225 C663.525,2080.9305 663.525,2216.3625 663.525,2293.5015 " fill="none" id="model.StringState-backto-model.ModeState" style="stroke:#A80036;stroke-width:1.35;"/><polygon fill="none" points="654.075,1988.6985,663.525,1961.6985,672.975,1988.6985,654.075,1988.6985" style="stroke:#A80036;stroke-width:1.35;"/><!--MD5=[0ecb1233802ed338c902a1921120b8d2]
reverse link model.State to model.EndState--><path d="M788.3055,1505.7225 C817.7355,1550.0565 845.775,1607.2965 845.775,1664.55 C845.775,1664.55 845.775,1664.55 845.775,2355.75 C845.775,2421.3195 797.7555,2480.6115 755.3655,2520.18 " fill="none" id="model.State-backto-model.EndState" style="stroke:#A80036;stroke-width:1.35;"/><polygon fill="none" points="780.2325,1510.677,772.4565,1483.1505,795.7035,1499.823,780.2325,1510.677" style="stroke:#A80036;stroke-width:1.35;"/><!--MD5=[7627ce8b65ba9ba0651fcd179b75c75b]
reverse link model.Request to model.Request.Parser--><path codeLine="71" d="M755.757,847.2735 C758.1465,854.1855 760.266,861.1245 762.075,868.05 C767.475,888.813 768.015,910.9395 765.6795,932.6205 " fill="none" id="model.Request-backto-model.Request.Parser" style="stroke:#A80036;stroke-width:1.35;"/><ellipse cx="752.2153" cy="837.9891" fill="#FFFFFF" rx="10.8" ry="10.8" style="stroke:#A80036;stroke-width:1.35;"/><line style="stroke:#A80036;stroke-width:1.35;" x1="756.0716" x2="748.359" y1="848.0771" y2="827.901"/><line style="stroke:#A80036;stroke-width:1.35;" x1="742.1272" x2="762.3034" y1="841.8454" y2="834.1328"/><!--MD5=[8f1abbe6026d4382835c0cf209136fc9]
link model.Request.Parser to model.Request--><path codeLine="77" d="M688.7025,932.7825 C685.8945,919.1745 683.2755,905.5125 681.075,892.35 C677.9835,873.8685 675.2565,854.3745 672.867,835.029 " fill="none" id="model.Request.Parser-to-model.Request" style="stroke:#A80036;stroke-width:1.35;stroke-dasharray:7.0,7.0;"/><polygon fill="#A80036" points="672.003,827.9145,668.1021,840.6253,672.8141,834.6156,678.8238,839.3276,672.003,827.9145" style="stroke:#A80036;stroke-width:1.35;"/><text fill="#000000" font-family="sans-serif" font-size="17.55" lengthAdjust="spacing" textLength="67.5" x="682.425" y="887.6184">create</text><!--MD5=[04efe6920c1b8b315bccfdebe26f95b2]
link model.Request to model.Request.Parser--><path codeLine="78" d="M592.245,827.793 C588.8835,849.4605 589.302,871.5195 596.025,892.35 C599.751,903.8655 604.5435,915.273 610.0785,926.397 " fill="none" id="model.Request-to-model.Request.Parser" style="stroke:#A80036;stroke-width:1.35;stroke-dasharray:7.0,7.0;"/><polygon fill="#A80036" points="613.2375,932.553,612.4983,919.2776,610.1574,926.5467,602.8882,924.2058,613.2375,932.553" style="stroke:#A80036;stroke-width:1.35;"/><text fill="#000000" font-family="sans-serif" font-size="17.55" lengthAdjust="spacing" textLength="67.5" x="597.375" y="887.6184">create</text><!--MD5=[f440c5bbb88fee7d138a419509b9a8c8]
reverse link model.Request.Parser to model.State--><path codeLine="74" d="M704.4975,1221.2235 C703.917,1270.674 705.1725,1322.6895 708.2775,1361.2185 " fill="none" id="model.Request.Parser-backto-model.State" style="stroke:#A80036;stroke-width:1.35;"/><polygon fill="#A80036" points="704.808,1203.1605,699.2752,1211.1704,704.541,1219.3583,710.0738,1211.3484,704.808,1203.1605" style="stroke:#A80036;stroke-width:1.35;"/><text fill="#000000" font-family="sans-serif" font-size="17.55" lengthAdjust="spacing" textLength="9.45" x="693.7797" y="1232.1166">1</text><text fill="#000000" font-family="sans-serif" font-size="17.55" lengthAdjust="spacing" textLength="9.45" x="696.0678" y="1346.9287">1</text><!--MD5=[f66c136f1911cf1e19fd51d2265ff126]
reverse link model.State to model.Request.Parser--><path codeLine="75" d="M736.965,1343.6955 C739.6245,1302.5205 740.4075,1250.667 739.3275,1203.1605 " fill="none" id="model.State-backto-model.Request.Parser" style="stroke:#A80036;stroke-width:1.35;"/><polygon fill="#A80036" points="735.6555,1361.2185,741.6369,1353.5378,736.8476,1345.0624,730.8662,1352.7431,735.6555,1361.2185" style="stroke:#A80036;stroke-width:1.35;"/><text fill="#000000" font-family="sans-serif" font-size="17.55" lengthAdjust="spacing" textLength="9.45" x="727.6381" y="1346.9287">1</text><text fill="#000000" font-family="sans-serif" font-size="17.55" lengthAdjust="spacing" textLength="9.45" x="730.8342" y="1232.1166">1</text><!--MD5=[634ed5e4bf3e81550b83cac2ab47e730]
link model.Request.Parser to model.InitialState--><path codeLine="80" d="M596.457,1181.925 C588.546,1189.0125 580.7025,1196.0325 573.075,1202.85 C546.7635,1226.3535 529.092,1223.775 513.675,1255.5 C457.866,1370.3175 468.3555,1525.1625 479.628,1607.499 " fill="none" id="model.Request.Parser-to-model.InitialState" style="stroke:#A80036;stroke-width:1.35;stroke-dasharray:7.0,7.0;"/><polygon fill="#A80036" points="480.573,1614.276,484.2211,1601.4903,479.6292,1607.5923,473.5272,1603.0004,480.573,1614.276" style="stroke:#A80036;stroke-width:1.35;"/><text fill="#000000" font-family="sans-serif" font-size="17.55" lengthAdjust="spacing" textLength="67.5" x="515.025" y="1429.6434">create</text><!--MD5=[ab54adff33485c450c5f9ba9d8c5e509]
link model.InitialState to model.TypeState--><path codeLine="81" d="M458.7705,1717.389 C437.5485,1752.1785 409.2525,1798.5375 387.2745,1834.5555 " fill="none" id="model.InitialState-to-model.TypeState" style="stroke:#A80036;stroke-width:1.35;stroke-dasharray:7.0,7.0;"/><polygon fill="#A80036" points="383.5215,1840.698,394.4699,1833.1539,387.0452,1834.9407,385.2583,1827.516,383.5215,1840.698" style="stroke:#A80036;stroke-width:1.35;"/><text fill="#000000" font-family="sans-serif" font-size="17.55" lengthAdjust="spacing" textLength="67.5" x="434.025" y="1777.2684">create</text><!--MD5=[a73aacdbd28eaa1d02e411dc3385037a]
link model.TypeState to model.FilenameState--><path codeLine="82" d="M378.513,1943.3385 C395.9145,1977.4395 419.148,2023.002 438.0885,2060.1135 " fill="none" id="model.TypeState-to-model.FilenameState" style="stroke:#A80036;stroke-width:1.35;stroke-dasharray:7.0,7.0;"/><polygon fill="#A80036" points="441.3285,2066.472,440.623,2053.1948,438.2636,2060.4579,431.0005,2058.0986,441.3285,2066.472" style="stroke:#A80036;stroke-width:1.35;"/><text fill="#000000" font-family="sans-serif" font-size="17.55" lengthAdjust="spacing" textLength="67.5" x="420.525" y="2021.6184">create</text><!--MD5=[a1271fe150f3a6cd11263aa8c61e15c5]
link model.FilenameState to model.ModeState--><path codeLine="83" d="M522.693,2188.4175 C548.91,2219.0625 580.932,2256.498 607.8105,2287.9125 " fill="none" id="model.FilenameState-to-model.ModeState" style="stroke:#A80036;stroke-width:1.35;stroke-dasharray:7.0,7.0;"/><polygon fill="#A80036" points="612.414,2293.3125,608.6345,2280.565,608.0323,2288.178,600.4193,2287.5757,612.414,2293.3125" style="stroke:#A80036;stroke-width:1.35;"/><text fill="#000000" font-family="sans-serif" font-size="17.55" lengthAdjust="spacing" textLength="67.5" x="574.425" y="2248.4184">create</text><!--MD5=[c7d1eaa1be6815ca8a3fdf6f08c6efba]
link model.ModeState to model.EndState--><path codeLine="84" d="M671.4225,2415.5415 C675.4725,2446.2135 680.3865,2483.3925 684.3825,2513.619 " fill="none" id="model.ModeState-to-model.EndState" style="stroke:#A80036;stroke-width:1.35;stroke-dasharray:7.0,7.0;"/><polygon fill="#A80036" points="685.26,2520.3555,689.0526,2507.6119,684.3919,2513.6616,678.3423,2509.0009,685.26,2520.3555" style="stroke:#A80036;stroke-width:1.35;"/><text fill="#000000" font-family="sans-serif" font-size="17.55" lengthAdjust="spacing" textLength="67.5" x="679.725" y="2475.2184">create</text><!--MD5=[2c1a39df0162bb20fd2cfaa0e8f9f033]
reverse link actor.intermediate.ClientSideApi to stub.intermediate.ClientSide--><path d="M1052.3925,761.1165 C1071.5625,833.436 1099.899,940.3695 1117.449,1006.614 " fill="none" id="actor.intermediate.ClientSideApi-backto-stub.intermediate.ClientSide" style="stroke:#A80036;stroke-width:1.35;stroke-dasharray:7.0,7.0;"/><polygon fill="none" points="1043.199,763.3035,1045.413,734.7915,1061.4645,758.4705,1043.199,763.3035" style="stroke:#A80036;stroke-width:1.35;"/><!--MD5=[028ff01f35b37bac83f0acfcf5f55d9f]
reverse link stub.intermediate.ClientSide to InetAddress--><path codeLine="15" d="M1120.5675,1146.4605 C1107.972,1222.7895 1089.3285,1335.744 1080.405,1389.8115 " fill="none" id="stub.intermediate.ClientSide-backto-InetAddress" style="stroke:#A80036;stroke-width:1.35;"/><polygon fill="#A80036" points="1123.4835,1128.8565,1116.8382,1135.9706,1120.8491,1144.8409,1127.4944,1137.7268,1123.4835,1128.8565" style="stroke:#A80036;stroke-width:1.35;"/><text fill="#000000" font-family="sans-serif" font-size="17.55" lengthAdjust="spacing" textLength="9.45" x="1112.0761" y="1156.8004">1</text><text fill="#000000" font-family="sans-serif" font-size="17.55" lengthAdjust="spacing" textLength="9.45" x="1071.0588" y="1375.4173">1</text><!--MD5=[aab33e28e06742952e7c9727bf40469e]
link stub.intermediate.ClientSide to stub.StubClient--><path codeLine="16" d="M1205.469,1128.8565 C1261.089,1174.851 1339.9155,1240.0425 1408.995,1297.1745 " fill="none" id="stub.intermediate.ClientSide-to-stub.StubClient" style="stroke:#A80036;stroke-width:1.35;"/><polygon fill="none" points="1415.2995,1290.1275,1430.082,1314.6165,1403.2575,1304.6805,1415.2995,1290.1275" style="stroke:#A80036;stroke-width:1.35;"/><!--MD5=[fb485a022a55752a3e77ace7c2a333f7]
reverse link Runnable to actor.Client--><path d="M737.775,102.006 C737.775,127.1295 737.775,157.2345 737.775,186.0165 " fill="none" id="Runnable-backto-actor.Client" style="stroke:#A80036;stroke-width:1.35;stroke-dasharray:7.0,7.0;"/><polygon fill="none" points="728.325,101.7495,737.775,74.7495,747.225,101.7495,728.325,101.7495" style="stroke:#A80036;stroke-width:1.35;"/><!--MD5=[d36226a501f2ce9c864ff2dbb1ae5664]
reverse link actor.Client to model.Request--><path codeLine="29" d="M695.6955,417.96 C693.2925,426.7755 691.092,435.564 689.175,444.15 C682.425,474.3765 677.0925,507.1275 672.921,538.38 " fill="none" id="actor.Client-backto-model.Request" style="stroke:#A80036;stroke-width:1.35;"/><polygon fill="#A80036" points="700.5015,401.031,693.0974,407.3515,696.084,416.6171,703.4881,410.2965,700.5015,401.031" style="stroke:#A80036;stroke-width:1.35;"/><text fill="#000000" font-family="sans-serif" font-size="17.55" lengthAdjust="spacing" textLength="9.45" x="687.4423" y="429.4463">1</text><text fill="#000000" font-family="sans-serif" font-size="17.55" lengthAdjust="spacing" textLength="6.75" x="666.8791" y="524.0786">*</text><!--MD5=[b94655547d7b6bda1a7b199976a19944]
link actor.Client to model.Request--><path codeLine="30" d="M716.2695,401.1795 C708.129,441.396 698.706,487.998 689.8905,531.5085 " fill="none" id="actor.Client-to-model.Request" style="stroke:#A80036;stroke-width:1.35;stroke-dasharray:7.0,7.0;"/><polygon fill="#A80036" points="688.4865,538.4745,696.1766,527.6281,689.8177,531.8571,685.5887,525.4982,688.4865,538.4745" style="stroke:#A80036;stroke-width:1.35;"/><text fill="#000000" font-family="sans-serif" font-size="17.55" lengthAdjust="spacing" textLength="67.5" x="706.725" y="463.7184">create</text><!--MD5=[ee0ac96395e349a588cbef8fcb741fc2]
reverse link actor.Client to util.Config--><path codeLine="31" d="M1009.3005,391.662 C1062.585,416.313 1116.369,445.5675 1163.025,479.25 C1207.17,511.1235 1248.3045,555.4575 1280.1645,594.513 " fill="none" id="actor.Client-backto-util.Config" style="stroke:#A80036;stroke-width:1.35;"/><polygon fill="#A80036" points="993.168,384.318,998.3059,392.5867,1007.9147,391.0243,1002.7768,382.7556,993.168,384.318" style="stroke:#A80036;stroke-width:1.35;"/><text fill="#000000" font-family="sans-serif" font-size="17.55" lengthAdjust="spacing" textLength="6.75" x="1004.0848" y="384.3258">*</text><text fill="#000000" font-family="sans-serif" font-size="17.55" lengthAdjust="spacing" textLength="9.45" x="1263.2239" y="580.2858">1</text><!--MD5=[465bc7b6b9b2667636f1e55b1a8a003f]
reverse link actor.Client to actor.intermediate.ClientSideApi--><path codeLine="32" d="M829.494,415.503 C884.898,488.3355 952.6005,577.3005 994.005,631.719 " fill="none" id="actor.Client-backto-actor.intermediate.ClientSideApi" style="stroke:#A80036;stroke-width:1.35;"/><polygon fill="#A80036" points="818.586,401.1795,819.1944,410.8955,828.3969,414.0708,827.7886,404.3548,818.586,401.1795" style="stroke:#A80036;stroke-width:1.35;"/><text fill="#000000" font-family="sans-serif" font-size="17.55" lengthAdjust="spacing" textLength="9.45" x="815.6746" y="429.6075">1</text><text fill="#000000" font-family="sans-serif" font-size="17.55" lengthAdjust="spacing" textLength="9.45" x="976.6647" y="616.9574">1</text><!--MD5=[afd7943c763b1fffd1e33fa067f15138]
reverse link actor.Client to Logger--><path codeLine="33" d="M465.0345,321.8805 C348.2055,346.2345 218.106,392.31 127.575,479.25 C79.542,525.3795 64.3545,606.0015 59.5755,650.3355 " fill="none" id="actor.Client-backto-Logger" style="stroke:#A80036;stroke-width:1.35;"/><polygon fill="#A80036" points="482.5305,318.3705,473.5272,314.6678,466.6465,321.5544,475.6498,325.2571,482.5305,318.3705" style="stroke:#A80036;stroke-width:1.35;"/><text fill="#000000" font-family="sans-serif" font-size="17.55" lengthAdjust="spacing" textLength="9.45" x="462.113" y="315.5961">1</text><text fill="#000000" font-family="sans-serif" font-size="17.55" lengthAdjust="spacing" textLength="9.45" x="49.4786" y="635.8513">1</text><!--MD5=[ce297ef17279b27d2ff291a229f59a1a]
@startuml
'https://plantuml.com/class-diagram

!include class_diagram_ClientSideApi.puml
!include class_diagram_parser.puml
!include class_diagram_config.puml
!include  class_diagram_StubClient.puml


class stub.intermediate.ClientSide implements actor.intermediate.ClientSideApi{
    - InetAddress inetAddress
    - int port
    + ClientSide(Config config, InetAddress inetAddress, int port)
}

stub.intermediate.ClientSide "1" *- - "1" InetAddress
stub.intermediate.ClientSide - -|> stub.StubClient

class actor.Client implements Runnable{
    - Logger logger
    - Queue<Request> requests
    - ClientSideApi clientSide
    - Config config
    + Client(Config config, ClientSideApi clientSide, Queue<Request> requests)
    + Client(Config config, ClientSideApi clientSide)
    {static} + Queue<Request> getDefaultRequests()
    + void main(String[] args)
}

actor.Client "1" *- - "*" model.Request
actor.Client ..> model.Request: "<<create>>"
actor.Client "*" *- - "1" util.Config
actor.Client "1" *- - "1" actor.intermediate.ClientSideApi
actor.Client "1" *- - "1" Logger

@enduml

@startuml


interface actor.intermediate.ClientSideApi{
    + void send(Request request)
    + Message send()
}


class model.BadRequest extends model.Request{
 + BadRequest(boolean read, String filename, String mode)
 - byte[] getEncoded(int maxMessageSize)
}

abstract class model.State{
 # Request.Parser Parser
 # State(Request.Parser Parser)
 {abstract} + void handle(byte b)
}
abstract class model.StringState extends model.State{
 # ByteArrayOutputStream output
 # StringState(Request.Parser Parser)
 {abstract} # void nextState(String output)
 + void handle(byte b)
}
class model.InitialState extends model.State{
 + InitialState(Request.Parser Parser)
 + void handle(byte b)
}
class model.TypeState extends model.State{
 + TypeState(Request.Parser Parser)
 + void handle(byte b)
}
class model.FilenameState extends model.StringState{
 + FilenameState(Request.Parser Parser)
 # void nextState(String output)
 + void handle(byte b)
}
class model.ModeState extends model.StringState{
 + ModeState(Request.Parser Parser)
 # void nextState(String output)
 + void handle(byte b)
}
class model.EndState extends model.State{
 + EndState(Request.Parser Parser)
 + void handle(byte b)
}


class model.Request{
 - boolean read
 - String filename
 - String mode
 + Request(boolean read, String filename, String mode)
 {static} + Request fromEncoded(byte[] bytes)
 - void writeObject(ObjectOutputStream out)
 - void readObject(ObjectInputStream in)
 + byte[] getEncoded(int maxMessageSize)
 + boolean isRead()
 + String toString()
 + boolean equals(Object o)
 + int hashCode()
}
class model.Request.Parser{
 - boolean read
 - String filename
 - String mode
 - State state
 + Parser()
 + void setRead(boolean read)
 + void setFilename(String filename)
 + void setMode(String mode)
 + Request build()
 + State getState()
 + void setState(State state)
}

model.Request +- - model.Request.Parser


model.Request.Parser "1" *- - "1" model.State
model.State "1" *- - "1" model.Request.Parser

model.Request.Parser ..> model.Request: "<<create>>"
model.Request ..> model.Request.Parser: "<<create>>"

model.Request.Parser ..> model.InitialState: "<<create>>"
model.InitialState ..> model.TypeState: "<<create>>"
model.TypeState ..> model.FilenameState: "<<create>>"
model.FilenameState ..> model.ModeState: "<<create>>"
model.ModeState ..> model.EndState: "<<create>>"

class util.Config{
 {static} - String CONFIG_FILE_NAME
 - Properties properties
 + Config()
 + String getProperty(String key)
 + int getIntProperty(String key)
 + Float getFloatProperty(String key)
}

abstract class stub.StubClient{
    # Config config
    # StubClient(Config config)
    # <T> T sendAndReceive(int functionNumber, InetAddress inetAddress, int port)
    # <T> T sendAndReceive(int functionNumber, Serializable argument, InetAddress inetAddress, int port)
    # <T> T sendAndReceive(int functionNumber, List<Serializable> arguments, InetAddress inetAddress, int port)
    # <T> T sendAndReceive(StubRequestMessage stubRequestMessage, InetAddress inetAddress, int port)
    # byte[] sendAndReceive(byte[] data, InetAddress inetAddress, int port)
    # byte[] sendAndReceive(DatagramSocket datagramSocket, byte[] data, InetAddress inetAddress, int port)
}



class stub.intermediate.ClientSide implements actor.intermediate.ClientSideApi{
    - InetAddress inetAddress
    - int port
    + ClientSide(Config config, InetAddress inetAddress, int port)
}

stub.intermediate.ClientSide "1" *- - "1" InetAddress
stub.intermediate.ClientSide - -|> stub.StubClient

class actor.Client implements Runnable{
    - Logger logger
    - Queue<Request> requests
    - ClientSideApi clientSide
    - Config config
    + Client(Config config, ClientSideApi clientSide, Queue<Request> requests)
    + Client(Config config, ClientSideApi clientSide)
    {static} + Queue<Request> getDefaultRequests()
    + void main(String[] args)
}

actor.Client "1" *- - "*" model.Request
actor.Client ..> model.Request: "<<create>>"
actor.Client "*" *- - "1" util.Config
actor.Client "1" *- - "1" actor.intermediate.ClientSideApi
actor.Client "1" *- - "1" Logger

@enduml

PlantUML version 1.2021.01(Tue Feb 02 02:55:08 EST 2021)
(GPL source distribution)
Java Runtime: OpenJDK Runtime Environment
JVM: OpenJDK 64-Bit Server VM
Default Encoding: Cp1252
Language: en
Country: US
--></g></svg>