<?xml version="1.0" encoding="UTF-8" standalone="no"?><svg xmlns="http://www.w3.org/2000/svg" xmlns:xlink="http://www.w3.org/1999/xlink" contentScriptType="application/ecmascript" contentStyleType="text/css" height="264.6px" preserveAspectRatio="none" style="width:341px;height:264px;" version="1.1" viewBox="0 0 341 264" width="341.55px" zoomAndPan="magnify"><defs><filter height="300%" id="feqpiqxfb6tu" width="300%" x="-1" y="-1"><feGaussianBlur result="blurOut" stdDeviation="2.7"/><feColorMatrix in="blurOut" result="blurOut2" type="matrix" values="0 0 0 0 0 0 0 0 0 0 0 0 0 0 0 0 0 0 .4 0"/><feOffset dx="5.4" dy="5.4" in="blurOut2" result="blurOut3"/><feBlend in="SourceGraphic" in2="blurOut3" mode="normal"/></filter></defs><g><!--MD5=[3e81cc6ee7da4fa8b6adc12b329096f6]
cluster util--><polygon fill="#FFFFFF" filter="url(#feqpiqxfb6tu)" points="21.6,8.1,59.4,8.1,68.85,39.9727,318.6,39.9727,318.6,255.15,21.6,255.15,21.6,8.1" style="stroke:#000000;stroke-width:2.0250000000000004;"/><line style="stroke:#000000;stroke-width:2.0250000000000004;" x1="21.6" x2="68.85" y1="39.9727" y2="39.9727"/><text fill="#000000" font-family="sans-serif" font-size="18.9" font-weight="bold" lengthAdjust="spacing" textLength="29.7" x="27" y="30.4198">util</text><!--MD5=[a813df4c85b388216b83cdbb1b1c209c]
class util.Config--><rect codeLine="1" fill="#FEFECE" filter="url(#feqpiqxfb6tu)" height="176.8711" id="util.Config" style="stroke:#A80036;stroke-width:2.0250000000000004;" width="252.45" x="43.875" y="56.7"/><ellipse cx="140.0625" cy="78.3" fill="#ADD1B2" rx="14.85" ry="14.85" style="stroke:#A80036;stroke-width:1.35;"/><path d="M142.7625,73.575 Q143.0367,72.9 143.3531,72.5625 Q143.6695,72.225 144.0281,72.225 Q144.6609,72.225 145.0617,72.6047 Q145.4625,72.9844 145.4625,73.8703 L145.4625,75.9797 Q145.4625,76.8656 145.0828,77.2453 Q144.7031,77.625 144.1125,77.625 Q143.5852,77.625 143.2477,77.393 Q142.9102,77.1609 142.7625,76.5492 Q142.6992,76.1273 142.4672,75.8953 Q142.0453,75.4523 141.2859,75.1992 Q140.5266,74.925 139.7672,74.925 Q138.818,74.925 138.0164,75.3047 Q137.2359,75.6844 136.6242,76.5281 Q136.0125,77.3719 136.0125,78.532 L136.0125,79.7766 Q136.0125,81.1688 137.1516,82.0969 Q138.2906,83.025 140.3156,83.025 Q141.518,83.025 142.3617,82.7508 Q142.8469,82.6031 143.3953,82.118 Q143.7539,81.8438 143.9438,81.7594 Q144.1336,81.675 144.3656,81.675 Q144.8086,81.675 145.125,82.0336 Q145.4625,82.3711 145.4625,82.8563 Q145.4625,83.3203 144.9984,83.8688 Q144.3234,84.6703 143.2477,85.1133 Q141.8344,85.725 140.1047,85.725 Q138.0797,85.725 136.4555,84.9234 Q135.1477,84.2906 134.2195,82.9195 Q133.3125,81.5484 133.3125,79.9242 L133.3125,78.4477 Q133.3125,76.7602 134.1141,75.2836 Q134.9367,73.807 136.35,73.0266 Q137.7844,72.225 139.3875,72.225 Q140.3578,72.225 141.2016,72.5625 Q142.0453,72.9 142.7625,73.575 Z " fill="#000000"/><text fill="#000000" font-family="sans-serif" font-size="16.2" lengthAdjust="spacing" textLength="48.6" x="167.7375" y="84.9287">Config</text><line style="stroke:#A80036;stroke-width:2.0250000000000004;" x1="45.225" x2="294.975" y1="99.9" y2="99.9"/><rect fill="none" height="8.1" style="stroke:#C82930;stroke-width:1.35;" width="8.1" x="54.675" y="110.7"/><text fill="#000000" font-family="sans-serif" font-size="14.85" lengthAdjust="spacing" text-decoration="underline" textLength="175.5" x="70.875" y="120.7156">String CONFIG_FILE_NAME</text><rect fill="none" height="8.1" style="stroke:#C82930;stroke-width:1.35;" width="8.1" x="54.675" y="129.3785"/><text fill="#000000" font-family="sans-serif" font-size="14.85" lengthAdjust="spacing" textLength="136.35" x="70.875" y="139.3941">Properties properties</text><line style="stroke:#A80036;stroke-width:2.0250000000000004;" x1="45.225" x2="294.975" y1="148.057" y2="148.057"/><ellipse cx="58.725" cy="162.907" fill="#84BE84" rx="4.05" ry="4.05" style="stroke:#038048;stroke-width:1.35;"/><text fill="#000000" font-family="sans-serif" font-size="14.85" lengthAdjust="spacing" textLength="52.65" x="70.875" y="168.8726">Config()</text><ellipse cx="58.725" cy="181.5855" fill="#84BE84" rx="4.05" ry="4.05" style="stroke:#038048;stroke-width:1.35;"/><text fill="#000000" font-family="sans-serif" font-size="14.85" lengthAdjust="spacing" textLength="193.05" x="70.875" y="187.5511">String getProperty(String key)</text><ellipse cx="58.725" cy="200.2641" fill="#84BE84" rx="4.05" ry="4.05" style="stroke:#038048;stroke-width:1.35;"/><text fill="#000000" font-family="sans-serif" font-size="14.85" lengthAdjust="spacing" textLength="184.95" x="70.875" y="206.2296">int getIntProperty(String key)</text><ellipse cx="58.725" cy="218.9426" fill="#84BE84" rx="4.05" ry="4.05" style="stroke:#038048;stroke-width:1.35;"/><text fill="#000000" font-family="sans-serif" font-size="14.85" lengthAdjust="spacing" textLength="217.35" x="70.875" y="224.9082">Float getFloatProperty(String key)</text><!--MD5=[834e5b32c26764bfe090b53f49b52d74]
@startuml
class util.Config{
 {static} - String CONFIG_FILE_NAME
 - Properties properties
 + Config()
 + String getProperty(String key)
 + int getIntProperty(String key)
 + Float getFloatProperty(String key)
}
@enduml

PlantUML version 1.2021.01(Tue Feb 02 02:55:08 EST 2021)
(GPL source distribution)
Java Runtime: OpenJDK Runtime Environment
JVM: OpenJDK 64-Bit Server VM
Default Encoding: Cp1252
Language: en
Country: US
--></g></svg>