<?xml version="1.0" encoding="UTF-8" standalone="no"?><svg xmlns="http://www.w3.org/2000/svg" xmlns:xlink="http://www.w3.org/1999/xlink" contentScriptType="application/ecmascript" contentStyleType="text/css" height="2046.6px" preserveAspectRatio="none" style="width:785px;height:2046px;" version="1.1" viewBox="0 0 785 2046" width="785.7px" zoomAndPan="magnify"><defs><filter height="300%" id="f11oh5wl68lgfv" width="300%" x="-1" y="-1"><feGaussianBlur result="blurOut" stdDeviation="2.7"/><feColorMatrix in="blurOut" result="blurOut2" type="matrix" values="0 0 0 0 0 0 0 0 0 0 0 0 0 0 0 0 0 0 .4 0"/><feOffset dx="5.4" dy="5.4" in="blurOut2" result="blurOut3"/><feBlend in="SourceGraphic" in2="blurOut3" mode="normal"/></filter></defs><g><!--MD5=[5d4cd377749310b66bf14896f5cd8d9b]
cluster model--><polygon fill="#FFFFFF" filter="url(#f11oh5wl68lgfv)" points="21.6,8.1,87.75,8.1,97.2,39.9727,762.75,39.9727,762.75,2037.15,21.6,2037.15,21.6,8.1" style="stroke:#000000;stroke-width:2.0250000000000004;"/><line style="stroke:#000000;stroke-width:2.0250000000000004;" x1="21.6" x2="97.2" y1="39.9727" y2="39.9727"/><text fill="#000000" font-family="sans-serif" font-size="18.9" font-weight="bold" lengthAdjust="spacing" textLength="58.05" x="27" y="30.4198">model</text><!--MD5=[47d34067e58fbf84983dbb17222562fa]
class model.BadRequest--><rect codeLine="3" fill="#FEFECE" filter="url(#f11oh5wl68lgfv)" height="102.157" id="model.BadRequest" style="stroke:#A80036;stroke-width:2.0250000000000004;" width="399.6" x="43.2" y="534.6"/><ellipse cx="190.6875" cy="556.2" fill="#ADD1B2" rx="14.85" ry="14.85" style="stroke:#A80036;stroke-width:1.35;"/><path d="M193.3875,551.475 Q193.6617,550.8 193.9781,550.4625 Q194.2945,550.125 194.6531,550.125 Q195.2859,550.125 195.6867,550.5047 Q196.0875,550.8844 196.0875,551.7703 L196.0875,553.8797 Q196.0875,554.7656 195.7078,555.1453 Q195.3281,555.525 194.7375,555.525 Q194.2102,555.525 193.8727,555.293 Q193.5352,555.0609 193.3875,554.4492 Q193.3242,554.0273 193.0922,553.7953 Q192.6703,553.3523 191.9109,553.0992 Q191.1516,552.825 190.3922,552.825 Q189.443,552.825 188.6414,553.2047 Q187.8609,553.5844 187.2492,554.4281 Q186.6375,555.2719 186.6375,556.432 L186.6375,557.6766 Q186.6375,559.0688 187.7766,559.9969 Q188.9156,560.925 190.9406,560.925 Q192.143,560.925 192.9867,560.6508 Q193.4719,560.5031 194.0203,560.018 Q194.3789,559.7438 194.5688,559.6594 Q194.7586,559.575 194.9906,559.575 Q195.4336,559.575 195.75,559.9336 Q196.0875,560.2711 196.0875,560.7563 Q196.0875,561.2203 195.6234,561.7688 Q194.9484,562.5703 193.8727,563.0133 Q192.4594,563.625 190.7297,563.625 Q188.7047,563.625 187.0805,562.8234 Q185.7727,562.1906 184.8445,560.8195 Q183.9375,559.4484 183.9375,557.8242 L183.9375,556.3477 Q183.9375,554.6602 184.7391,553.1836 Q185.5617,551.707 186.975,550.9266 Q188.4094,550.125 190.0125,550.125 Q190.9828,550.125 191.8266,550.4625 Q192.6703,550.8 193.3875,551.475 Z " fill="#000000"/><text fill="#000000" font-family="sans-serif" font-size="16.2" lengthAdjust="spacing" textLength="93.15" x="218.3625" y="562.8287">BadRequest</text><line style="stroke:#A80036;stroke-width:2.0250000000000004;" x1="44.55" x2="441.45" y1="577.8" y2="577.8"/><line style="stroke:#A80036;stroke-width:2.0250000000000004;" x1="44.55" x2="441.45" y1="588.6" y2="588.6"/><ellipse cx="58.05" cy="603.45" fill="#84BE84" rx="4.05" ry="4.05" style="stroke:#038048;stroke-width:1.35;"/><text fill="#000000" font-family="sans-serif" font-size="14.85" lengthAdjust="spacing" textLength="364.5" x="70.2" y="609.4156">BadRequest(boolean read, String filename, String mode)</text><rect fill="#F24D5C" height="8.1" style="stroke:#C82930;stroke-width:1.35;" width="8.1" x="54" y="618.0785"/><text fill="#000000" font-family="sans-serif" font-size="14.85" lengthAdjust="spacing" textLength="261.9" x="70.2" y="628.0941">byte[] getEncoded(int maxMessageSize)</text><!--MD5=[bf4638d74bc39945c3e1383ef8cbae27]
class model.Request--><rect codeLine="43" fill="#FEFECE" filter="url(#f11oh5wl68lgfv)" height="288.9422" id="model.Request" style="stroke:#A80036;stroke-width:2.0250000000000004;" width="373.95" x="296.325" y="56.7"/><ellipse cx="445.8375" cy="78.3" fill="#ADD1B2" rx="14.85" ry="14.85" style="stroke:#A80036;stroke-width:1.35;"/><path d="M448.5375,73.575 Q448.8117,72.9 449.1281,72.5625 Q449.4445,72.225 449.8031,72.225 Q450.4359,72.225 450.8367,72.6047 Q451.2375,72.9844 451.2375,73.8703 L451.2375,75.9797 Q451.2375,76.8656 450.8578,77.2453 Q450.4781,77.625 449.8875,77.625 Q449.3602,77.625 449.0227,77.393 Q448.6852,77.1609 448.5375,76.5492 Q448.4742,76.1273 448.2422,75.8953 Q447.8203,75.4523 447.0609,75.1992 Q446.3016,74.925 445.5422,74.925 Q444.593,74.925 443.7914,75.3047 Q443.0109,75.6844 442.3992,76.5281 Q441.7875,77.3719 441.7875,78.532 L441.7875,79.7766 Q441.7875,81.1688 442.9266,82.0969 Q444.0656,83.025 446.0906,83.025 Q447.293,83.025 448.1367,82.7508 Q448.6219,82.6031 449.1703,82.118 Q449.5289,81.8438 449.7188,81.7594 Q449.9086,81.675 450.1406,81.675 Q450.5836,81.675 450.9,82.0336 Q451.2375,82.3711 451.2375,82.8563 Q451.2375,83.3203 450.7734,83.8688 Q450.0984,84.6703 449.0227,85.1133 Q447.6094,85.725 445.8797,85.725 Q443.8547,85.725 442.2305,84.9234 Q440.9227,84.2906 439.9945,82.9195 Q439.0875,81.5484 439.0875,79.9242 L439.0875,78.4477 Q439.0875,76.7602 439.8891,75.2836 Q440.7117,73.807 442.125,73.0266 Q443.5594,72.225 445.1625,72.225 Q446.1328,72.225 446.9766,72.5625 Q447.8203,72.9 448.5375,73.575 Z " fill="#000000"/><text fill="#000000" font-family="sans-serif" font-size="16.2" lengthAdjust="spacing" textLength="63.45" x="473.5125" y="84.9287">Request</text><line style="stroke:#A80036;stroke-width:2.0250000000000004;" x1="297.675" x2="668.925" y1="99.9" y2="99.9"/><rect fill="none" height="8.1" style="stroke:#C82930;stroke-width:1.35;" width="8.1" x="307.125" y="110.7"/><text fill="#000000" font-family="sans-serif" font-size="14.85" lengthAdjust="spacing" textLength="85.05" x="323.325" y="120.7156">boolean read</text><rect fill="none" height="8.1" style="stroke:#C82930;stroke-width:1.35;" width="8.1" x="307.125" y="129.3785"/><text fill="#000000" font-family="sans-serif" font-size="14.85" lengthAdjust="spacing" textLength="95.85" x="323.325" y="139.3941">String filename</text><rect fill="none" height="8.1" style="stroke:#C82930;stroke-width:1.35;" width="8.1" x="307.125" y="148.057"/><text fill="#000000" font-family="sans-serif" font-size="14.85" lengthAdjust="spacing" textLength="76.95" x="323.325" y="158.0726">String mode</text><line style="stroke:#A80036;stroke-width:2.0250000000000004;" x1="297.675" x2="668.925" y1="166.7355" y2="166.7355"/><ellipse cx="311.175" cy="181.5855" fill="#84BE84" rx="4.05" ry="4.05" style="stroke:#038048;stroke-width:1.35;"/><text fill="#000000" font-family="sans-serif" font-size="14.85" lengthAdjust="spacing" textLength="338.85" x="323.325" y="187.5511">Request(boolean read, String filename, String mode)</text><ellipse cx="311.175" cy="200.2641" fill="#84BE84" rx="4.05" ry="4.05" style="stroke:#038048;stroke-width:1.35;"/><text fill="#000000" font-family="sans-serif" font-size="14.85" lengthAdjust="spacing" text-decoration="underline" textLength="232.2" x="323.325" y="206.2296">Request fromEncoded(byte[] bytes)</text><rect fill="#F24D5C" height="8.1" style="stroke:#C82930;stroke-width:1.35;" width="8.1" x="307.125" y="214.8926"/><text fill="#000000" font-family="sans-serif" font-size="14.85" lengthAdjust="spacing" textLength="272.7" x="323.325" y="224.9082">void writeObject(ObjectOutputStream out)</text><rect fill="#F24D5C" height="8.1" style="stroke:#C82930;stroke-width:1.35;" width="8.1" x="307.125" y="233.5711"/><text fill="#000000" font-family="sans-serif" font-size="14.85" lengthAdjust="spacing" textLength="247.05" x="323.325" y="243.5867">void readObject(ObjectInputStream in)</text><ellipse cx="311.175" cy="256.2996" fill="#84BE84" rx="4.05" ry="4.05" style="stroke:#038048;stroke-width:1.35;"/><text fill="#000000" font-family="sans-serif" font-size="14.85" lengthAdjust="spacing" textLength="261.9" x="323.325" y="262.2652">byte[] getEncoded(int maxMessageSize)</text><ellipse cx="311.175" cy="274.9781" fill="#84BE84" rx="4.05" ry="4.05" style="stroke:#038048;stroke-width:1.35;"/><text fill="#000000" font-family="sans-serif" font-size="14.85" lengthAdjust="spacing" textLength="110.7" x="323.325" y="280.9437">boolean isRead()</text><ellipse cx="311.175" cy="293.6566" fill="#84BE84" rx="4.05" ry="4.05" style="stroke:#038048;stroke-width:1.35;"/><text fill="#000000" font-family="sans-serif" font-size="14.85" lengthAdjust="spacing" textLength="102.6" x="323.325" y="299.6222">String toString()</text><ellipse cx="311.175" cy="312.3352" fill="#84BE84" rx="4.05" ry="4.05" style="stroke:#038048;stroke-width:1.35;"/><text fill="#000000" font-family="sans-serif" font-size="14.85" lengthAdjust="spacing" textLength="163.35" x="323.325" y="318.3007">boolean equals(Object o)</text><ellipse cx="311.175" cy="331.0137" fill="#84BE84" rx="4.05" ry="4.05" style="stroke:#038048;stroke-width:1.35;"/><text fill="#000000" font-family="sans-serif" font-size="14.85" lengthAdjust="spacing" textLength="95.85" x="323.325" y="336.9792">int hashCode()</text><!--MD5=[cd54df1af516238376ca8c3206b0f27d]
class model.State--><rect codeLine="8" fill="#FEFECE" filter="url(#f11oh5wl68lgfv)" height="120.8355" id="model.State" style="stroke:#A80036;stroke-width:2.0250000000000004;" width="228.15" x="501.525" y="803.25"/><ellipse cx="590.9625" cy="824.85" fill="#A9DCDF" rx="14.85" ry="14.85" style="stroke:#A80036;stroke-width:1.35;"/><path d="M593.325,826.875 L588.8742,826.875 L588.2836,828.225 L588.2836,828.225 L588.9164,828.225 L589.6125,829.0688 L589.6125,829.575 L589.6125,830.0813 L588.9164,830.925 L588.2836,830.925 L585.7313,830.925 L584.9086,830.925 L584.2125,830.0813 L584.2125,829.575 L584.2125,829.0688 L584.9086,828.225 L585.7313,828.225 L588.8531,820.125 L587.6719,820.125 L586.2586,820.125 L585.5625,819.2813 L585.5625,818.775 L585.5625,818.2688 L586.2586,817.425 L587.6719,817.425 L592.6289,817.425 L596.257,828.225 L597.0164,828.225 L597.0164,828.225 L597.7125,829.0688 L597.7125,829.575 L597.7125,830.0813 L597.0164,830.925 L596.257,830.925 L593.7047,830.925 L593.0086,830.925 L592.3125,830.0813 L592.3125,829.575 L592.3125,829.0688 L593.0086,828.225 L593.7047,828.225 L593.7047,828.225 L593.325,826.875 Z M592.5867,824.175 L590.9625,819.3445 L589.5703,824.175 L592.5867,824.175 Z " fill="#000000"/><text fill="#000000" font-family="sans-serif" font-size="16.2" font-style="italic" lengthAdjust="spacing" textLength="37.8" x="618.6375" y="831.4787">State</text><line style="stroke:#A80036;stroke-width:2.0250000000000004;" x1="502.875" x2="728.325" y1="846.45" y2="846.45"/><polygon fill="none" points="516.375,854.55,521.775,859.95,516.375,865.35,510.975,859.95" style="stroke:#B38D22;stroke-width:1.35;"/><text fill="#000000" font-family="sans-serif" font-size="14.85" lengthAdjust="spacing" textLength="148.5" x="528.525" y="867.2656">Request.Parser Parser</text><line style="stroke:#A80036;stroke-width:2.0250000000000004;" x1="502.875" x2="728.325" y1="875.9285" y2="875.9285"/><polygon fill="#FFFF44" points="516.375,884.0285,521.775,889.4285,516.375,894.8285,510.975,889.4285" style="stroke:#B38D22;stroke-width:1.35;"/><text fill="#000000" font-family="sans-serif" font-size="14.85" lengthAdjust="spacing" textLength="193.05" x="528.525" y="896.7441">State(Request.Parser Parser)</text><ellipse cx="516.375" cy="909.457" fill="#84BE84" rx="4.05" ry="4.05" style="stroke:#038048;stroke-width:1.35;"/><text fill="#000000" font-family="sans-serif" font-size="14.85" font-style="italic" lengthAdjust="spacing" textLength="128.25" x="528.525" y="915.4226">void handle(byte b)</text><!--MD5=[a2fc373fab115fda23f308f44fb8f6a0]
class model.StringState--><rect codeLine="13" fill="#FEFECE" filter="url(#f11oh5wl68lgfv)" height="139.5141" id="model.StringState" style="stroke:#A80036;stroke-width:2.0250000000000004;" width="265.95" x="424.575" y="1215"/><ellipse cx="511.3125" cy="1236.6" fill="#A9DCDF" rx="14.85" ry="14.85" style="stroke:#A80036;stroke-width:1.35;"/><path d="M513.675,1238.625 L509.2242,1238.625 L508.6336,1239.975 L508.6336,1239.975 L509.2664,1239.975 L509.9625,1240.8188 L509.9625,1241.325 L509.9625,1241.8313 L509.2664,1242.675 L508.6336,1242.675 L506.0813,1242.675 L505.2586,1242.675 L504.5625,1241.8313 L504.5625,1241.325 L504.5625,1240.8188 L505.2586,1239.975 L506.0813,1239.975 L509.2031,1231.875 L508.0219,1231.875 L506.6086,1231.875 L505.9125,1231.0313 L505.9125,1230.525 L505.9125,1230.0188 L506.6086,1229.175 L508.0219,1229.175 L512.9789,1229.175 L516.607,1239.975 L517.3664,1239.975 L517.3664,1239.975 L518.0625,1240.8188 L518.0625,1241.325 L518.0625,1241.8313 L517.3664,1242.675 L516.607,1242.675 L514.0547,1242.675 L513.3586,1242.675 L512.6625,1241.8313 L512.6625,1241.325 L512.6625,1240.8188 L513.3586,1239.975 L514.0547,1239.975 L514.0547,1239.975 L513.675,1238.625 Z M512.9367,1235.925 L511.3125,1231.0945 L509.9203,1235.925 L512.9367,1235.925 Z " fill="#000000"/><text fill="#000000" font-family="sans-serif" font-size="16.2" font-style="italic" lengthAdjust="spacing" textLength="81" x="538.9875" y="1243.2287">StringState</text><line style="stroke:#A80036;stroke-width:2.0250000000000004;" x1="425.925" x2="689.175" y1="1258.2" y2="1258.2"/><polygon fill="none" points="439.425,1266.3,444.825,1271.7,439.425,1277.1,434.025,1271.7" style="stroke:#B38D22;stroke-width:1.35;"/><text fill="#000000" font-family="sans-serif" font-size="14.85" lengthAdjust="spacing" textLength="201.15" x="451.575" y="1279.0156">ByteArrayOutputStream output</text><line style="stroke:#A80036;stroke-width:2.0250000000000004;" x1="425.925" x2="689.175" y1="1287.6785" y2="1287.6785"/><polygon fill="#FFFF44" points="439.425,1295.7785,444.825,1301.1785,439.425,1306.5785,434.025,1301.1785" style="stroke:#B38D22;stroke-width:1.35;"/><text fill="#000000" font-family="sans-serif" font-size="14.85" lengthAdjust="spacing" textLength="230.85" x="451.575" y="1308.4941">StringState(Request.Parser Parser)</text><polygon fill="#FFFF44" points="439.425,1314.457,444.825,1319.857,439.425,1325.257,434.025,1319.857" style="stroke:#B38D22;stroke-width:1.35;"/><text fill="#000000" font-family="sans-serif" font-size="14.85" font-style="italic" lengthAdjust="spacing" textLength="187.65" x="451.575" y="1327.1726">void nextState(String output)</text><ellipse cx="439.425" cy="1339.8855" fill="#84BE84" rx="4.05" ry="4.05" style="stroke:#038048;stroke-width:1.35;"/><text fill="#000000" font-family="sans-serif" font-size="14.85" lengthAdjust="spacing" textLength="125.55" x="451.575" y="1345.8511">void handle(byte b)</text><!--MD5=[44ad56bf2df7ed790d16feb1e78b1064]
class model.InitialState--><rect codeLine="19" fill="#FEFECE" filter="url(#f11oh5wl68lgfv)" height="102.157" id="model.InitialState" style="stroke:#A80036;stroke-width:2.0250000000000004;" width="259.2" x="253.8" y="1007.1"/><ellipse cx="339.1875" cy="1028.7" fill="#ADD1B2" rx="14.85" ry="14.85" style="stroke:#A80036;stroke-width:1.35;"/><path d="M341.8875,1023.975 Q342.1617,1023.3 342.4781,1022.9625 Q342.7945,1022.625 343.1531,1022.625 Q343.7859,1022.625 344.1867,1023.0047 Q344.5875,1023.3844 344.5875,1024.2703 L344.5875,1026.3797 Q344.5875,1027.2656 344.2078,1027.6453 Q343.8281,1028.025 343.2375,1028.025 Q342.7102,1028.025 342.3727,1027.793 Q342.0352,1027.5609 341.8875,1026.9492 Q341.8242,1026.5273 341.5922,1026.2953 Q341.1703,1025.8523 340.4109,1025.5992 Q339.6516,1025.325 338.8922,1025.325 Q337.943,1025.325 337.1414,1025.7047 Q336.3609,1026.0844 335.7492,1026.9281 Q335.1375,1027.7719 335.1375,1028.932 L335.1375,1030.1766 Q335.1375,1031.5688 336.2766,1032.4969 Q337.4156,1033.425 339.4406,1033.425 Q340.643,1033.425 341.4867,1033.1508 Q341.9719,1033.0031 342.5203,1032.518 Q342.8789,1032.2438 343.0688,1032.1594 Q343.2586,1032.075 343.4906,1032.075 Q343.9336,1032.075 344.25,1032.4336 Q344.5875,1032.7711 344.5875,1033.2563 Q344.5875,1033.7203 344.1234,1034.2688 Q343.4484,1035.0703 342.3727,1035.5133 Q340.9594,1036.125 339.2297,1036.125 Q337.2047,1036.125 335.5805,1035.3234 Q334.2727,1034.6906 333.3445,1033.3195 Q332.4375,1031.9484 332.4375,1030.3242 L332.4375,1028.8477 Q332.4375,1027.1602 333.2391,1025.6836 Q334.0617,1024.207 335.475,1023.4266 Q336.9094,1022.625 338.5125,1022.625 Q339.4828,1022.625 340.3266,1022.9625 Q341.1703,1023.3 341.8875,1023.975 Z " fill="#000000"/><text fill="#000000" font-family="sans-serif" font-size="16.2" lengthAdjust="spacing" textLength="76.95" x="366.8625" y="1035.3287">InitialState</text><line style="stroke:#A80036;stroke-width:2.0250000000000004;" x1="255.15" x2="511.65" y1="1050.3" y2="1050.3"/><line style="stroke:#A80036;stroke-width:2.0250000000000004;" x1="255.15" x2="511.65" y1="1061.1" y2="1061.1"/><ellipse cx="268.65" cy="1075.95" fill="#84BE84" rx="4.05" ry="4.05" style="stroke:#038048;stroke-width:1.35;"/><text fill="#000000" font-family="sans-serif" font-size="14.85" lengthAdjust="spacing" textLength="224.1" x="280.8" y="1081.9156">InitialState(Request.Parser Parser)</text><ellipse cx="268.65" cy="1094.6285" fill="#84BE84" rx="4.05" ry="4.05" style="stroke:#038048;stroke-width:1.35;"/><text fill="#000000" font-family="sans-serif" font-size="14.85" lengthAdjust="spacing" textLength="125.55" x="280.8" y="1100.5941">void handle(byte b)</text><!--MD5=[4cfda732b32775db04ce2e815a76f1c3]
class model.TypeState--><rect codeLine="23" fill="#FEFECE" filter="url(#f11oh5wl68lgfv)" height="102.157" id="model.TypeState" style="stroke:#A80036;stroke-width:2.0250000000000004;" width="260.55" x="116.775" y="1233.225"/><ellipse cx="204.8625" cy="1254.825" fill="#ADD1B2" rx="14.85" ry="14.85" style="stroke:#A80036;stroke-width:1.35;"/><path d="M207.5625,1250.1 Q207.8367,1249.425 208.1531,1249.0875 Q208.4695,1248.75 208.8281,1248.75 Q209.4609,1248.75 209.8617,1249.1297 Q210.2625,1249.5094 210.2625,1250.3953 L210.2625,1252.5047 Q210.2625,1253.3906 209.8828,1253.7703 Q209.5031,1254.15 208.9125,1254.15 Q208.3852,1254.15 208.0477,1253.918 Q207.7102,1253.6859 207.5625,1253.0742 Q207.4992,1252.6523 207.2672,1252.4203 Q206.8453,1251.9773 206.0859,1251.7242 Q205.3266,1251.45 204.5672,1251.45 Q203.618,1251.45 202.8164,1251.8297 Q202.0359,1252.2094 201.4242,1253.0531 Q200.8125,1253.8969 200.8125,1255.057 L200.8125,1256.3016 Q200.8125,1257.6938 201.9516,1258.6219 Q203.0906,1259.55 205.1156,1259.55 Q206.318,1259.55 207.1617,1259.2758 Q207.6469,1259.1281 208.1953,1258.643 Q208.5539,1258.3688 208.7438,1258.2844 Q208.9336,1258.2 209.1656,1258.2 Q209.6086,1258.2 209.925,1258.5586 Q210.2625,1258.8961 210.2625,1259.3813 Q210.2625,1259.8453 209.7984,1260.3938 Q209.1234,1261.1953 208.0477,1261.6383 Q206.6344,1262.25 204.9047,1262.25 Q202.8797,1262.25 201.2555,1261.4484 Q199.9477,1260.8156 199.0195,1259.4445 Q198.1125,1258.0734 198.1125,1256.4492 L198.1125,1254.9727 Q198.1125,1253.2852 198.9141,1251.8086 Q199.7367,1250.332 201.15,1249.5516 Q202.5844,1248.75 204.1875,1248.75 Q205.1578,1248.75 206.0016,1249.0875 Q206.8453,1249.425 207.5625,1250.1 Z " fill="#000000"/><text fill="#000000" font-family="sans-serif" font-size="16.2" lengthAdjust="spacing" textLength="72.9" x="232.5375" y="1261.4537">TypeState</text><line style="stroke:#A80036;stroke-width:2.0250000000000004;" x1="118.125" x2="375.975" y1="1276.425" y2="1276.425"/><line style="stroke:#A80036;stroke-width:2.0250000000000004;" x1="118.125" x2="375.975" y1="1287.225" y2="1287.225"/><ellipse cx="131.625" cy="1302.075" fill="#84BE84" rx="4.05" ry="4.05" style="stroke:#038048;stroke-width:1.35;"/><text fill="#000000" font-family="sans-serif" font-size="14.85" lengthAdjust="spacing" textLength="225.45" x="143.775" y="1308.0406">TypeState(Request.Parser Parser)</text><ellipse cx="131.625" cy="1320.7535" fill="#84BE84" rx="4.05" ry="4.05" style="stroke:#038048;stroke-width:1.35;"/><text fill="#000000" font-family="sans-serif" font-size="14.85" lengthAdjust="spacing" textLength="125.55" x="143.775" y="1326.7191">void handle(byte b)</text><!--MD5=[4837a687be9a01415f70700c94b7073b]
class model.FilenameState--><rect codeLine="27" fill="#FEFECE" filter="url(#f11oh5wl68lgfv)" height="120.8355" id="model.FilenameState" style="stroke:#A80036;stroke-width:2.0250000000000004;" width="284.85" x="223.425" y="1459.35"/><ellipse cx="306.1125" cy="1480.95" fill="#ADD1B2" rx="14.85" ry="14.85" style="stroke:#A80036;stroke-width:1.35;"/><path d="M308.8125,1476.225 Q309.0867,1475.55 309.4031,1475.2125 Q309.7195,1474.875 310.0781,1474.875 Q310.7109,1474.875 311.1117,1475.2547 Q311.5125,1475.6344 311.5125,1476.5203 L311.5125,1478.6297 Q311.5125,1479.5156 311.1328,1479.8953 Q310.7531,1480.275 310.1625,1480.275 Q309.6352,1480.275 309.2977,1480.043 Q308.9602,1479.8109 308.8125,1479.1992 Q308.7492,1478.7773 308.5172,1478.5453 Q308.0953,1478.1023 307.3359,1477.8492 Q306.5766,1477.575 305.8172,1477.575 Q304.868,1477.575 304.0664,1477.9547 Q303.2859,1478.3344 302.6742,1479.1781 Q302.0625,1480.0219 302.0625,1481.182 L302.0625,1482.4266 Q302.0625,1483.8188 303.2016,1484.7469 Q304.3406,1485.675 306.3656,1485.675 Q307.568,1485.675 308.4117,1485.4008 Q308.8969,1485.2531 309.4453,1484.768 Q309.8039,1484.4938 309.9938,1484.4094 Q310.1836,1484.325 310.4156,1484.325 Q310.8586,1484.325 311.175,1484.6836 Q311.5125,1485.0211 311.5125,1485.5063 Q311.5125,1485.9703 311.0484,1486.5188 Q310.3734,1487.3203 309.2977,1487.7633 Q307.8844,1488.375 306.1547,1488.375 Q304.1297,1488.375 302.5055,1487.5734 Q301.1977,1486.9406 300.2695,1485.5695 Q299.3625,1484.1984 299.3625,1482.5742 L299.3625,1481.0977 Q299.3625,1479.4102 300.1641,1477.9336 Q300.9867,1476.457 302.4,1475.6766 Q303.8344,1474.875 305.4375,1474.875 Q306.4078,1474.875 307.2516,1475.2125 Q308.0953,1475.55 308.8125,1476.225 Z " fill="#000000"/><text fill="#000000" font-family="sans-serif" font-size="16.2" lengthAdjust="spacing" textLength="108" x="333.7875" y="1487.5787">FilenameState</text><line style="stroke:#A80036;stroke-width:2.0250000000000004;" x1="224.775" x2="506.925" y1="1502.55" y2="1502.55"/><line style="stroke:#A80036;stroke-width:2.0250000000000004;" x1="224.775" x2="506.925" y1="1513.35" y2="1513.35"/><ellipse cx="238.275" cy="1528.2" fill="#84BE84" rx="4.05" ry="4.05" style="stroke:#038048;stroke-width:1.35;"/><text fill="#000000" font-family="sans-serif" font-size="14.85" lengthAdjust="spacing" textLength="249.75" x="250.425" y="1534.1656">FilenameState(Request.Parser Parser)</text><polygon fill="#FFFF44" points="238.275,1540.1285,243.675,1545.5285,238.275,1550.9285,232.875,1545.5285" style="stroke:#B38D22;stroke-width:1.35;"/><text fill="#000000" font-family="sans-serif" font-size="14.85" lengthAdjust="spacing" textLength="186.3" x="250.425" y="1552.8441">void nextState(String output)</text><ellipse cx="238.275" cy="1565.557" fill="#84BE84" rx="4.05" ry="4.05" style="stroke:#038048;stroke-width:1.35;"/><text fill="#000000" font-family="sans-serif" font-size="14.85" lengthAdjust="spacing" textLength="125.55" x="250.425" y="1571.5226">void handle(byte b)</text><!--MD5=[f5063ce81b3174903ac08349b20a7dc3]
class model.ModeState--><rect codeLine="32" fill="#FEFECE" filter="url(#f11oh5wl68lgfv)" height="120.8355" id="model.ModeState" style="stroke:#A80036;stroke-width:2.0250000000000004;" width="263.25" x="425.925" y="1686.15"/><ellipse cx="512.6625" cy="1707.75" fill="#ADD1B2" rx="14.85" ry="14.85" style="stroke:#A80036;stroke-width:1.35;"/><path d="M515.3625,1703.025 Q515.6367,1702.35 515.9531,1702.0125 Q516.2695,1701.675 516.6281,1701.675 Q517.2609,1701.675 517.6617,1702.0547 Q518.0625,1702.4344 518.0625,1703.3203 L518.0625,1705.4297 Q518.0625,1706.3156 517.6828,1706.6953 Q517.3031,1707.075 516.7125,1707.075 Q516.1852,1707.075 515.8477,1706.843 Q515.5102,1706.6109 515.3625,1705.9992 Q515.2992,1705.5773 515.0672,1705.3453 Q514.6453,1704.9023 513.8859,1704.6492 Q513.1266,1704.375 512.3672,1704.375 Q511.418,1704.375 510.6164,1704.7547 Q509.8359,1705.1344 509.2242,1705.9781 Q508.6125,1706.8219 508.6125,1707.982 L508.6125,1709.2266 Q508.6125,1710.6188 509.7516,1711.5469 Q510.8906,1712.475 512.9156,1712.475 Q514.118,1712.475 514.9617,1712.2008 Q515.4469,1712.0531 515.9953,1711.568 Q516.3539,1711.2938 516.5438,1711.2094 Q516.7336,1711.125 516.9656,1711.125 Q517.4086,1711.125 517.725,1711.4836 Q518.0625,1711.8211 518.0625,1712.3063 Q518.0625,1712.7703 517.5984,1713.3188 Q516.9234,1714.1203 515.8477,1714.5633 Q514.4344,1715.175 512.7047,1715.175 Q510.6797,1715.175 509.0555,1714.3734 Q507.7477,1713.7406 506.8195,1712.3695 Q505.9125,1710.9984 505.9125,1709.3742 L505.9125,1707.8977 Q505.9125,1706.2102 506.7141,1704.7336 Q507.5367,1703.257 508.95,1702.4766 Q510.3844,1701.675 511.9875,1701.675 Q512.9578,1701.675 513.8016,1702.0125 Q514.6453,1702.35 515.3625,1703.025 Z " fill="#000000"/><text fill="#000000" font-family="sans-serif" font-size="16.2" lengthAdjust="spacing" textLength="78.3" x="540.3375" y="1714.3787">ModeState</text><line style="stroke:#A80036;stroke-width:2.0250000000000004;" x1="427.275" x2="687.825" y1="1729.35" y2="1729.35"/><line style="stroke:#A80036;stroke-width:2.0250000000000004;" x1="427.275" x2="687.825" y1="1740.15" y2="1740.15"/><ellipse cx="440.775" cy="1755" fill="#84BE84" rx="4.05" ry="4.05" style="stroke:#038048;stroke-width:1.35;"/><text fill="#000000" font-family="sans-serif" font-size="14.85" lengthAdjust="spacing" textLength="228.15" x="452.925" y="1760.9656">ModeState(Request.Parser Parser)</text><polygon fill="#FFFF44" points="440.775,1766.9285,446.175,1772.3285,440.775,1777.7285,435.375,1772.3285" style="stroke:#B38D22;stroke-width:1.35;"/><text fill="#000000" font-family="sans-serif" font-size="14.85" lengthAdjust="spacing" textLength="186.3" x="452.925" y="1779.6441">void nextState(String output)</text><ellipse cx="440.775" cy="1792.357" fill="#84BE84" rx="4.05" ry="4.05" style="stroke:#038048;stroke-width:1.35;"/><text fill="#000000" font-family="sans-serif" font-size="14.85" lengthAdjust="spacing" textLength="125.55" x="452.925" y="1798.3226">void handle(byte b)</text><!--MD5=[c68c99e2aac25a5a086c199907b4702c]
class model.EndState--><rect codeLine="37" fill="#FEFECE" filter="url(#f11oh5wl68lgfv)" height="102.157" id="model.EndState" style="stroke:#A80036;stroke-width:2.0250000000000004;" width="252.45" x="459.675" y="1912.95"/><ellipse cx="546.4125" cy="1934.55" fill="#ADD1B2" rx="14.85" ry="14.85" style="stroke:#A80036;stroke-width:1.35;"/><path d="M549.1125,1929.825 Q549.3867,1929.15 549.7031,1928.8125 Q550.0195,1928.475 550.3781,1928.475 Q551.0109,1928.475 551.4117,1928.8547 Q551.8125,1929.2344 551.8125,1930.1203 L551.8125,1932.2297 Q551.8125,1933.1156 551.4328,1933.4953 Q551.0531,1933.875 550.4625,1933.875 Q549.9352,1933.875 549.5977,1933.643 Q549.2602,1933.4109 549.1125,1932.7992 Q549.0492,1932.3773 548.8172,1932.1453 Q548.3953,1931.7023 547.6359,1931.4492 Q546.8766,1931.175 546.1172,1931.175 Q545.168,1931.175 544.3664,1931.5547 Q543.5859,1931.9344 542.9742,1932.7781 Q542.3625,1933.6219 542.3625,1934.782 L542.3625,1936.0266 Q542.3625,1937.4188 543.5016,1938.3469 Q544.6406,1939.275 546.6656,1939.275 Q547.868,1939.275 548.7117,1939.0008 Q549.1969,1938.8531 549.7453,1938.368 Q550.1039,1938.0938 550.2938,1938.0094 Q550.4836,1937.925 550.7156,1937.925 Q551.1586,1937.925 551.475,1938.2836 Q551.8125,1938.6211 551.8125,1939.1063 Q551.8125,1939.5703 551.3484,1940.1188 Q550.6734,1940.9203 549.5977,1941.3633 Q548.1844,1941.975 546.4547,1941.975 Q544.4297,1941.975 542.8055,1941.1734 Q541.4977,1940.5406 540.5695,1939.1695 Q539.6625,1937.7984 539.6625,1936.1742 L539.6625,1934.6977 Q539.6625,1933.0102 540.4641,1931.5336 Q541.2867,1930.057 542.7,1929.2766 Q544.1344,1928.475 545.7375,1928.475 Q546.7078,1928.475 547.5516,1928.8125 Q548.3953,1929.15 549.1125,1929.825 Z " fill="#000000"/><text fill="#000000" font-family="sans-serif" font-size="16.2" lengthAdjust="spacing" textLength="67.5" x="574.0875" y="1941.1787">EndState</text><line style="stroke:#A80036;stroke-width:2.0250000000000004;" x1="461.025" x2="710.775" y1="1956.15" y2="1956.15"/><line style="stroke:#A80036;stroke-width:2.0250000000000004;" x1="461.025" x2="710.775" y1="1966.95" y2="1966.95"/><ellipse cx="474.525" cy="1981.8" fill="#84BE84" rx="4.05" ry="4.05" style="stroke:#038048;stroke-width:1.35;"/><text fill="#000000" font-family="sans-serif" font-size="14.85" lengthAdjust="spacing" textLength="217.35" x="486.675" y="1987.7656">EndState(Request.Parser Parser)</text><ellipse cx="474.525" cy="2000.4785" fill="#84BE84" rx="4.05" ry="4.05" style="stroke:#038048;stroke-width:1.35;"/><text fill="#000000" font-family="sans-serif" font-size="14.85" lengthAdjust="spacing" textLength="125.55" x="486.675" y="2006.4441">void handle(byte b)</text><!--MD5=[56289b86346904abf9bb103a77220af2]
class model.Request.Parser--><rect codeLine="57" fill="#FEFECE" filter="url(#f11oh5wl68lgfv)" height="270.2637" id="model.Request.Parser" style="stroke:#A80036;stroke-width:2.0250000000000004;" width="249.75" x="490.725" y="450.9"/><ellipse cx="551.1375" cy="472.5" fill="#ADD1B2" rx="14.85" ry="14.85" style="stroke:#A80036;stroke-width:1.35;"/><path d="M553.8375,467.775 Q554.1117,467.1 554.4281,466.7625 Q554.7445,466.425 555.1031,466.425 Q555.7359,466.425 556.1367,466.8047 Q556.5375,467.1844 556.5375,468.0703 L556.5375,470.1797 Q556.5375,471.0656 556.1578,471.4453 Q555.7781,471.825 555.1875,471.825 Q554.6602,471.825 554.3227,471.593 Q553.9852,471.3609 553.8375,470.7492 Q553.7742,470.3273 553.5422,470.0953 Q553.1203,469.6523 552.3609,469.3992 Q551.6016,469.125 550.8422,469.125 Q549.893,469.125 549.0914,469.5047 Q548.3109,469.8844 547.6992,470.7281 Q547.0875,471.5719 547.0875,472.732 L547.0875,473.9766 Q547.0875,475.3688 548.2266,476.2969 Q549.3656,477.225 551.3906,477.225 Q552.593,477.225 553.4367,476.9508 Q553.9219,476.8031 554.4703,476.318 Q554.8289,476.0438 555.0188,475.9594 Q555.2086,475.875 555.4406,475.875 Q555.8836,475.875 556.2,476.2336 Q556.5375,476.5711 556.5375,477.0563 Q556.5375,477.5203 556.0734,478.0688 Q555.3984,478.8703 554.3227,479.3133 Q552.9094,479.925 551.1797,479.925 Q549.1547,479.925 547.5305,479.1234 Q546.2227,478.4906 545.2945,477.1195 Q544.3875,475.7484 544.3875,474.1242 L544.3875,472.6477 Q544.3875,470.9602 545.1891,469.4836 Q546.0117,468.007 547.425,467.2266 Q548.8594,466.425 550.4625,466.425 Q551.4328,466.425 552.2766,466.7625 Q553.1203,467.1 553.8375,467.775 Z " fill="#000000"/><text fill="#000000" font-family="sans-serif" font-size="16.2" lengthAdjust="spacing" textLength="117.45" x="578.8125" y="479.1287">Request.Parser</text><line style="stroke:#A80036;stroke-width:2.0250000000000004;" x1="492.075" x2="739.125" y1="494.1" y2="494.1"/><rect fill="none" height="8.1" style="stroke:#C82930;stroke-width:1.35;" width="8.1" x="501.525" y="504.9"/><text fill="#000000" font-family="sans-serif" font-size="14.85" lengthAdjust="spacing" textLength="85.05" x="517.725" y="514.9156">boolean read</text><rect fill="none" height="8.1" style="stroke:#C82930;stroke-width:1.35;" width="8.1" x="501.525" y="523.5785"/><text fill="#000000" font-family="sans-serif" font-size="14.85" lengthAdjust="spacing" textLength="95.85" x="517.725" y="533.5941">String filename</text><rect fill="none" height="8.1" style="stroke:#C82930;stroke-width:1.35;" width="8.1" x="501.525" y="542.257"/><text fill="#000000" font-family="sans-serif" font-size="14.85" lengthAdjust="spacing" textLength="76.95" x="517.725" y="552.2726">String mode</text><rect fill="none" height="8.1" style="stroke:#C82930;stroke-width:1.35;" width="8.1" x="501.525" y="560.9355"/><text fill="#000000" font-family="sans-serif" font-size="14.85" lengthAdjust="spacing" textLength="70.2" x="517.725" y="570.9511">State state</text><line style="stroke:#A80036;stroke-width:2.0250000000000004;" x1="492.075" x2="739.125" y1="579.6141" y2="579.6141"/><ellipse cx="505.575" cy="594.4641" fill="#84BE84" rx="4.05" ry="4.05" style="stroke:#038048;stroke-width:1.35;"/><text fill="#000000" font-family="sans-serif" font-size="14.85" lengthAdjust="spacing" textLength="54" x="517.725" y="600.4296">Parser()</text><ellipse cx="505.575" cy="613.1426" fill="#84BE84" rx="4.05" ry="4.05" style="stroke:#038048;stroke-width:1.35;"/><text fill="#000000" font-family="sans-serif" font-size="14.85" lengthAdjust="spacing" textLength="180.9" x="517.725" y="619.1082">void setRead(boolean read)</text><ellipse cx="505.575" cy="631.8211" fill="#84BE84" rx="4.05" ry="4.05" style="stroke:#038048;stroke-width:1.35;"/><text fill="#000000" font-family="sans-serif" font-size="14.85" lengthAdjust="spacing" textLength="214.65" x="517.725" y="637.7867">void setFilename(String filename)</text><ellipse cx="505.575" cy="650.4996" fill="#84BE84" rx="4.05" ry="4.05" style="stroke:#038048;stroke-width:1.35;"/><text fill="#000000" font-family="sans-serif" font-size="14.85" lengthAdjust="spacing" textLength="174.15" x="517.725" y="656.4652">void setMode(String mode)</text><ellipse cx="505.575" cy="669.1781" fill="#84BE84" rx="4.05" ry="4.05" style="stroke:#038048;stroke-width:1.35;"/><text fill="#000000" font-family="sans-serif" font-size="14.85" lengthAdjust="spacing" textLength="98.55" x="517.725" y="675.1437">Request build()</text><ellipse cx="505.575" cy="687.8566" fill="#84BE84" rx="4.05" ry="4.05" style="stroke:#038048;stroke-width:1.35;"/><text fill="#000000" font-family="sans-serif" font-size="14.85" lengthAdjust="spacing" textLength="102.6" x="517.725" y="693.8222">State getState()</text><ellipse cx="505.575" cy="706.5352" fill="#84BE84" rx="4.05" ry="4.05" style="stroke:#038048;stroke-width:1.35;"/><text fill="#000000" font-family="sans-serif" font-size="14.85" lengthAdjust="spacing" textLength="166.05" x="517.725" y="712.5007">void setState(State state)</text><!--MD5=[6a2413a739cf72e11fd384a063aa4c53]
reverse link model.Request to model.BadRequest--><path d="M378.5535,369.036 C340.8885,428.922 301.158,492.0885 274.5225,534.438 " fill="none" id="model.Request-backto-model.BadRequest" style="stroke:#A80036;stroke-width:1.35;"/><polygon fill="none" points="370.764,363.6765,393.1335,345.843,386.7615,373.734,370.764,363.6765" style="stroke:#A80036;stroke-width:1.35;"/><!--MD5=[982c1ea44aef17b788a6a1fe24ff5d26]
reverse link model.State to model.StringState--><path d="M604.8945,952.4115 C597.105,1014.4035 586.0485,1099.656 575.1,1174.5 C573.1965,1187.5545 571.0365,1201.4595 568.9035,1214.811 " fill="none" id="model.State-backto-model.StringState" style="stroke:#A80036;stroke-width:1.35;"/><polygon fill="none" points="595.566,950.886,608.283,925.263,614.3175,953.235,595.566,950.886" style="stroke:#A80036;stroke-width:1.35;"/><!--MD5=[3bdc2157b610a7c47cb1b0318105792e]
reverse link model.State to model.InitialState--><path d="M522.3015,942.381 C496.0035,964.089 468.0855,987.147 444.2175,1006.8435 " fill="none" id="model.State-backto-model.InitialState" style="stroke:#A80036;stroke-width:1.35;"/><polygon fill="none" points="516.564,934.8615,543.402,924.9525,528.5925,949.428,516.564,934.8615" style="stroke:#A80036;stroke-width:1.35;"/><!--MD5=[aa4c5e89d20af985ee667eb6a6a9c808]
reverse link model.State to model.TypeState--><path d="M589.6935,951.0885 C568.971,1018.8315 542.538,1103.0985 537.3,1109.7 C510.651,1143.261 419.9985,1194.966 347.004,1233.198 " fill="none" id="model.State-backto-model.TypeState" style="stroke:#A80036;stroke-width:1.35;"/><polygon fill="none" points="580.6755,948.267,597.5775,925.1955,598.752,953.775,580.6755,948.267" style="stroke:#A80036;stroke-width:1.35;"/><!--MD5=[a4cef68c3d61425d9eb5b150c93596af]
reverse link model.StringState to model.FilenameState--><path d="M483.84,1375.4205 C460.701,1403.5275 435.753,1433.835 414.7875,1459.3095 " fill="none" id="model.StringState-backto-model.FilenameState" style="stroke:#A80036;stroke-width:1.35;"/><polygon fill="none" points="476.6175,1369.332,501.066,1354.482,491.211,1381.3335,476.6175,1369.332" style="stroke:#A80036;stroke-width:1.35;"/><!--MD5=[65ff1417afff23e5d119421445d48b91]
reverse link model.StringState to model.ModeState--><path d="M557.55,1381.725 C557.55,1473.4305 557.55,1608.8625 557.55,1686.0015 " fill="none" id="model.StringState-backto-model.ModeState" style="stroke:#A80036;stroke-width:1.35;"/><polygon fill="none" points="548.1,1381.1985,557.55,1354.1985,567,1381.1985,548.1,1381.1985" style="stroke:#A80036;stroke-width:1.35;"/><!--MD5=[0ecb1233802ed338c902a1921120b8d2]
reverse link model.State to model.EndState--><path d="M696.438,946.2015 C720.1305,978.0345 739.8,1016.6445 739.8,1057.05 C739.8,1057.05 739.8,1057.05 739.8,1748.25 C739.8,1813.8195 691.7805,1873.1115 649.3905,1912.68 " fill="none" id="model.State-backto-model.EndState" style="stroke:#A80036;stroke-width:1.35;"/><polygon fill="none" points="688.77,951.7365,679.158,924.7905,703.4715,939.8565,688.77,951.7365" style="stroke:#A80036;stroke-width:1.35;"/><!--MD5=[7627ce8b65ba9ba0651fcd179b75c75b]
reverse link model.Request to model.Request.Parser--><path codeLine="71" d="M608.7015,364.473 C611.8065,371.6145 614.5875,378.837 616.95,386.1 C623.565,406.4175 626.886,428.5305 628.1415,450.3735 " fill="none" id="model.Request-backto-model.Request.Parser" style="stroke:#A80036;stroke-width:1.35;"/><ellipse cx="604.4114" cy="355.5317" fill="#FFFFFF" rx="10.8" ry="10.8" style="stroke:#A80036;stroke-width:1.35;"/><line style="stroke:#A80036;stroke-width:1.35;" x1="609.0719" x2="599.751" y1="365.2744" y2="345.789"/><line style="stroke:#A80036;stroke-width:1.35;" x1="594.6687" x2="614.1541" y1="360.1921" y2="350.8713"/><!--MD5=[8f1abbe6026d4382835c0cf209136fc9]
link model.Request.Parser to model.Request--><path codeLine="77" d="M551.394,450.5355 C545.8455,437.103 540.5805,423.576 535.95,410.4 C529.4565,391.9455 523.4085,372.303 517.887,352.7415 " fill="none" id="model.Request.Parser-to-model.Request" style="stroke:#A80036;stroke-width:1.35;stroke-dasharray:7.0,7.0;"/><polygon fill="#A80036" points="516.0375,346.113,514.1005,359.2671,517.8511,352.6148,524.5034,356.3654,516.0375,346.113" style="stroke:#A80036;stroke-width:1.35;"/><text fill="#000000" font-family="sans-serif" font-size="17.55" lengthAdjust="spacing" textLength="67.5" x="537.3" y="405.6684">«create»</text><!--MD5=[04efe6920c1b8b315bccfdebe26f95b2]
link model.Request to model.Request.Parser--><path codeLine="78" d="M437.4,345.654 C436.212,367.7805 438.6015,390.015 446.85,410.4 C456.165,433.404 470.1375,455.058 486.135,474.741 " fill="none" id="model.Request-to-model.Request.Parser" style="stroke:#A80036;stroke-width:1.35;stroke-dasharray:7.0,7.0;"/><polygon fill="#A80036" points="490.698,480.249,487.0962,467.4502,486.3881,475.0541,478.7843,474.346,490.698,480.249" style="stroke:#A80036;stroke-width:1.35;"/><text fill="#000000" font-family="sans-serif" font-size="17.55" lengthAdjust="spacing" textLength="67.5" x="448.2" y="405.6684">«create»</text><!--MD5=[f440c5bbb88fee7d138a419509b9a8c8]
reverse link model.Request.Parser to model.State--><path codeLine="74" d="M598.4685,739.1115 C598.725,761.724 599.616,783.8235 601.128,802.926 " fill="none" id="model.Request.Parser-backto-model.State" style="stroke:#A80036;stroke-width:1.35;"/><polygon fill="#A80036" points="598.3875,720.9135,593.0232,729.0372,598.4587,737.1133,603.8231,728.9897,598.3875,720.9135" style="stroke:#A80036;stroke-width:1.35;"/><text fill="#000000" font-family="sans-serif" font-size="17.55" lengthAdjust="spacing" textLength="9.45" x="587.2579" y="750.3038">1</text><text fill="#000000" font-family="sans-serif" font-size="17.55" lengthAdjust="spacing" textLength="9.45" x="588.7385" y="788.6259">1</text><!--MD5=[f66c136f1911cf1e19fd51d2265ff126]
reverse link model.State to model.Request.Parser--><path codeLine="75" d="M632.178,785.1735 C633.3525,765.126 633.8925,742.9455 633.8115,720.9135 " fill="none" id="model.State-backto-model.Request.Parser" style="stroke:#A80036;stroke-width:1.35;"/><polygon fill="#A80036" points="630.9225,802.926,636.8786,795.2257,632.0615,786.7661,626.1054,794.4664,630.9225,802.926" style="stroke:#A80036;stroke-width:1.35;"/><text fill="#000000" font-family="sans-serif" font-size="17.55" lengthAdjust="spacing" textLength="9.45" x="623.0952" y="788.6259">1</text><text fill="#000000" font-family="sans-serif" font-size="17.55" lengthAdjust="spacing" textLength="9.45" x="625.3941" y="750.3038">1</text><!--MD5=[634ed5e4bf3e81550b83cac2ab47e730]
link model.Request.Parser to model.InitialState--><path codeLine="80" d="M490.1985,703.782 C452.6685,741.474 418.5675,779.598 407.7,803.25 C378.864,865.9845 376.1505,946.512 378.4185,999.837 " fill="none" id="model.Request.Parser-to-model.InitialState" style="stroke:#A80036;stroke-width:1.35;stroke-dasharray:7.0,7.0;"/><polygon fill="#A80036" points="378.756,1006.857,383.5585,994.4587,378.4276,1000.115,372.7713,994.9841,378.756,1006.857" style="stroke:#A80036;stroke-width:1.35;"/><text fill="#000000" font-family="sans-serif" font-size="17.55" lengthAdjust="spacing" textLength="67.5" x="409.05" y="871.4184">«create»</text><!--MD5=[ab54adff33485c450c5f9ba9d8c5e509]
link model.InitialState to model.TypeState--><path codeLine="81" d="M352.7955,1109.889 C331.5735,1144.6785 303.2775,1191.0375 281.2995,1227.0555 " fill="none" id="model.InitialState-to-model.TypeState" style="stroke:#A80036;stroke-width:1.35;stroke-dasharray:7.0,7.0;"/><polygon fill="#A80036" points="277.5465,1233.198,288.4949,1225.6539,281.0702,1227.4407,279.2833,1220.016,277.5465,1233.198" style="stroke:#A80036;stroke-width:1.35;"/><text fill="#000000" font-family="sans-serif" font-size="17.55" lengthAdjust="spacing" textLength="67.5" x="328.05" y="1169.7684">«create»</text><!--MD5=[a73aacdbd28eaa1d02e411dc3385037a]
link model.TypeState to model.FilenameState--><path codeLine="82" d="M272.538,1335.8385 C289.9395,1369.9395 313.173,1415.502 332.1135,1452.6135 " fill="none" id="model.TypeState-to-model.FilenameState" style="stroke:#A80036;stroke-width:1.35;stroke-dasharray:7.0,7.0;"/><polygon fill="#A80036" points="335.3535,1458.972,334.648,1445.6948,332.2886,1452.9579,325.0255,1450.5986,335.3535,1458.972" style="stroke:#A80036;stroke-width:1.35;"/><text fill="#000000" font-family="sans-serif" font-size="17.55" lengthAdjust="spacing" textLength="67.5" x="314.55" y="1414.1184">«create»</text><!--MD5=[a1271fe150f3a6cd11263aa8c61e15c5]
link model.FilenameState to model.ModeState--><path codeLine="83" d="M416.718,1580.9175 C442.935,1611.5625 474.957,1648.998 501.8355,1680.4125 " fill="none" id="model.FilenameState-to-model.ModeState" style="stroke:#A80036;stroke-width:1.35;stroke-dasharray:7.0,7.0;"/><polygon fill="#A80036" points="506.439,1685.8125,502.6595,1673.065,502.0573,1680.678,494.4443,1680.0757,506.439,1685.8125" style="stroke:#A80036;stroke-width:1.35;"/><text fill="#000000" font-family="sans-serif" font-size="17.55" lengthAdjust="spacing" textLength="67.5" x="468.45" y="1640.9184">«create»</text><!--MD5=[c7d1eaa1be6815ca8a3fdf6f08c6efba]
link model.ModeState to model.EndState--><path codeLine="84" d="M565.4475,1808.0415 C569.4975,1838.7135 574.4115,1875.8925 578.4075,1906.119 " fill="none" id="model.ModeState-to-model.EndState" style="stroke:#A80036;stroke-width:1.35;stroke-dasharray:7.0,7.0;"/><polygon fill="#A80036" points="579.285,1912.8555,583.0776,1900.1119,578.4169,1906.1616,572.3673,1901.5009,579.285,1912.8555" style="stroke:#A80036;stroke-width:1.35;"/><text fill="#000000" font-family="sans-serif" font-size="17.55" lengthAdjust="spacing" textLength="67.5" x="573.75" y="1867.7184">«create»</text><!--MD5=[ad5002eaac7f11e3b860f34f67d3da16]
@startuml
'https://plantuml.com/class-diagram

class model.BadRequest extends model.Request{
 + BadRequest(boolean read, String filename, String mode)
 - byte[] getEncoded(int maxMessageSize)
}

abstract class model.State{
 # Request.Parser Parser
 # State(Request.Parser Parser)
 {abstract} + void handle(byte b)
}
abstract class model.StringState extends model.State{
 # ByteArrayOutputStream output
 # StringState(Request.Parser Parser)
 {abstract} # void nextState(String output)
 + void handle(byte b)
}
class model.InitialState extends model.State{
 + InitialState(Request.Parser Parser)
 + void handle(byte b)
}
class model.TypeState extends model.State{
 + TypeState(Request.Parser Parser)
 + void handle(byte b)
}
class model.FilenameState extends model.StringState{
 + FilenameState(Request.Parser Parser)
 # void nextState(String output)
 + void handle(byte b)
}
class model.ModeState extends model.StringState{
 + ModeState(Request.Parser Parser)
 # void nextState(String output)
 + void handle(byte b)
}
class model.EndState extends model.State{
 + EndState(Request.Parser Parser)
 + void handle(byte b)
}


class model.Request{
 - boolean read
 - String filename
 - String mode
 + Request(boolean read, String filename, String mode)
 {static} + Request fromEncoded(byte[] bytes)
 - void writeObject(ObjectOutputStream out)
 - void readObject(ObjectInputStream in)
 + byte[] getEncoded(int maxMessageSize)
 + boolean isRead()
 + String toString()
 + boolean equals(Object o)
 + int hashCode()
}
class model.Request.Parser{
 - boolean read
 - String filename
 - String mode
 - State state
 + Parser()
 + void setRead(boolean read)
 + void setFilename(String filename)
 + void setMode(String mode)
 + Request build()
 + State getState()
 + void setState(State state)
}

model.Request +- - model.Request.Parser


model.Request.Parser "1" *- - "1" model.State
model.State "1" *- - "1" model.Request.Parser

model.Request.Parser ..> model.Request: "<<create>>"
model.Request ..> model.Request.Parser: "<<create>>"

model.Request.Parser ..> model.InitialState: "<<create>>"
model.InitialState ..> model.TypeState: "<<create>>"
model.TypeState ..> model.FilenameState: "<<create>>"
model.FilenameState ..> model.ModeState: "<<create>>"
model.ModeState ..> model.EndState: "<<create>>"

@enduml

@startuml

class model.BadRequest extends model.Request{
 + BadRequest(boolean read, String filename, String mode)
 - byte[] getEncoded(int maxMessageSize)
}

abstract class model.State{
 # Request.Parser Parser
 # State(Request.Parser Parser)
 {abstract} + void handle(byte b)
}
abstract class model.StringState extends model.State{
 # ByteArrayOutputStream output
 # StringState(Request.Parser Parser)
 {abstract} # void nextState(String output)
 + void handle(byte b)
}
class model.InitialState extends model.State{
 + InitialState(Request.Parser Parser)
 + void handle(byte b)
}
class model.TypeState extends model.State{
 + TypeState(Request.Parser Parser)
 + void handle(byte b)
}
class model.FilenameState extends model.StringState{
 + FilenameState(Request.Parser Parser)
 # void nextState(String output)
 + void handle(byte b)
}
class model.ModeState extends model.StringState{
 + ModeState(Request.Parser Parser)
 # void nextState(String output)
 + void handle(byte b)
}
class model.EndState extends model.State{
 + EndState(Request.Parser Parser)
 + void handle(byte b)
}


class model.Request{
 - boolean read
 - String filename
 - String mode
 + Request(boolean read, String filename, String mode)
 {static} + Request fromEncoded(byte[] bytes)
 - void writeObject(ObjectOutputStream out)
 - void readObject(ObjectInputStream in)
 + byte[] getEncoded(int maxMessageSize)
 + boolean isRead()
 + String toString()
 + boolean equals(Object o)
 + int hashCode()
}
class model.Request.Parser{
 - boolean read
 - String filename
 - String mode
 - State state
 + Parser()
 + void setRead(boolean read)
 + void setFilename(String filename)
 + void setMode(String mode)
 + Request build()
 + State getState()
 + void setState(State state)
}

model.Request +- - model.Request.Parser


model.Request.Parser "1" *- - "1" model.State
model.State "1" *- - "1" model.Request.Parser

model.Request.Parser ..> model.Request: "<<create>>"
model.Request ..> model.Request.Parser: "<<create>>"

model.Request.Parser ..> model.InitialState: "<<create>>"
model.InitialState ..> model.TypeState: "<<create>>"
model.TypeState ..> model.FilenameState: "<<create>>"
model.FilenameState ..> model.ModeState: "<<create>>"
model.ModeState ..> model.EndState: "<<create>>"

@enduml

PlantUML version 1.2021.01(Tue Feb 02 02:55:08 EST 2021)
(GPL source distribution)
Java Runtime: OpenJDK Runtime Environment
JVM: OpenJDK 64-Bit Server VM
Default Encoding: Cp1252
Language: en
Country: US
--></g></svg>